<svg xmlns="http://www.w3.org/2000/svg" viewBox="0 0 128 128"><defs><style>.Graphic-Style-6{fill:#d6e1ea;}.cls-1{fill:#fff;}.cls-2{fill:#a6caff;}.cls-3{fill:none;stroke:#2a457f;stroke-linecap:round;stroke-linejoin:round;stroke-width:4px;}</style></defs><title>document-gear</title><g id="circles"><circle class="Graphic-Style-6" cx="64" cy="64" r="54"/></g><g id="icons"><rect class="cls-1" x="22.108" y="22" width="72" height="96"/><path class="cls-2" d="M103.11,34a19.711,19.711,0,0,0-.5-4.37l3.28-4.17-4-6.92-5.26.75a20.059,20.059,0,0,0-7.56-4.39L87.11,10h-8l-1.43,3.57L71.7,17.6a19.048,19.048,0,0,0-2.11,1.69l-5.27-.75-2,3.46-2,3.46,3.28,4.17a19.732,19.732,0,0,0,0,8.74l-3.28,4.17,4,6.92,5.27-.75a19.905,19.905,0,0,0,7.56,4.39L79.11,58h8l1.96-4.9a19.376,19.376,0,0,0,5.04-2.42,20.822,20.822,0,0,0,2.52-1.97l5.26.75,4-6.92-3.28-4.17A19.712,19.712,0,0,0,103.11,34Zm-20,10a10,10,0,1,1,10-10A10,10,0,0,1,83.108,44Z"/><polyline class="cls-3" points="22.108 78 22.108 22 62.328 22"/><polyline class="cls-3" points="22.108 88 22.108 118 31.108 118"/><polyline class="cls-3" points="94.108 78 94.108 118 39.108 118"/><line class="cls-3" x1="94.108" y1="68" x2="94.108" y2="50.69"/><line class="cls-3" x1="82.108" y1="85" x2="34.108" y2="85"/><line class="cls-3" x1="34.108" y1="95" x2="46.108" y2="95"/><line class="cls-3" x1="56.108" y1="95" x2="82.108" y2="95"/><line class="cls-3" x1="82.108" y1="75" x2="64.108" y2="75"/><line class="cls-3" x1="56.108" y1="75" x2="34.108" y2="75"/><line class="cls-3" x1="34.108" y1="55" x2="46.108" y2="55"/><line class="cls-3" x1="34.108" y1="45" x2="46.108" y2="45"/><line class="cls-3" x1="34.108" y1="35" x2="46.108" y2="35"/><line class="cls-3" x1="64.108" y1="65" x2="34.108" y2="65"/><line class="cls-3" x1="34.108" y1="105" x2="70.108" y2="105"/><path class="cls-3" d="M81.18,43.82a10.188,10.188,0,0,0,1.93.18,10,10,0,1,0-8.82-5.29m3.39-25.14L79.11,10h8l1.96,4.9a20.058,20.058,0,0,1,7.56,4.39l5.26-.75,4,6.92-3.28,4.17a19.347,19.347,0,0,1,0,8.74l3.28,4.17-4,6.92-5.26-.75a20.825,20.825,0,0,1-2.52,1.97,19.376,19.376,0,0,1-5.04,2.42L87.11,58h-8l-1.96-4.9a19.906,19.906,0,0,1-7.56-4.39l-5.27.75L61.74,45m1.48-9a18.851,18.851,0,0,1-.11-2,20.321,20.321,0,0,1,.49-4.37l-3.28-4.17,2-3.46,2-3.46,5.27.75a17.146,17.146,0,0,1,1.46-1.22"/></g></svg>