<?xml version="1.0" encoding="iso-8859-1"?>
<!-- Generator: Adobe Illustrator 19.0.0, SVG Export Plug-In . SVG Version: 6.00 Build 0)  -->
<svg version="1.1" id="Layer_1" xmlns="http://www.w3.org/2000/svg" xmlns:xlink="http://www.w3.org/1999/xlink" x="0px" y="0px"
	 viewBox="0 0 512 512" style="enable-background:new 0 0 512 512;" xml:space="preserve">
<polygon style="fill:#95341D;" points="253.232,138.378 253.232,171.589 308.584,171.589 319.654,154.984 308.584,138.378 "/>
<g>
	<path style="fill:#AB5D4A;" d="M474.638,121.773c-12.29,0-23.014,6.682-28.757,16.605H308.584v33.211h137.297
		c5.743,9.923,16.466,16.605,28.757,16.605c18.342,0,33.211-14.868,33.211-33.211S492.98,121.773,474.638,121.773z"/>
	<path style="fill:#AB5D4A;" d="M297.514,343.178h-33.211l27.676,77.492h33.211v-49.816
		C325.189,355.569,312.798,343.178,297.514,343.178z"/>
</g>
<path style="fill:#C08577;" d="M264.303,343.178H98.249c-15.285,0-27.676,12.391-27.676,27.676v49.816h221.405v-49.816
	C291.978,355.569,279.587,343.178,264.303,343.178z"/>
<polygon style="fill:#F1866D;" points="220.022,243.546 275.373,221.405 275.373,88.562 220.022,66.422 "/>
<polygon style="fill:#F5AC51;" points="242.162,66.422 120.389,88.562 120.389,221.405 242.162,243.546 "/>
<polygon style="fill:#792A18;" points="220.022,33.211 242.162,88.562 275.373,88.562 275.373,33.211 "/>
<rect x="120.389" y="33.211" style="fill:#95341D;" width="121.773" height="55.351"/>
<polygon style="fill:#AB5D4A;" points="220.022,276.757 275.373,276.757 275.373,221.405 242.162,221.405 "/>
<rect x="120.389" y="221.405" style="fill:#C08577;" width="121.773" height="55.351"/>
<path style="fill:#95341D;" d="M275.373,254.616h-33.211v55.351h33.211c15.285,0,27.676-12.391,27.676-27.676
	S290.658,254.616,275.373,254.616z"/>
<g>
	<path style="fill:#AB5D4A;" d="M269.838,282.292c0-15.285-12.391-27.676-27.676-27.676H120.389
		c-15.285,0-27.676,12.391-27.676,27.676s12.391,27.676,27.676,27.676h121.773C257.447,309.968,269.838,297.577,269.838,282.292z"/>
	<path style="fill:#AB5D4A;" d="M275.373,0h-33.211v55.351h33.211c15.285,0,27.676-12.391,27.676-27.676S290.658,0,275.373,0z"/>
</g>
<path style="fill:#C08577;" d="M269.838,27.676C269.838,12.391,257.447,0,242.162,0H120.389c-15.285,0-27.676,12.391-27.676,27.676
	s12.391,27.676,27.676,27.676h121.773C257.447,55.351,269.838,42.96,269.838,27.676z"/>
<path style="fill:#95341D;" d="M325.189,387.459h-33.211l55.351,116.238h33.211v-60.886
	C380.541,412.241,355.759,387.459,325.189,387.459z"/>
<path style="fill:#AB5D4A;" d="M291.978,387.459H70.573c-30.569,0-55.351,24.782-55.351,55.351v60.886H347.33v-60.886
	C347.33,412.241,322.548,387.459,291.978,387.459z"/>
<path style="fill:#F5AC51;" d="M278.141,80.259h-35.978l-11.07,8.303l11.07,8.303h35.978c4.585,0,8.303-3.716,8.303-8.303
	S282.726,80.259,278.141,80.259z"/>
<path style="fill:#FFD159;" d="M117.622,80.259c-4.585,0-8.303,3.716-8.303,8.303s3.717,8.303,8.303,8.303h124.541V80.259H117.622z"
	/>
<path style="fill:#F5AC51;" d="M278.141,213.103h-35.978l-11.07,8.303l11.07,8.303h35.978c4.585,0,8.303-3.716,8.303-8.303
	S282.726,213.103,278.141,213.103z"/>
<path style="fill:#FFD159;" d="M117.622,213.103c-4.585,0-8.303,3.716-8.303,8.303s3.717,8.303,8.303,8.303h124.541v-16.605H117.622
	z"/>
<g>
	<circle style="fill:#95341D;" cx="272.605" cy="428.973" r="8.303"/>
	<circle style="fill:#95341D;" cx="305.816" cy="462.184" r="8.303"/>
</g>
<path style="fill:#792A18;" d="M383.308,495.395H347.33l-11.07,8.303L347.33,512h35.978c4.585,0,8.303-3.716,8.303-8.303
	C391.611,499.111,387.893,495.395,383.308,495.395z"/>
<path style="fill:#95341D;" d="M12.454,495.395c-4.585,0-8.303,3.716-8.303,8.303c0,4.586,3.717,8.303,8.303,8.303H347.33v-16.605
	H12.454z"/>
<g>
</g>
<g>
</g>
<g>
</g>
<g>
</g>
<g>
</g>
<g>
</g>
<g>
</g>
<g>
</g>
<g>
</g>
<g>
</g>
<g>
</g>
<g>
</g>
<g>
</g>
<g>
</g>
<g>
</g>
</svg>
