<?xml version="1.0" encoding="utf-8"?>
<!-- Generator: Adobe Illustrator 26.3.1, SVG Export Plug-In . SVG Version: 6.00 Build 0)  -->
<svg version="1.1" id="Capa_1" xmlns="http://www.w3.org/2000/svg" xmlns:xlink="http://www.w3.org/1999/xlink" x="0px" y="0px"
	 viewBox="0 0 250 250" style="enable-background:new 0 0 250 250;" xml:space="preserve">
<style type="text/css">
	.st0{clip-path:url(#SVGID_00000173142626113761009620000016834196024661632417_);fill-opacity:0;}
	.st1{clip-path:url(#SVGID_00000173142626113761009620000016834196024661632417_);filter:url(#ut21eioDgedz5CWzXOUbRjLNasX8GLDS);}
	.st2{fill:#AD1519;}
	.st3{clip-path:url(#SVGID_00000173142626113761009620000016834196024661632417_);}
	.st4{fill:#FABD00;}
</style>
<filter  color-interpolation-filters="sRGB" filterUnits="objectBoundingBox" height="400%" id="ut21eioDgedz5CWzXOUbRjLNasX8GLDS" width="400%" x="-200%" y="-200%">
	<feOffset  dx="0" dy="3" in="SourceGraphic" xmlns="http://www.w3.org/2000/svg"></feOffset>
	<feGaussianBlur  result="pf_100_offsetBlur" stdDeviation="2.146804531419514" xmlns="http://www.w3.org/2000/svg">
		</feGaussianBlur>
	
		<feComposite  in="SourceGraphic" in2="pf_100_offsetBlur" operator="out" result="pf_100_inverse" xmlns="http://www.w3.org/2000/svg">
		</feComposite>
	<feFlood  flood-color="#FFFFFF" flood-opacity="0.5" result="pf_100_color" xmlns="http://www.w3.org/2000/svg"></feFlood>
	<feComposite  in="pf_100_color" in2="pf_100_inverse" operator="in" result="pf_100_shadow" xmlns="http://www.w3.org/2000/svg">
		</feComposite>
	
		<feComposite  in="pf_100_shadow" in2="SourceGraphic" operator="over" result="_out_nTPDw1dPOE4dI1bI0U8DfzdsY3ERWsZA" xmlns="http://www.w3.org/2000/svg">
		</feComposite>
	<feOffset  dx="0" dy="-3" in="_out_nTPDw1dPOE4dI1bI0U8DfzdsY3ERWsZA" xmlns="http://www.w3.org/2000/svg"></feOffset>
	<feGaussianBlur  result="pf_101_offsetBlur" stdDeviation="2.146804531419514" xmlns="http://www.w3.org/2000/svg">
		</feGaussianBlur>
	
		<feComposite  in="_out_nTPDw1dPOE4dI1bI0U8DfzdsY3ERWsZA" in2="pf_101_offsetBlur" operator="out" result="pf_101_inverse" xmlns="http://www.w3.org/2000/svg">
		</feComposite>
	<feFlood  flood-color="#000000" flood-opacity="0.5" result="pf_101_color" xmlns="http://www.w3.org/2000/svg"></feFlood>
	<feComposite  in="pf_101_color" in2="pf_101_inverse" operator="in" result="pf_101_shadow" xmlns="http://www.w3.org/2000/svg">
		</feComposite>
	
		<feComposite  in="pf_101_shadow" in2="_out_nTPDw1dPOE4dI1bI0U8DfzdsY3ERWsZA" operator="over" result="_out_XeauSaJy413IM9SlDJsE762c4bfV03q3" xmlns="http://www.w3.org/2000/svg">
		</feComposite>
	<feMerge>
		<feMergeNode  in="_out_XeauSaJy413IM9SlDJsE762c4bfV03q3"></feMergeNode>
	</feMerge>
</filter>
<g>
	<defs>
		<rect id="SVGID_1_" y="0" width="250" height="250"/>
	</defs>
	<clipPath id="SVGID_00000098180840632720585570000016475470472846851461_">
		<use xlink:href="#SVGID_1_"  style="overflow:visible;"/>
	</clipPath>
	
		<rect y="0" style="clip-path:url(#SVGID_00000098180840632720585570000016475470472846851461_);fill-opacity:0;" width="250" height="250"/>
	
		<g style="clip-path:url(#SVGID_00000098180840632720585570000016475470472846851461_);filter:url(#ut21eioDgedz5CWzXOUbRjLNasX8GLDS);">
		<path class="st2" d="M15,0h220c8.3,0,15,6.7,15,15v220c0,8.3-6.7,15-15,15H15c-8.3,0-15-6.7-15-15V15C0,6.7,6.7,0,15,0z"/>
	</g>
	<g style="clip-path:url(#SVGID_00000098180840632720585570000016475470472846851461_);">
		<path class="st4" d="M64.6,189.7c0,1.8,0,3.6,0,5.4c0,0.4,0.1,0.7,0.5,0.8c1.1,0.3,2.2,0.5,3.3,0.8c0,3.9,0,8,0,12.2
			c-1.2,0.1-2.4-0.1-3.5-0.7c-2.7-1.4-5.4-1.3-8.1,0c-2.3,1.1-4.7,1-7.1-0.1c-2.5-1.2-5-1.2-7.6,0c-1.2,0.6-2.4,0.8-3.8,0.8
			c0-4.1,0-8.2,0-12.3c0.9-0.2,1.7-0.3,2.6-0.5c1.2-0.3,1.2-0.4,1.2-1.6c0-1.6,0-3.2,0-4.8c1.7-0.2,2.7-1.1,2.6-2.4
			c0-0.3-0.1-0.6-0.3-0.8c-0.4-0.6-0.3-1.2,0.4-1.4c0.3-0.1,0.5-0.1,0.8-0.1c5.1,0,10.1,0,15.2,0c0.3,0,0.6,0,0.9,0.1
			c0.6,0.2,0.9,0.8,0.5,1.3c-0.5,0.6-0.4,1.3-0.1,1.9C62.6,189.3,63.5,189.7,64.6,189.7z M42.7,190.2c0,1.8,0,3.6,0,5.4
			c7.2,0,14.3,0,21.5,0c0-1.8,0-3.6,0-5.4C57,190.2,49.9,190.2,42.7,190.2z M68.2,204.3c-1.3-0.4-2.5-0.6-3.5-1.1
			c-2.6-1.1-5.1-1.2-7.6,0c-2.4,1.1-4.8,1.1-7.2,0c-2.6-1.2-5.1-1.2-7.6,0c-0.8,0.4-1.7,0.5-2.5,0.8c-0.3,0.1-0.7,0.1-1.1,0.2
			c0,0.4,0,0.7,0,1.1c0,0.3,0,0.7,0,1c1,0.1,2.4-0.2,3.5-0.8c2.6-1.3,5.2-1.2,7.8,0c2.3,1.1,4.7,1.1,7,0c2.7-1.2,5.3-1.3,7.9,0
			c1.1,0.5,2.2,0.7,3.4,0.8C68.2,205.6,68.2,204.9,68.2,204.3z M68.2,199.4c-1.2-0.4-2.4-0.6-3.5-1c-2.6-1.2-5.1-1.2-7.7,0
			c-2.4,1.1-4.9,1.1-7.3-0.1c-2.5-1.2-5-1.2-7.6,0c-0.7,0.3-1.5,0.5-2.2,0.7c-0.4,0.1-0.9,0.1-1.3,0.2c0,0.8,0,1.5,0,2.2
			c1.2,0,2.4-0.3,3.5-0.8c2.6-1.3,5.2-1.2,7.8,0c2.3,1.1,4.7,1.1,7,0c2.7-1.2,5.3-1.3,7.9,0c1.1,0.5,2.2,0.7,3.4,0.8
			C68.2,200.7,68.2,200,68.2,199.4z M61.6,186.9c-5.4,0-10.8,0-16.3,0c0.1,1.1-0.4,2-1.2,2.8c6.3,0,12.5,0,18.7,0
			C61.9,188.9,61.5,188.1,61.6,186.9z M50.9,196.1c1.7,0.6,3.4,0.6,5,0C54.3,196.1,52.6,196.1,50.9,196.1z"/>
		<path class="st4" d="M181.5,209c0-4.2,0-8.2,0-12.2c1.1-0.3,2.1-0.5,3.2-0.8c0.5-0.1,0.7-0.4,0.7-0.9c0-1.7,0-3.5,0-5.3
			c1-0.1,1.9-0.4,2.3-1.3c0.4-0.7,0.6-1.4-0.1-2.1c-0.3-0.4-0.1-1,0.4-1.2c0.3-0.1,0.6-0.1,0.9-0.1c5,0,10,0,15,0
			c0.2,0,0.5,0,0.7,0.1c0.3,0.1,0.7,0.3,0.9,0.6c0.2,0.3,0,0.6-0.2,0.9c-0.4,0.5-0.3,1.1-0.1,1.6c0.4,1.1,1.3,1.6,2.5,1.6
			c0,0.7,0,1.3,0,2c0,1.1,0,2.2,0,3.4c0,0.5,0.2,0.8,0.6,0.9c1.1,0.3,2.1,0.5,3.3,0.8c0,4,0,8.1,0,12.2c-1.3,0.1-2.6-0.2-3.8-0.8
			c-2.5-1.2-5.1-1.2-7.6,0c-2.4,1.1-4.9,1.1-7.3,0c-2.5-1.2-5-1.2-7.6,0C184.1,208.7,182.9,209,181.5,209z M207.3,190.2
			c-7.2,0-14.3,0-21.5,0c0,1.8,0,3.6,0,5.4c7.2,0,14.3,0,21.5,0C207.3,193.8,207.3,192,207.3,190.2z M211.4,204.3
			c-1.2-0.3-2.4-0.5-3.4-1c-2.6-1.2-5.2-1.2-7.8,0c-2.4,1.1-4.9,1.1-7.3-0.1c-2.2-1.1-4.5-1.2-6.7-0.3c-1.4,0.6-2.8,1.2-4.4,1.2
			c0,0.8,0,1.5,0,2.2c1.2,0,2.4-0.3,3.4-0.8c2.6-1.3,5.2-1.3,7.8,0c2.4,1.1,4.7,1.1,7.1,0c2.6-1.2,5.2-1.3,7.9,0
			c1.1,0.5,2.2,0.8,3.4,0.8C211.4,205.6,211.4,204.9,211.4,204.3z M211.3,201.4c0-0.8,0-1.5,0-2c-1.3-0.4-2.5-0.6-3.6-1.1
			c-2.5-1.1-5-1.2-7.5,0c-2.5,1.2-5,1.2-7.5,0c-2.2-1.1-4.5-1.2-6.8-0.3c-1.4,0.6-2.8,1.2-4.3,1.2c0,0.8,0,1.5,0,2.2
			c1.3-0.1,2.4-0.3,3.5-0.8c2.5-1.2,5.1-1.2,7.7,0c2.4,1.1,4.8,1.1,7.3,0c2.6-1.2,5.1-1.2,7.7,0C209,201.2,210.1,201.4,211.3,201.4z
			 M204.6,186.9c-5.4,0-10.8,0-16.2,0c0.1,1.1-0.3,2-1.2,2.7c6.3,0,12.5,0,18.8,0C205,188.9,204.6,188,204.6,186.9z M199.1,196.1
			c-1.8,0-3.4,0-5.2,0C195.3,196.7,197.7,196.7,199.1,196.1z"/>
		<path class="st4" d="M182.9,141.1c1.8,2.2,4.1,3.7,6.5,5.1c5,3,10.4,5.3,15.8,7.6c2.1,0.9,4.1,2,6.2,3c0.4,0.2,0.8,0.5,1.2,0.8
			c1,0.7,1.6,1.5,1.2,2.9c-0.5,2-0.7,4-1.1,6.1c-1.5-1.6-3.2-2.7-5.1-3.6c-2.5-1.1-5.1-2.1-7.7-3.1c-5.3-2.1-10.4-4.7-15-8.3
			c-0.8-0.6-1.4-1.3-2.1-2c-0.5-0.5-0.8-1.1-0.6-1.9c0.3-2,0.5-4,0.7-6C182.8,141.5,182.9,141.3,182.9,141.1z"/>
		<path class="st4" d="M67.2,141.2c0.2,2.3,0.5,4.7,0.7,7.1c0,0.4-0.3,0.9-0.6,1.2c-1.3,1.2-2.6,2.4-4,3.4c-4.9,3.5-10.4,6-16.1,8.1
			c-2.8,1-5.6,2.2-8,4c-0.6,0.4-1.2,1-1.8,1.5c-0.2-1.2-0.4-2.4-0.6-3.6c-0.2-1.1-0.3-2.1-0.6-3.2c-0.1-0.6,0-1.1,0.5-1.4
			c1.1-0.8,2.2-1.7,3.4-2.3c2.7-1.3,5.4-2.4,8.1-3.6c5.3-2.3,10.5-4.7,15.3-8C64.8,143.4,65.9,142.3,67.2,141.2z"/>
		<path class="st4" d="M58.7,84.6c0-0.3,0-0.6,0.2-0.9c0.1-0.3,0.3-0.5,0.5-0.8c-0.2-0.2-0.4-0.4-0.7-0.7c0.8-0.9,1.6-1.7,2.5-2.6
			c-0.2-0.4-0.7-0.5-1.2-0.3c-1,0.3-1.8,1-2.5,1.8c-0.7,0.8-1.3,1.8-1.9,2.7c-0.1,0.1-0.1,0.2-0.2,0.2c-0.2-0.3-0.4-0.6-0.6-0.7
			c-0.3-0.1-0.6,0.1-1.1,0.3c0.7-1.8,1.5-3.5,0.5-5.3c-0.1,0-0.1,0-0.2,0c0,0.4,0.1,0.7,0.1,1.1c0,0.7,0,1.5-0.1,2.2
			c0,0.1-0.2,0.1-0.3,0.2c0.5-1,0.3-2.1,0.1-3.2c0-0.1-0.3-0.2-0.4-0.2c-0.1,0-0.4,0.2-0.4,0.3c0,0.9,0,1.8,0,2.7
			c0,0.1,0.2,0.2,0.4,0.3c-0.2,0.1-0.3,0.2-0.5,0.2c0-1.2,0-2.5,0-3.7c-0.9,1-0.9,2.9-0.1,3.8c0,0.1,0,0.3,0,0.4
			C52.9,83,53,83.4,53,84c0-0.5-0.4-0.7-0.7-0.6c-0.3,0-0.5,0.3-0.8,0.5c-0.4-0.6-0.9-1.3-1.4-2c-0.8-1-1.6-1.9-2.8-2.4
			c-0.8-0.4-1.2-0.3-1.5,0.2c0.8,0.9,1.6,1.7,2.4,2.5c-0.2,0.3-0.4,0.5-0.7,0.7c0.2,0.3,0.4,0.7,0.7,1.1c-0.3,0-0.6-0.1-0.8,0
			c-0.2,0-0.5,0.1-0.5,0.3c-0.1,0.2,0,0.5,0.1,0.6c0.1,0.1,0.5,0.1,0.6,0c0.4-0.4,0.9-0.1,1.3-0.2c0,0.1,0,0.1,0,0.2
			c-0.1,0-0.3-0.1-0.3-0.1c-0.2,0.4-0.2,0.9-0.5,1.1c-0.2,0.2-0.7,0.2-1,0.2c-0.3,0-0.5-0.3-0.4-0.6c0-0.1-0.1-0.3-0.2-0.4
			c0,0-0.3,0-0.3,0.1c0,0.1-0.1,0.4,0,0.4c0.3,0.3,0.3,0.6,0,0.7c-0.2,0.1-0.6,0.1-0.8,0c-0.4-0.2-0.8-0.6-1.2-0.9
			c0.2,0,0.3,0.1,0.5,0c0.2-0.1,0.6-0.2,0.6-0.3c0-0.2-0.2-0.5-0.3-0.8c-0.1,0-0.2,0-0.2,0c-0.2,0.3-0.5,0.6-0.7,1
			c-0.1-0.2-0.3-0.3-0.3-0.5c0-0.3-0.1-0.5-0.5-0.6c-0.7-0.1-1-1.3-0.8-2.1c0.3-0.8,0.8-1.3,1.6-1.7c0.6-0.3,1.2-0.5,1.6-1.2
			c0.2-0.5,0.8-0.4,1.4-0.3c0.4,0.1,0.8,0,1.2-0.1c1.1-0.3,2.3-0.5,3.4-0.4c0.7,0.1,0.9-0.2,0.9-0.9c0-0.3,0.2-0.6,0.3-0.9
			c0.1-0.2,0.2-0.5,0.4-0.8c-0.3,0-0.5-0.1-0.7-0.1c0-0.2,0-0.4,0-0.6c0.2,0,0.4-0.1,0.6-0.2c0-0.2,0-0.3,0.1-0.5c0.2,0,0.4,0,0.6,0
			c0.2,0.3,0.4,0.5,0.6,0.7c0.1,0,0.1-0.1,0.2-0.1c0,0.2,0,0.4,0,0.7C54.2,76,54,76,53.8,76c0,0.1,0,0.1,0,0.1
			c0.2,0.8,0.6,1.5,0.7,2.3c0,0.1,0.3,0.2,0.4,0.2c1.3-0.1,2.5,0.2,3.7,0.5c0.3,0.1,0.8,0.1,1.1,0c0.9-0.2,1.3-0.1,1.8,0.7
			c0.2,0.3,0.5,0.5,0.8,0.6c1.1,0.7,1.7,1.7,1.7,3c0,0.5-0.2,0.8-0.7,0.9c-0.1,0-0.3,0.3-0.3,0.5c0,0.3-0.1,0.4-0.4,0.4
			c-0.2-0.2-0.4-0.5-0.6-0.7c-0.1-0.1-0.4-0.1-0.5,0c-0.1,0.1-0.2,0.4-0.2,0.5c0,0.1,0.2,0.3,0.3,0.3c0.3,0,0.5,0,0.8,0
			c-0.4,0.3-0.7,0.6-1.1,0.9c-0.2,0.1-0.5,0.1-0.7-0.1c-0.1-0.1,0-0.4,0-0.7c0-0.2,0-0.3,0-0.5c0,0-0.2-0.1-0.2-0.1
			c-0.1,0.1-0.3,0.2-0.3,0.4c0.1,0.6-0.4,0.7-0.8,0.8c-0.5,0-0.9-0.4-1-1c0-0.2-0.2-0.4-0.2-0.6C58.3,84.6,58.5,84.6,58.7,84.6
			c0.2,0.1,0.4,0.2,0.7,0.3c0.2,0,0.4,0,0.5,0c0.1-0.1,0.2-0.4,0.1-0.5c0-0.1-0.2-0.3-0.4-0.3C59.1,83.9,58.8,84.1,58.7,84.6z
			 M53.6,75.9c0.2-0.1,0.4-0.2,0.6-0.3c-0.1-0.1-0.3-0.2-0.4-0.3c-0.2-0.1-0.3-0.3-0.5-0.5c-0.1,0.2-0.1,0.6-0.5,0.5
			c0,0.1-0.1,0.3,0,0.4c0.1,0.1,0.3,0.1,0.4,0.1c0,0.1,0,0.3,0,0.4c-0.1,0.4,0.3,1-0.5,1.1c0,0-0.1,0.2,0,0.3
			c0.1,0.2,1.3,0.1,1.5-0.2c-0.2-0.1-0.4-0.1-0.6-0.2C53.6,76.8,53.6,76.3,53.6,75.9z"/>
		<path class="st4" d="M187.1,85.3c-0.1-0.2-0.2-0.3-0.3-0.5c-0.1-0.2-0.3-0.4-0.4-0.6c-0.1,0-0.1,0-0.2,0.1c0-0.2-0.1-0.4-0.1-0.5
			c-0.4-0.1-0.7-0.2-0.9-0.3c-0.1,0,0-0.5,0.1-0.5c0.2-0.1,0.5-0.1,0.8-0.1c0.2-1.1,0.9-2,2.1-2.3c0.7-0.2,1.4-0.2,2,0.4
			c-0.8-0.2-1.6-0.4-2.4,0c-0.8,0.4-1.3,1-1.5,2c1-0.8,2-1.1,3.1-1.2c0.1,0,0.2,0,0.3-0.1c0.3-0.8,0.7-0.6,1.1-0.1
			c0.5-1.9,1.9-2.5,4.4-1.7c0.1-0.5,0.1-0.9,0.2-1.3c0.1-0.3,0.2-0.5,0.3-0.7c0.1-0.2,0.2-0.4,0.4-0.7c-0.6,0-0.9-0.3-0.7-0.7
			c0.3-0.2,0.5-0.4,0.7-0.6c0,0-0.1-0.1-0.1-0.1c0.1,0,0.2,0,0.3,0c0.1,0,0.2,0,0.1,0c0.3,0.3,0.6,0.5,0.9,0.8c0,0.1,0,0.3,0,0.5
			c-0.7,0.3-0.7,0.4-0.3,1c0.2,0.2,0.2,0.5,0.3,0.7c0.1,0.4,0.1,0.8,0.2,1.3c2.5-0.7,3.8-0.2,4.4,1.7c0.4-0.4,0.8-0.6,1.1,0.1
			c0,0.1,0.1,0.1,0.2,0.2c0.5,0.1,1.1,0.1,1.6,0.3c0.5,0.2,1,0.5,1.5,0.7c-0.2-0.9-0.7-1.6-1.5-1.8c-0.7-0.2-1.5-0.1-2.2-0.2
			c1.2-1.1,3.4,0,4,2c0.3,0,0.6,0,0.9,0.1c0.1,0,0.1,0.5,0,0.5c-0.2,0.1-0.5,0.2-0.9,0.3c0,0.1,0,0.3-0.1,0.6
			c-0.5,0-0.7,0.3-0.7,0.8c0,0.1-0.2,0.2-0.3,0.3c-0.2-0.3-0.5-0.6-0.7-1c-0.1,0-0.2,0-0.2,0c-0.1,0.2-0.3,0.5-0.3,0.7
			c0,0.2,0.4,0.3,0.6,0.3c0.1,0,0.3,0,0.5,0c-0.4,0.3-0.7,0.7-1.1,0.9c-0.2,0.1-0.5,0-0.7-0.1c-0.1,0,0.1-0.4,0.1-0.6
			c0-0.2,0.1-0.4,0-0.5c0-0.1-0.3-0.2-0.3-0.1c-0.1,0.1-0.3,0.3-0.3,0.4c0.1,0.4-0.1,0.7-0.5,0.7c-0.4,0-0.8-0.1-1-0.4
			c-0.2-0.2-0.3-0.7-0.4-1.1c-0.1,0.2-0.2,0.3-0.3,0.5c-0.3,0.7-1.1,0.9-1.7,0.5c-0.3-0.2-0.5-0.4-0.2-0.8c0.1-0.1,0-0.4,0-0.6
			c0,0-0.3-0.1-0.3,0c-0.1,0.2-0.2,0.4-0.2,0.5c0.2,0.4-0.1,0.7-0.4,0.7c-0.4,0.1-0.9,0.1-1.1-0.1c-0.3-0.2-0.3-0.7-0.5-1.1
			c0,0,0.2-0.2,0.3-0.2c0.2,0,0.4,0.1,0.5,0.1s0.4,0,0.5-0.2c0.1-0.1,0.1-0.4,0-0.5c-0.1-0.1-0.3-0.2-0.5-0.2
			c-0.3,0-0.5,0.1-0.7,0.2c0.1-0.5,0.2-1,0.3-1.4c0.8-0.4,0.8-2.2,0-2.8c0,0.9,0,1.9,0,2.8c-0.1-0.2-0.2-0.3-0.2-0.5
			c0-0.7,0-1.5,0-2.2c-0.6-0.2-0.8-0.1-0.8,0.5c0,0.5,0,1,0,1.5c0,0.2-0.1,0.4-0.1,0.6c0-0.9,0-1.9,0-2.8c-0.8,0.6-0.9,2.3-0.2,2.9
			c0,0,0.1,0,0.2,0c0,0.1-0.1,0.2-0.1,0.2c0.2,0.6,0.3,1.3,0.5,1.9c0.1,0.4-0.2,1-0.6,1.2c-0.5,0.2-1.1,0.1-1.3-0.3
			c-0.1-0.1,0-0.4,0-0.5c0-0.2-0.1-0.3-0.2-0.5c0,0-0.3,0-0.3,0c-0.1,0.1-0.1,0.4-0.1,0.5c0.4,0.5,0,0.8-0.4,1
			c-0.5,0.3-1.1,0-1.4-0.4c-0.1-0.2-0.2-0.4-0.3-0.6c-0.1,0-0.1,0-0.2,0.1c0,0.2,0,0.4,0,0.6c-0.1,0.7-1,1.1-1.6,0.6
			c-0.1-0.1-0.1-0.3-0.2-0.5c-0.1-0.2-0.2-0.3-0.3-0.5c0,0-0.3,0-0.3,0.1c0,0.2,0,0.4,0,0.6c0,0.2,0.1,0.6,0,0.6
			c-0.2,0.1-0.5,0.2-0.7,0.1c-0.4-0.2-0.8-0.6-1.3-0.9c0.1,0,0.3,0.1,0.4,0c0.3-0.1,0.7-0.2,0.7-0.4c0-0.2-0.2-0.5-0.3-0.7
			c-0.1,0-0.2,0-0.2,0C187.6,84.7,187.4,85,187.1,85.3z M201.9,83.9c-0.5-0.1-1,0-1.5-0.4c-0.1,0-0.4,0.2-0.5,0.4
			c-0.1,0.1,0.1,0.5,0.2,0.5c0.6,0.1,1.2,0.1,1.8,0.2c0.2,0.1,0.4,0.2,0.7,0.3c0.1,0,0.4,0,0.5-0.1c0.1-0.1,0.2-0.4,0.1-0.5
			c0-0.1-0.3-0.3-0.4-0.3c-0.5-0.1-0.7,0.2-0.8,0.6C201.8,84.4,201.8,84.1,201.9,83.9c0.1-0.2,0.3-0.4,0.3-0.6
			c0.1-0.2,0.1-0.5,0-0.6c-0.2-0.4-0.5-0.4-0.8-0.2c-0.1,0.1-0.2,0.4-0.2,0.5C201.2,83.6,201.5,83.8,201.9,83.9z M191.1,83.9
			c0.1,0,0.3-0.1,0.4-0.2c0.2-0.3,0.3-0.6,0.4-1c0-0.1-0.4-0.4-0.6-0.3c-0.2,0-0.5,0.3-0.7,0.4C190.8,83.3,191,83.6,191.1,83.9
			c-0.2,0-0.5,0-0.7,0.1c-0.2,0-0.4,0.2-0.4,0.3c-0.1,0.1,0,0.4,0.1,0.5c0.1,0.1,0.3,0.1,0.5,0.1c0.7-0.3,1.4-0.6,2.3-0.5
			c0.1,0,0.3-0.1,0.3-0.3c0-0.2,0-0.4-0.1-0.5c-0.1-0.1-0.3-0.2-0.4-0.2C192.2,83.9,191.7,83.8,191.1,83.9z M191.3,81.2
			c1.3-0.1,2.5-0.2,3.8-0.2c-0.1-0.3,0-0.9-0.2-1C193.5,79.1,191.5,80,191.3,81.2z M201.7,81.2c-0.2-1-1.4-1.7-2.7-1.5
			c-1.1,0.1-1.2,0.3-1,1.3C199.3,81.1,200.5,81.1,201.7,81.2z M196.2,76.3c-0.1,0.1-0.3,0.2-0.4,0.3c0.2,0.1,0.3,0.2,0.5,0.3
			c0,0.4,0,0.9,0,1.2c-0.2,0.1-0.4,0.2-0.6,0.3c0,0,0,0.1,0.1,0.1c0.5,0,1,0,1.5,0c0-0.1,0-0.1,0-0.2c-0.2-0.1-0.4-0.2-0.6-0.3
			c0-0.4,0-0.9,0-1.3c0.2-0.1,0.4-0.2,0.6-0.3c0,0,0-0.1,0-0.1c-0.2,0-0.3-0.1-0.4-0.1c-0.1-0.2-0.2-0.4-0.3-0.6
			C196.4,75.9,196.3,76.1,196.2,76.3z M196.1,83.9c0-0.1,0-0.2,0-0.3c-0.3-0.1-0.5-0.3-0.8-0.3c-0.2,0-0.4,0.3-0.4,0.5
			c0,0.1,0.3,0.4,0.5,0.4C195.6,84.2,195.8,84,196.1,83.9z M196,78.9c0.5,0.5,0.7,0.5,1.1,0C196.7,78.9,196.4,78.9,196,78.9z"/>
		<path class="st4" d="M46.4,87.7c1-0.2,2.1-0.6,3.1-0.7c3.6-0.4,7.2-0.4,10.8,0.6c0.2,0.1,0.4,0.1,0.5,0.2
			c-0.1,0.4-0.1,0.8-0.2,1.2c-0.4,0.1-0.6,0.3-0.3,0.8c0.1,0.2-0.2,0.5-0.3,0.7c-0.1,0.2-0.4,0.2-0.7,0.4c1.8,0,3.4,0,5.1,0
			c0,2.1,0,4.2,0,6.4c-0.6,0-1.2,0-1.8,0c0.2,0.7-0.1,1-0.6,1.3c-0.5,0.2-0.8,0.6-0.8,1.1c0,0.6,0.3,0.9,0.8,1.2
			c0.4,0.2,0.8,0.5,0.7,1.1c-0.1,0.6-0.6,0.8-1.2,0.8c-2.2,0-4.4,0-6.6,0c-3,0-6,0-9.1,0c-0.2,0-0.5,0-0.7,0
			c-0.5-0.1-0.8-0.4-0.9-0.8c-0.1-0.4,0.2-0.8,0.5-1c0.2-0.1,0.5-0.2,0.6-0.4c0.6-0.6,0.4-1.5-0.4-1.9c-0.6-0.3-1-0.6-0.7-1.3
			c-0.5,0-0.9,0-1.3,0c-0.2,0-0.4-0.2-0.4-0.3c0-2,0-3.9,0-6c1.7,0,3.3,0,5.1,0c-0.4-0.2-0.6-0.3-0.8-0.4c-0.2-0.2-0.4-0.5-0.3-0.7
			c0.2-0.5,0.1-0.8-0.4-0.8c0-0.4-0.1-0.8-0.1-1.3C46.1,87.7,46.3,87.7,46.4,87.7c-0.1,0.6,0.3,0.7,0.6,0.8c0,0.3-0.1,0.5-0.1,0.7
			c0.2,0,0.4,0,0.6-0.1c2.8-0.7,5.6-0.7,8.4-0.5c1.3,0.1,2.7,0.4,4.1,0.6c-0.1-0.3-0.1-0.5-0.2-0.7c0.3-0.2,0.5-0.4,0.9-0.6
			c-0.3-0.1-0.4-0.2-0.5-0.2c-1.4-0.2-2.9-0.6-4.3-0.6c-2-0.1-4.1,0-6.2,0.1C48.6,87.2,47.5,87.5,46.4,87.7z M43,96.8
			c7,0,13.9,0,20.9,0c0-1.8,0-3.6,0-5.4c-7,0-13.9,0-20.9,0C43,93.2,43,95,43,96.8z M60.9,98.7c-4.9,0-9.9,0-14.8,0c0,0.7,0,1.3,0,2
			c4.9,0,9.9,0,14.8,0C60.9,100,60.9,99.4,60.9,98.7z M53.4,102.3c2.6,0,5.1,0,7.7,0c0.2,0,0.5,0,0.7-0.1c0.2-0.1,0.4-0.3,0.4-0.5
			c0-0.2-0.3-0.4-0.5-0.5c-0.2-0.1-0.5-0.1-0.7-0.1c-5,0-10,0-15.1,0c-0.2,0-0.4-0.1-0.5,0c-0.3,0.2-0.7,0.3-0.7,0.6
			c-0.1,0.5,0.4,0.6,0.8,0.6c0.1,0,0.3,0,0.4,0C48.4,102.3,50.9,102.3,53.4,102.3z M53.5,97.3c-2.7,0-5.3,0-8,0
			c-0.3,0-0.5,0.3-0.8,0.4c0.3,0.2,0.6,0.3,0.8,0.5c0,0,0.1,0,0.1,0c5.2,0,10.4,0,15.7,0c0.4,0,0.9,0,0.9-0.4c0-0.5-0.5-0.5-0.9-0.5
			C58.7,97.3,56.1,97.3,53.5,97.3z M53.4,91c1.2,0,2.4,0,3.6,0c0.8,0,1.5-0.2,2.3-0.4c0.3-0.1,0.5-0.4,0.8-0.6
			c-0.3-0.2-0.5-0.4-0.8-0.5c-1.1-0.2-2.2-0.4-3.3-0.5c-2.9-0.3-5.8-0.2-8.6,0.5c-0.2,0.1-0.4,0.3-0.7,0.5c0.2,0.2,0.4,0.5,0.6,0.6
			c0.8,0.2,1.7,0.4,2.5,0.4C51.1,91,52.3,91,53.4,91z"/>
		<path class="st4" d="M189.5,87.7c1-0.2,2.1-0.6,3.1-0.7c3.6-0.4,7.2-0.4,10.8,0.6c0.2,0.1,0.4,0.1,0.5,0.2
			c-0.1,0.4-0.2,0.8-0.2,1.2c-0.4,0.1-0.6,0.3-0.3,0.8c0.1,0.2-0.2,0.5-0.3,0.7c-0.1,0.2-0.4,0.2-0.8,0.4c1.8,0,3.4,0,5.1,0
			c0,2.1,0,4.2,0,6.3c-0.5,0-1.1,0-1.7,0c0.2,0.8-0.2,1.1-0.8,1.4c-0.5,0.2-0.7,0.5-0.7,1c0,0.5,0.2,0.8,0.6,1.1
			c0.1,0.1,0.2,0.1,0.3,0.2c0.4,0.2,0.6,0.6,0.5,1c-0.1,0.5-0.4,0.7-0.9,0.8c-0.2,0-0.5,0-0.7,0c-5.1,0-10.2,0-15.3,0
			c-0.3,0-0.6,0-0.8-0.1c-0.7-0.3-0.8-1.1-0.2-1.6c0.1-0.1,0.2-0.1,0.3-0.2c0.3-0.3,0.6-0.7,0.7-1.1c0.1-0.5-0.2-0.9-0.7-1.1
			c-0.5-0.2-0.9-0.6-0.7-1.3c-0.6,0-1.2,0-1.8,0c0-2.1,0-4.2,0-6.3c1.7,0,3.3,0,5.1,0c-0.4-0.2-0.7-0.3-0.9-0.5
			c-0.2-0.2-0.3-0.5-0.3-0.7c0.2-0.5,0-0.7-0.4-0.8c0-0.4-0.1-0.8-0.1-1.3C189.2,87.7,189.4,87.7,189.5,87.7
			c-0.2,0.6,0.3,0.7,0.6,0.8c0,0.3-0.1,0.5-0.1,0.7c0.2,0,0.5,0,0.7,0c1.5-0.2,3-0.5,4.5-0.6c2.6-0.2,5.2,0,7.9,0.8
			c-0.1-0.4-0.1-0.7-0.1-0.8c0.3-0.2,0.5-0.4,0.9-0.6c-0.3-0.1-0.4-0.2-0.5-0.2c-1.4-0.2-2.8-0.6-4.2-0.6c-2.1-0.1-4.2,0-6.3,0.1
			C191.7,87.2,190.6,87.5,189.5,87.7z M186.1,91.4c0,1.9,0,3.6,0,5.5c7,0,13.9,0,20.9,0c0-1.8,0-3.6,0-5.5
			C200,91.4,193,91.4,186.1,91.4z M188.9,98.7c0.5,0.7,0.4,1.4,0.1,2c5.1,0,10.1,0,15,0c0-0.7,0-1.3,0-2
			C199,98.7,194,98.7,188.9,98.7z M196.5,102.3c2.5,0,5.1,0,7.6,0c0.5,0,1.2,0.1,1.2-0.6c0-0.7-0.7-0.6-1.2-0.6c-5,0-10.1,0-15.1,0
			c-0.2,0-0.5,0-0.6,0c-0.2,0.1-0.4,0.4-0.6,0.6c0.2,0.2,0.4,0.4,0.7,0.5c0.1,0.1,0.3,0,0.5,0C191.5,102.3,194,102.3,196.5,102.3z
			 M196.6,97.3c-2.6,0-5.2,0-7.9,0c-0.4,0-0.9-0.1-1,0.4c0,0.5,0.5,0.5,0.9,0.5c5.2,0,10.4,0,15.6,0c0.4,0,0.9,0,1-0.4
			c0-0.5-0.5-0.4-0.9-0.4C201.8,97.3,199.2,97.3,196.6,97.3z M196.5,91c1,0,1.9,0,2.9,0c0.9,0,1.8-0.1,2.7-0.3
			c0.4-0.1,0.7-0.4,1.1-0.7c-0.3-0.2-0.6-0.5-1-0.6c-3.9-0.8-7.8-0.8-11.6,0.1c-0.3,0.1-0.5,0.3-0.7,0.5c0.2,0.2,0.4,0.5,0.7,0.6
			c0.8,0.2,1.6,0.4,2.4,0.4C194.1,91,195.3,91,196.5,91z"/>
		<path class="st4" d="M204.5,143.6c0,3.1,0,6.2,0,9.3c-0.1,0-0.1,0-0.2,0.1c-0.1-0.2-0.2-0.4-0.2-0.6c0-1.7,0-3.3,0-5
			c0-4.2,0-8.5,0-12.7c0-0.2,0-0.5,0-0.7c0.4,0.1,0.4,0.1,0.4,0.9c0,0.4,0,0.8,0,1.3c1-0.1,2-0.1,2.9-0.3c0.5-0.1,0.9,0,1.2,0.3
			c0.8,0.6,1.6,1.2,2.3,1.9c1.3,1.4,1.1,2.9-0.5,3.9c-1.6,1-3.3,1.3-5.1,1.5c-0.2,0-0.4,0-0.6,0.1
			C204.7,143.5,204.6,143.6,204.5,143.6z"/>
		<path class="st4" d="M45.3,136.1c0.3-0.8-0.2-1.6,0.3-2.2c0.1,0,0.1,0,0.2,0c0,0.2,0,0.4,0,0.6c0,5.9,0,11.8,0,17.7
			c0,0.2-0.1,0.5-0.2,0.7c-0.1,0-0.1,0-0.2,0c0-3.1,0-6.2,0-9.3c-1-0.2-2-0.3-3-0.5c-1-0.3-2.1-0.6-3-1.2c-1.5-0.9-1.7-2.3-0.6-3.6
			c0.8-0.9,1.8-1.6,2.7-2.3c0.2-0.1,0.5-0.1,0.8-0.1C43.4,136,44.4,136.1,45.3,136.1z"/>
		<path class="st4" d="M61.4,154.9c0,9.8,0,19.6,0,29.4c-5.3,0-10.6,0-16,0c0-7.3,0-14.7,0-22.1c0-0.1,0.1-0.1,0.4-0.2
			c0,7.4,0,14.6,0,21.9c3.7,0,7.3,0,11,0c0-8.9,0-17.7,0-26.5c0.1,0,0.1,0,0.2,0c0,8.8,0,17.6,0,26.5c0.6,0,1,0,1.6,0
			c0-9.1,0-18.3,0-27.4c0.1,0,0.1,0,0.2,0c0,9.1,0,18.3,0,27.4c0.8,0,1.5,0,2.3,0c0-0.3,0-0.5,0-0.8c0-9.2,0-18.4,0-27.6
			c0-0.3,0.1-0.5,0.1-0.8C61.2,154.8,61.3,154.8,61.4,154.9z"/>
		<path class="st4" d="M201.9,183.9c0.8,0,1.5,0,2.2,0c0-7.3,0-14.5,0-22c0.2,0.2,0.4,0.3,0.4,0.4c0.1,0.1,0,0.3,0,0.4
			c0,7,0,14,0,20.9c0,0.2,0,0.4,0,0.6c-5.3,0-10.6,0-16,0c0-9.8,0-19.6,0-29.5c0,0,0.1,0,0.1-0.1c0.1,0.2,0.2,0.3,0.3,0.5
			c0,0.1,0,0.3,0,0.4c0,9.1,0,18.3,0,27.4c0,0.2,0,0.5,0,0.8c3.7,0,7.3,0,11,0c0-7.8,0-15.6,0-23.3c0,0,0.1,0,0.1,0
			c0,7.8,0,15.5,0,23.3c0.5,0,1,0,1.6,0c0-7.5,0-15.1,0-22.7c0.1,0,0.1,0,0.2,0C201.9,168.8,201.9,176.3,201.9,183.9z"/>
		<path class="st4" d="M61,103.7c-0.8,0-1.5,0-2.3,0c0,5.9,0,11.7,0,17.5c-0.1,0-0.1,0-0.2,0c0-5.8,0-11.7,0-17.5c-0.5,0-1,0-1.6,0
			c0,5.9,0,11.8,0,17.7c-0.1,0-0.1,0-0.2,0c0-5.9,0-11.7,0-17.7c-3.7,0-7.3,0-11,0c0,0.3,0,0.5,0,0.8c0,6.1,0,12.2,0,18.4
			c0,0.3-0.1,0.5-0.2,0.8c-0.1,0-0.1,0-0.2,0c0-6.8,0-13.5,0-20.3c5.3,0,10.6,0,16,0c0,0.2,0,0.4,0,0.6c0,5.6,0,11.2,0,16.7
			c0,0.1,0,0.3,0,0.4c0,0.1-0.1,0.1-0.2,0.2c-0.1-0.1-0.2-0.1-0.2-0.2c0-0.2,0-0.3,0-0.5c0-5.4,0-10.7,0-16.1
			C61,104.3,61,104,61,103.7z"/>
		<path class="st4" d="M188.5,137.9c0-2.2,0-4.3,0-6.4c0-0.2,0.1-0.4,0.2-0.6c0.1,0,0.1,0,0.2,0.1c0,4.8,0,9.5,0,14.5
			c-1.2-0.9-2.3-1.6-3.4-2.5c-0.8-0.7-1.5-1.4-2.2-2.2c-0.5-0.6-0.4-1.1,0.3-1.4c1.3-0.5,2.7-0.9,4.1-1.3
			C188.1,138,188.3,138,188.5,137.9z"/>
		<path class="st4" d="M61.3,130.9c0,0.2,0.1,0.4,0.1,0.5c0,1.9,0,3.8,0,5.8c0,0.2,0,0.4,0,0.5c1.3,0.4,2.5,0.7,3.7,1.1
			c0.4,0.1,0.8,0.4,1.2,0.6c0.7,0.4,0.8,0.7,0.3,1.3c-0.5,0.6-1,1.2-1.6,1.7c-1.3,1-2.6,2-4,3c0-5,0-9.7,0-14.5
			C61.1,131,61.2,131,61.3,130.9z"/>
		<path class="st4" d="M204.5,123.8c-0.2-0.2-0.3-0.3-0.4-0.4c0-0.2,0-0.3,0-0.5c0-6.1,0-12.2,0-18.4c0-0.2,0-0.5,0-0.8
			c-0.8,0-1.5,0-2.2,0c0,6.4,0,12.7,0,19.1c0,0-0.1,0-0.1,0c0-6.3,0-12.7,0-19.1c-0.5,0-1,0-1.6,0c0,6.2,0,12.4,0,18.6
			c0,0-0.1,0-0.1,0c0-6.2,0-12.3,0-18.6c-3.7,0-7.3,0-11,0c0,5.8,0,11.7,0,17.7c-0.2-0.2-0.4-0.3-0.5-0.4c-0.1-0.1,0-0.3,0-0.4
			c0-5.6,0-11.1,0-16.7c0-0.5,0.1-0.7,0.7-0.7c4.9,0,9.8,0,14.7,0c0.4,0,0.7,0,0.7,0.5c0,6.5,0,13,0,19.5
			C204.6,123.4,204.6,123.5,204.5,123.8z"/>
		<path class="st4" d="M41.4,172.5c-0.3-1.6-1.2-2.7-2.4-3.6c-0.4-0.3-0.8-0.6-1.1-0.9c-0.4-0.4-0.5-0.9-0.1-1.3
			c0.8-0.8,1.7-1.5,2.6-2.2c0.1-0.1,0.4,0,0.5,0.1C43.1,166.6,43.4,170.4,41.4,172.5z"/>
		<path class="st4" d="M208.6,172.6c-0.7-0.8-1.1-1.6-1.2-2.5c-0.4-2,0.1-3.7,1.5-5.2c0.3-0.3,0.5-0.3,0.8-0.1
			c0.7,0.6,1.5,1.1,2.2,1.8c0.8,0.7,0.7,1.2-0.1,1.8c-0.2,0.2-0.5,0.4-0.7,0.5C209.8,169.8,208.8,170.9,208.6,172.6z"/>
		<path class="st4" d="M188.9,87.3c0.4-0.3,0.7-0.5,1-0.8c0.8,0.3,1.5,0.1,2-0.7c0.8,0.6,1.6,0.7,2.3-0.1c0.9,0.6,1.6,0.5,2.3-0.2
			c0.7,0.7,1.5,0.8,2.3,0.3c0.7,0.7,1.5,0.8,2.3,0.1c0.7,0.9,1.1,1,2.1,0.7c0.3,0.2,0.6,0.5,1,0.8C199.1,86,194,86,188.9,87.3z"/>
		<path class="st4" d="M48.8,85.8c0.8,0.7,1.6,0.6,2.3-0.1c0.8,0.5,1.6,0.5,2.3-0.2c1,0.7,1.4,0.8,2.3,0.2c0.7,0.6,1.5,0.8,2.3,0.1
			c0.7,0.9,1.1,1,2.1,0.7c0.3,0.2,0.5,0.5,0.7,0.6c-1.6-0.2-3.2-0.6-4.9-0.7c-1.7-0.1-3.4-0.1-5.1,0c-1.7,0.1-3.4,0.5-4.9,0.7
			c0.2-0.1,0.4-0.4,0.8-0.6C47.5,86.9,48.2,86.7,48.8,85.8z"/>
		<path class="st4" d="M56.9,131.3c0,5.5,0,10.9,0,16.4c0,0-0.1,0-0.1,0C56.8,142.2,56.8,136.8,56.9,131.3
			C56.8,131.3,56.9,131.3,56.9,131.3z"/>
		<path class="st4" d="M58.7,131.2c0,5.2,0,10.4,0,15.6c0,0-0.1,0-0.1,0c0-5.2,0-10.4,0-15.6C58.6,131.2,58.6,131.2,58.7,131.2z"/>
		<path class="st4" d="M89.9,38.3c0.7,0,1.3,0.6,1.3,1.3c0,0.7-0.6,1.3-1.3,1.2c-0.7,0-1.2-0.6-1.2-1.3
			C88.6,38.8,89.2,38.3,89.9,38.3z M89.8,38.7c-0.5,0-0.8,0.3-0.8,0.8c0,0.5,0.4,0.8,0.9,0.8c0.5,0,0.8-0.3,0.8-0.8
			C90.7,39,90.3,38.7,89.8,38.7z"/>
		<path class="st4" d="M158.4,39.6c0-0.7,0.5-1.3,1.2-1.3c0.7,0,1.3,0.6,1.3,1.3c0,0.7-0.6,1.3-1.3,1.3
			C158.9,40.8,158.4,40.3,158.4,39.6z M159.7,40.3c0.5,0,0.8-0.3,0.8-0.8c0-0.5-0.3-0.8-0.8-0.8c-0.5,0-0.8,0.3-0.8,0.8
			C158.8,40,159.1,40.4,159.7,40.3z"/>
		<path class="st4" d="M166.2,42.6c-0.7,0-1.3-0.5-1.3-1.2c0-0.7,0.6-1.3,1.3-1.3c0.7,0,1.3,0.6,1.2,1.3
			C167.4,42.1,166.9,42.6,166.2,42.6z M166.2,42.2c0.5,0,0.8-0.3,0.8-0.8c0-0.5-0.3-0.8-0.8-0.8c-0.5,0-0.9,0.3-0.9,0.8
			C165.4,41.9,165.7,42.2,166.2,42.2z"/>
		<path class="st4" d="M73.4,55.9c0.7,0,1.2,0.5,1.2,1.2c0,0.7-0.6,1.3-1.3,1.3c-0.7,0-1.3-0.6-1.3-1.3
			C72.1,56.4,72.6,55.9,73.4,55.9z M73.3,56.3c-0.5,0-0.8,0.3-0.8,0.8c0,0.5,0.3,0.8,0.8,0.9c0.5,0,0.9-0.4,0.9-0.9
			C74.2,56.7,73.8,56.3,73.3,56.3z"/>
		<path class="st4" d="M139.3,34.1c0,0.7-0.5,1.3-1.2,1.3c-0.7,0-1.3-0.6-1.3-1.3c0-0.6,0.6-1.2,1.2-1.3
			C138.7,32.9,139.3,33.4,139.3,34.1z M138.9,34.2c0-0.5-0.4-0.8-0.8-0.8c-0.5,0-0.9,0.4-0.9,0.9c0,0.4,0.4,0.8,0.9,0.8
			C138.6,35,138.9,34.6,138.9,34.2z"/>
		<path class="st4" d="M114.6,33c0.7,0,1.3,0.6,1.3,1.3c0,0.7-0.6,1.3-1.3,1.2c-0.7,0-1.2-0.6-1.2-1.2C113.4,33.5,113.9,33,114.6,33
			z M114.6,33.4c-0.4,0-0.9,0.4-0.9,0.8c0,0.4,0.4,0.9,0.8,0.9c0.4,0,0.9-0.4,0.9-0.9C115.5,33.8,115.1,33.4,114.6,33.4z"/>
		<path class="st4" d="M102.1,36.2c0.7,0,1.3,0.5,1.3,1.2c0,0.7-0.6,1.3-1.3,1.3c-0.7,0-1.2-0.6-1.2-1.2
			C100.8,36.8,101.3,36.2,102.1,36.2z M102,36.6c-0.5,0-0.8,0.3-0.8,0.8c0,0.5,0.3,0.8,0.8,0.8c0.5,0,0.8-0.3,0.8-0.9
			C102.9,36.9,102.5,36.6,102,36.6z"/>
		<path class="st4" d="M161.8,40.2c0-0.7,0.6-1.2,1.3-1.2c0.7,0,1.2,0.6,1.2,1.2c0,0.7-0.6,1.3-1.3,1.3
			C162.4,41.5,161.8,40.9,161.8,40.2z M163.1,41c0.5,0,0.8-0.4,0.8-0.8c0-0.5-0.4-0.8-0.8-0.8c-0.5,0-0.9,0.3-0.8,0.8
			C162.3,40.7,162.6,41,163.1,41z"/>
		<path class="st4" d="M175.5,49.3c0.7,0,1.3,0.6,1.3,1.3c0,0.7-0.6,1.3-1.3,1.3c-0.7,0-1.2-0.5-1.2-1.2
			C174.2,49.8,174.8,49.3,175.5,49.3z M176.3,50.5c0-0.5-0.4-0.8-0.9-0.8c-0.5,0-0.8,0.4-0.8,0.9c0,0.5,0.4,0.8,0.9,0.8
			C176,51.3,176.3,51,176.3,50.5z"/>
		<path class="st4" d="M169.2,41.8c0.7,0,1.2,0.5,1.2,1.2c0,0.7-0.6,1.3-1.3,1.3c-0.7,0-1.3-0.6-1.3-1.3
			C167.9,42.4,168.5,41.8,169.2,41.8z M170,43.1c0-0.5-0.3-0.8-0.8-0.8c-0.5,0-0.8,0.3-0.9,0.8c0,0.5,0.4,0.9,0.8,0.9
			C169.6,43.9,170,43.5,170,43.1z"/>
		<path class="st4" d="M77.8,43.8c0.7,0,1.2,0.6,1.2,1.3c0,0.7-0.6,1.2-1.2,1.2c-0.7,0-1.3-0.6-1.3-1.3
			C76.5,44.4,77.1,43.8,77.8,43.8z M78.6,45.1c0-0.4-0.5-0.9-0.9-0.8c-0.4,0-0.8,0.5-0.8,0.9c0,0.4,0.4,0.8,0.8,0.8
			C78.2,46,78.6,45.5,78.6,45.1z"/>
		<path class="st4" d="M99.6,40.7c-0.7,0-1.3-0.5-1.3-1.3c0-0.7,0.5-1.2,1.2-1.2c0.7,0,1.3,0.5,1.3,1.2
			C100.9,40.2,100.3,40.7,99.6,40.7z M99.6,40.3c0.4,0,0.9-0.4,0.9-0.9c0-0.5-0.3-0.8-0.8-0.8c-0.4,0-0.8,0.4-0.9,0.8
			C98.7,39.9,99.2,40.3,99.6,40.3z"/>
		<path class="st4" d="M104.9,37c-0.7,0-1.3-0.5-1.3-1.2c0-0.7,0.6-1.2,1.2-1.2c0.7,0,1.3,0.6,1.3,1.3C106.2,36.4,105.7,37,104.9,37
			z M105.8,35.6c0-0.3-0.3-0.6-0.8-0.6c-0.5,0-0.8,0.3-0.8,0.8c0,0.5,0.3,0.8,0.8,0.8C105.4,36.6,105.8,36.3,105.8,35.6z"/>
		<path class="st4" d="M75.5,60.3c0,0.7-0.5,1.3-1.3,1.3c-0.7,0-1.3-0.6-1.3-1.3c0-0.7,0.6-1.2,1.2-1.2C75,59,75.5,59.6,75.5,60.3z
			 M75.1,60.3c0-0.5-0.3-0.8-0.8-0.8c-0.5,0-0.9,0.3-0.9,0.8c0,0.5,0.4,0.8,0.9,0.8C74.8,61.1,75.1,60.8,75.1,60.3z"/>
		<path class="st4" d="M172.6,47.5c0-0.7,0.5-1.3,1.3-1.3c0.7,0,1.2,0.6,1.3,1.2c0,0.7-0.6,1.3-1.3,1.3
			C173.2,48.8,172.6,48.3,172.6,47.5z M173.9,48.4c0.5,0,0.8-0.4,0.8-0.8c0-0.4-0.4-0.9-0.9-0.8c-0.5,0-0.8,0.4-0.8,0.9
			C173,48,173.4,48.4,173.9,48.4z"/>
		<path class="st4" d="M74,49.3c0.7,0,1.3,0.6,1.3,1.3c0,0.7-0.6,1.3-1.3,1.3c-0.7,0-1.2-0.6-1.2-1.2C72.8,49.8,73.3,49.3,74,49.3z
			 M74.8,50.5c0-0.5-0.3-0.8-0.8-0.8c-0.5,0-0.8,0.3-0.8,0.8c0,0.5,0.4,0.8,0.9,0.8C74.5,51.3,74.8,51,74.8,50.5z"/>
		<path class="st4" d="M112.7,34.1c0,0.7-0.6,1.3-1.3,1.3c-0.7,0-1.3-0.6-1.3-1.3c0-0.7,0.6-1.2,1.2-1.2
			C112.1,32.9,112.7,33.4,112.7,34.1z M112.3,34.1c0-0.4-0.4-0.8-0.8-0.8c-0.5,0-0.9,0.4-0.9,0.9c0.1,0.5,0.3,0.8,0.9,0.8
			C111.9,35,112.3,34.6,112.3,34.1z"/>
		<path class="st4" d="M85.1,40.2c0-0.7,0.5-1.3,1.3-1.2c0.7,0,1.2,0.5,1.2,1.2c0,0.7-0.6,1.3-1.2,1.3
			C85.7,41.5,85.1,40.9,85.1,40.2z M85.5,40.2c0,0.4,0.4,0.9,0.9,0.9c0.4,0,0.8-0.4,0.9-0.8c0-0.5-0.4-0.9-0.9-0.9
			C85.9,39.3,85.5,39.7,85.5,40.2z"/>
		<path class="st4" d="M148.6,37.4c0,0.7-0.6,1.3-1.3,1.3c-0.7,0-1.3-0.6-1.2-1.3c0-0.7,0.5-1.2,1.2-1.2
			C148.1,36.2,148.6,36.7,148.6,37.4z M148.2,37.5c0-0.4-0.3-0.8-0.8-0.9c-0.5,0-0.9,0.3-0.9,0.8c0,0.4,0.4,0.8,0.8,0.9
			C147.8,38.3,148.2,37.9,148.2,37.5z"/>
		<path class="st4" d="M131.5,33.6c0.7,0,1.2,0.6,1.2,1.2c0,0.7-0.6,1.3-1.3,1.3c-0.7,0-1.2-0.6-1.2-1.3
			C130.2,34.1,130.8,33.6,131.5,33.6z M131.4,34c-0.4,0-0.7,0.3-0.7,0.8c0,0.5,0.4,0.9,0.9,0.9c0.5,0,0.9-0.4,0.8-0.9
			C132.3,34.3,131.9,34,131.4,34z"/>
		<path class="st4" d="M72,53.8c0-0.7,0.5-1.2,1.3-1.2c0.7,0,1.2,0.6,1.2,1.2c0,0.7-0.6,1.3-1.3,1.3C72.5,55.1,72,54.5,72,53.8z
			 M73.2,54.6c0.5,0,0.8-0.3,0.8-0.8c0-0.4-0.3-0.8-0.8-0.9c-0.5,0-0.9,0.3-0.9,0.8C72.4,54.3,72.7,54.6,73.2,54.6z"/>
		<path class="st4" d="M176.1,55.9c0.7,0,1.3,0.6,1.3,1.3c0,0.7-0.6,1.3-1.3,1.3c-0.7,0-1.2-0.6-1.2-1.3
			C174.9,56.5,175.4,55.9,176.1,55.9z M177,57.2c0-0.5-0.3-0.8-0.8-0.8c-0.5,0-0.9,0.3-0.9,0.8c0,0.5,0.3,0.8,0.8,0.9
			C176.6,58,177,57.7,177,57.2z"/>
		<path class="st4" d="M176.4,60.3c0,0.7-0.6,1.3-1.3,1.3c-0.7,0-1.3-0.6-1.3-1.3c0-0.7,0.6-1.2,1.3-1.2
			C175.8,59,176.4,59.6,176.4,60.3z M176,60.2c0-0.5-0.3-0.8-0.9-0.8c-0.5,0-0.8,0.3-0.8,0.8c0,0.5,0.4,0.8,0.9,0.8
			C175.7,61.1,176,60.7,176,60.2z"/>
		<path class="st4" d="M74.4,47.5c0-0.7,0.6-1.3,1.3-1.2c0.7,0,1.2,0.6,1.2,1.2c0,0.7-0.6,1.3-1.3,1.3
			C74.9,48.8,74.4,48.2,74.4,47.5z M75.6,48.4c0.5,0,0.8-0.4,0.8-0.8c0-0.5-0.4-0.9-0.9-0.8c-0.5,0-0.9,0.4-0.8,0.9
			C74.8,48,75.2,48.4,75.6,48.4z"/>
		<path class="st4" d="M171.7,43.8c0.7,0,1.3,0.6,1.3,1.3c0,0.7-0.6,1.3-1.3,1.2c-0.7,0-1.2-0.6-1.2-1.2
			C170.4,44.4,171,43.8,171.7,43.8z M171.7,45.9c0.5,0,0.8-0.4,0.8-0.9c0-0.5-0.4-0.8-0.8-0.8c-0.5,0-0.8,0.4-0.8,0.8
			C170.9,45.6,171.2,45.9,171.7,45.9z"/>
		<path class="st4" d="M94.4,39.4c0,0.7-0.6,1.2-1.3,1.2c-0.7,0-1.2-0.6-1.2-1.2c0-0.7,0.6-1.3,1.3-1.3
			C93.9,38.1,94.4,38.7,94.4,39.4z M94,39.4c0-0.4-0.4-0.9-0.9-0.9c-0.4,0-0.8,0.4-0.8,0.8c0,0.4,0.4,0.8,0.8,0.9
			C93.6,40.2,94,39.8,94,39.4z"/>
		<path class="st4" d="M97.6,39.5c0,0.7-0.6,1.2-1.3,1.2c-0.7,0-1.2-0.6-1.2-1.2c0-0.7,0.6-1.3,1.3-1.3
			C97.1,38.2,97.7,38.8,97.6,39.5z M97.2,39.4c0-0.4-0.4-0.8-0.9-0.8c-0.4,0-0.9,0.4-0.9,0.9c0,0.4,0.4,0.8,0.9,0.8
			C96.8,40.3,97.3,39.9,97.2,39.4z"/>
		<path class="st4" d="M74.5,63c0-0.7,0.5-1.3,1.3-1.3c0.7,0,1.3,0.6,1.3,1.3c0,0.7-0.6,1.2-1.3,1.2C75,64.2,74.5,63.7,74.5,63z
			 M75.7,62.1c-0.5,0-0.8,0.4-0.8,0.8c0,0.5,0.4,0.9,0.9,0.9c0.4,0,0.8-0.4,0.8-0.8C76.6,62.5,76.2,62.1,75.7,62.1z"/>
		<path class="st4" d="M175,53.8c0-0.7,0.6-1.2,1.3-1.2c0.7,0,1.2,0.6,1.2,1.2c0,0.7-0.6,1.3-1.3,1.3C175.6,55.1,175,54.5,175,53.8z
			 M175.4,53.8c0,0.4,0.4,0.8,0.8,0.8c0.5,0,0.9-0.4,0.9-0.9c0-0.4-0.5-0.8-0.9-0.8C175.7,53,175.4,53.4,175.4,53.8z"/>
		<path class="st4" d="M118,33.6c0.7,0,1.3,0.6,1.3,1.3c0,0.7-0.6,1.3-1.3,1.3c-0.7,0-1.2-0.6-1.2-1.3
			C116.7,34.1,117.3,33.6,118,33.6z M118,35.7c0.4,0,0.8-0.4,0.8-0.8c0-0.4-0.5-0.9-0.9-0.8c-0.5,0-0.9,0.4-0.8,0.9
			C117.2,35.3,117.6,35.7,118,35.7z"/>
		<path class="st4" d="M134.8,33c0.7,0,1.3,0.6,1.3,1.3c0,0.7-0.6,1.3-1.3,1.2c-0.7,0-1.2-0.6-1.2-1.2C133.6,33.5,134.1,33,134.8,33
			z M134.8,35.1c0.5,0,0.8-0.3,0.8-0.8c0-0.5-0.3-0.8-0.8-0.9c-0.5,0-0.8,0.4-0.8,0.9C134,34.7,134.4,35.1,134.8,35.1z"/>
		<path class="st4" d="M153.1,40.7c-0.7,0-1.3-0.6-1.3-1.3c0-0.7,0.6-1.3,1.3-1.2c0.7,0,1.2,0.6,1.2,1.2
			C154.4,40.1,153.8,40.7,153.1,40.7z M153.1,40.3c0.5,0,0.8-0.3,0.8-0.8c0-0.5-0.3-0.9-0.8-0.9c-0.5,0-0.8,0.3-0.8,0.8
			C152.2,40,152.6,40.3,153.1,40.3z"/>
		<path class="st4" d="M141.4,36c-0.8,0-1.3-0.5-1.3-1.2c0-0.7,0.6-1.3,1.3-1.3c0.7,0,1.3,0.6,1.3,1.3C142.6,35.4,142.1,36,141.4,36
			z M142.2,34.8c0-0.4-0.4-0.8-0.8-0.9c-0.4,0-0.9,0.4-0.9,0.8c0,0.5,0.4,0.9,0.9,0.8C141.8,35.6,142.2,35.2,142.2,34.8z"/>
		<path class="st4" d="M108.1,36c-0.7,0-1.3-0.5-1.3-1.2c0-0.7,0.6-1.3,1.3-1.3c0.7,0,1.2,0.6,1.3,1.2C109.4,35.4,108.8,36,108.1,36
			z M108.1,35.6c0.4,0,0.9-0.4,0.8-0.9c0-0.4-0.4-0.8-0.9-0.8c-0.4,0-0.8,0.4-0.8,0.8C107.3,35.2,107.6,35.6,108.1,35.6z"/>
		<path class="st4" d="M80.3,41.8c0.7,0,1.2,0.5,1.2,1.2c0,0.7-0.5,1.3-1.2,1.3c-0.7,0-1.3-0.6-1.3-1.3C79,42.4,79.6,41.8,80.3,41.8
			z M81.1,43.1c0-0.5-0.3-0.8-0.8-0.9c-0.5,0-0.9,0.3-0.9,0.8c0,0.4,0.4,0.8,0.8,0.9C80.7,43.9,81.1,43.5,81.1,43.1z"/>
		<path class="st4" d="M84.5,41.4c0,0.7-0.6,1.2-1.3,1.2c-0.7,0-1.2-0.6-1.2-1.2c0-0.7,0.6-1.3,1.3-1.3C84,40.1,84.5,40.7,84.5,41.4
			z M84.1,41.4c0-0.5-0.5-0.9-0.9-0.8c-0.4,0-0.8,0.5-0.8,0.9c0,0.4,0.4,0.8,0.8,0.8C83.7,42.2,84.1,41.8,84.1,41.4z"/>
		<path class="st4" d="M145.8,35.8c0,0.7-0.6,1.2-1.3,1.2c-0.7,0-1.2-0.5-1.2-1.2c0-0.7,0.6-1.3,1.3-1.3
			C145.2,34.5,145.8,35.1,145.8,35.8z M145.4,35.7c0-0.5-0.4-0.9-0.9-0.8c-0.4,0-0.8,0.4-0.8,0.9c0,0.5,0.4,0.9,0.9,0.8
			C145,36.6,145.4,36.2,145.4,35.7z"/>
		<path class="st4" d="M156.3,40.6c-0.7,0-1.3-0.5-1.3-1.2c0-0.7,0.6-1.3,1.3-1.3c0.7,0,1.2,0.5,1.2,1.2
			C157.6,40,157.1,40.6,156.3,40.6z M156.3,38.5c-0.5,0-0.8,0.3-0.8,0.8c0,0.5,0.4,0.9,0.8,0.9c0.5,0,0.8-0.3,0.8-0.8
			C157.2,38.9,156.8,38.5,156.3,38.5z"/>
		<path class="st4" d="M149.8,40.7c-0.7,0-1.2-0.6-1.2-1.3c0-0.7,0.6-1.2,1.3-1.2c0.7,0,1.2,0.6,1.2,1.3
			C151.1,40.2,150.5,40.7,149.8,40.7z M149.9,38.6c-0.5,0-0.8,0.3-0.9,0.8c0,0.5,0.3,0.9,0.8,0.9c0.5,0,0.8-0.3,0.9-0.8
			C150.7,39,150.3,38.6,149.9,38.6z"/>
		<ellipse class="st4" cx="201.8" cy="142.5" rx="0.1" ry="13.1"/>
		<ellipse class="st4" cx="200.1" cy="141.8" rx="0.1" ry="12.9"/>
		<path class="st4" d="M203.1,80.1c-0.3,0.2-0.5,0.5-0.7,0.4c-0.2,0-0.3-0.3-0.5-0.5c0.2-0.1,0.3-0.4,0.5-0.4
			C202.6,79.6,202.8,79.9,203.1,80.1z"/>
		<path class="st4" d="M191.3,80c-0.3,0.2-0.5,0.5-0.6,0.5c-0.2,0-0.4-0.3-0.5-0.5c0.2-0.2,0.3-0.4,0.5-0.4
			C190.8,79.6,191,79.8,191.3,80z"/>
		<path class="st4" d="M186.6,81.6c-0.3,0.2-0.5,0.5-0.6,0.5c-0.2,0-0.3-0.2-0.5-0.4c0.2-0.2,0.3-0.5,0.5-0.5
			C186,81.1,186.2,81.4,186.6,81.6z"/>
		<path class="st4" d="M207.1,81c0.2,0.3,0.5,0.5,0.4,0.7c0,0.2-0.3,0.5-0.4,0.4c-0.2,0-0.4-0.3-0.5-0.5
			C206.6,81.5,206.9,81.3,207.1,81z"/>
		<path class="st4" d="M198.5,78c0.2,0.3,0.5,0.5,0.5,0.7c0,0.2-0.3,0.3-0.4,0.5c-0.2-0.1-0.4-0.3-0.5-0.5
			C198.1,78.6,198.3,78.4,198.5,78z"/>
		<path class="st4" d="M188.2,79.1c0.2,0.3,0.4,0.5,0.4,0.7c0,0.2-0.3,0.4-0.5,0.4c-0.2,0-0.4-0.3-0.4-0.5
			C187.7,79.6,188,79.4,188.2,79.1z"/>
		<path class="st4" d="M190.2,79.8c-0.3,0.3-0.5,0.5-0.7,0.5c-0.2,0-0.3-0.3-0.5-0.4c0.1-0.2,0.3-0.4,0.5-0.5
			C189.7,79.3,189.9,79.6,190.2,79.8z"/>
		<path class="st4" d="M206.1,79.7c0.2,0.3,0.5,0.5,0.5,0.7c0,0.2-0.3,0.4-0.4,0.4c-0.2,0-0.4-0.3-0.5-0.4
			C205.7,80.3,205.9,80.1,206.1,79.7z"/>
		<path class="st4" d="M186.9,79.7c0.2,0.4,0.4,0.6,0.4,0.7c0,0.2-0.3,0.4-0.4,0.4c-0.2,0-0.4-0.3-0.4-0.4
			C186.4,80.2,186.6,80,186.9,79.7z"/>
		<path class="st4" d="M202,79.2c-0.4,0.2-0.6,0.4-0.7,0.3c-0.2,0-0.3-0.3-0.4-0.5c0.2-0.1,0.3-0.4,0.5-0.4
			C201.5,78.7,201.7,78.9,202,79.2z"/>
		<path class="st4" d="M204.2,79.9c-0.4,0.2-0.6,0.4-0.7,0.4c-0.2,0-0.3-0.3-0.4-0.4c0.2-0.1,0.3-0.4,0.5-0.4
			C203.6,79.4,203.8,79.6,204.2,79.9z"/>
		<path class="st4" d="M204.9,80.5c-0.2-0.3-0.5-0.5-0.5-0.7c0-0.2,0.3-0.4,0.4-0.4c0.2,0,0.4,0.2,0.4,0.4
			C205.3,79.9,205.1,80.1,204.9,80.5z"/>
		<path class="st4" d="M194.4,79.4c-0.2-0.3-0.4-0.5-0.4-0.7c0-0.2,0.3-0.4,0.4-0.4c0.2,0,0.4,0.3,0.4,0.4
			C194.9,78.9,194.7,79.1,194.4,79.4z"/>
		<path class="st4" d="M199.8,79.2c-0.1-0.2-0.4-0.4-0.3-0.5c0-0.2,0.3-0.4,0.5-0.4c0.1,0,0.4,0.2,0.4,0.4c0,0.2-0.2,0.4-0.3,0.5
			C200,79.2,199.9,79.2,199.8,79.2z"/>
		<path class="st4" d="M193,79.2c-0.1-0.2-0.4-0.4-0.3-0.5c0-0.2,0.3-0.4,0.4-0.4c0.1,0,0.4,0.2,0.4,0.4c0,0.2-0.2,0.4-0.3,0.5
			C193.1,79.2,193.1,79.2,193,79.2z"/>
		<path class="st4" d="M191.7,79.8c-0.2-0.3-0.4-0.5-0.4-0.7c0-0.2,0.3-0.4,0.5-0.4c0.1,0,0.4,0.3,0.4,0.4
			C192.1,79.3,191.9,79.5,191.7,79.8z"/>
		<path class="st4" d="M124.3,209c0.2-0.8,0.4-1.6,0.6-2.4c-1.5,0.4-2.8,0.5-4.3,0.4c-1.5-0.1-2.9-0.7-4.1-1.6
			c-0.9-0.7-1.8-1.5-2.7-2.2c4.1-0.9,7.7,0.2,10.9,3c0-0.1,0.1-0.1,0.1-0.2c0-0.6,0-1.3-0.1-1.9c0-0.1-0.3-0.2-0.5-0.3
			c-1.4-0.3-2.6-0.9-3.5-2c-1.5-1.9-0.7-5.9,2.1-6.5c-0.3-0.4-0.6-0.7-0.8-1c0-0.1,0-0.1,0.1-0.2c0.7,0.1,1.4,0.2,2.2,0.2
			c0.3-0.3,0.7-0.7,1.2-1.1c0.4,0.4,0.7,0.8,1,1.1c0.5-0.2,1.1-0.4,1.6-0.6c0,0.1,0.1,0.1,0.1,0.2c-0.1,0.4-0.4,0.9-0.3,1.3
			c0.1,0.3,0.7,0.4,1,0.7c1.4,1,2,2.3,1.8,4c-0.2,1.9-1.3,3-3,3.6c-0.6,0.2-1.2,0.3-1.8,0.5c0.1,0.7,0.2,1.5,0.3,2.4
			c3.2-3.5,7-3.6,11.1-2.3c0,0.1,0,0.1,0,0.1c-1.4,0.7-2.6,2-4.2,2.3c-0.8,0.1-1.6,0.2-2.3,0.2c-1.5,0-3.1-0.1-4.6-0.2
			c0,0.1,0,0.1,0,0.2c0,0-0.1,0.1-0.1,0.1C126,208.4,126,208.4,124.3,209z M123.4,195.6c-0.7,0.3-1.3,0.6-1.8,1
			c-1.7,1.6-1.5,4.6,0.4,6c2,1.4,4.1,1.5,6.2,0.4c2.2-1.1,2.8-3.8,1.4-5.7c-0.6-0.8-1.4-1.2-2.3-1.5c0.1-0.4,0.1-0.8,0.3-1.3
			c-0.5,0.3-0.9,0.6-1.3,0.8c-0.2-0.4-0.4-0.8-0.8-1.4c-0.5,0.6-0.8,1-1.1,1.4c-0.5-0.2-0.9-0.4-1.4-0.6c0,0.1,0,0.1-0.1,0.2
			C123.1,195,123.3,195.3,123.4,195.6z"/>
		<path class="st4" d="M156.2,112.6c-0.5-0.6-1-1.2-1.5-1.8c0,1.5,0,2.8,0,4.3c-0.4-0.5-0.8-0.9-1.2-1.3c-0.1,0-0.1,0.1-0.2,0.1
			c0.4,1.1,0.6,2.3,1.1,3.4c0.6,1.4,1.4,2.7,2.5,3.8c1.1,1.2,2.5,1.4,4,0.9c1.2-0.5,1.5-1.5,1.6-2.7c0.1-1.5-0.4-2.9-0.8-4.4
			c-0.3-1.3-0.6-2.6-0.8-3.9c-0.1-0.7,0.1-1.4,0.1-2c0.1-1,0.2-2,0.2-3c0-1.5,0.3-3,0.9-4.4c0.5-1,0.9-2.1,0.8-3.2
			c0,0,0-0.1,0.2-0.3c0.4,0.8,0.7,1.5,0.9,2.1c1-0.8,2.1-1.7,3.2-2.5c0.1,1.7-0.6,3.1-2,4.4c0.7,0,1.2-0.1,1.9-0.1
			c-0.4,0.5-0.8,1-1.2,1.5c-0.4,0.6-0.7,1.2-0.9,1.8c-0.3,0.7-0.6,1.5-1.4,1.9c-1,0.6-1.3,1.5-1.3,2.5c-0.1,2,0.6,3.7,1.3,5.5
			c0.5,1.4,1.1,2.8,1,4.3c-0.1,2.2-0.9,4.3-3.9,4.8c-1.4,0.2-2,1.1-2.2,2.4c-0.2,1.2-0.2,2.4,1,3.2c0.1,0.1,0.2,0.2,0.3,0.2
			c0.9,0,1.1,0.8,1.5,1.3c0.3,0.4,0.2,0.8-0.1,1.2c-0.8,1-1.2,2.1-1.6,3.3c-0.2,0.8-0.3,1.6,0.2,2.3c0.3,0.4,0.4,0.8-0.2,1.2
			c-0.7,0.5-0.4,1.1-0.1,1.7c-0.7,0.1-1.5-0.5-1.6-1.2c0-0.2-0.2-0.3-0.3-0.5c-0.1-0.2-0.2-0.4-0.2-0.6c-0.1-0.2-0.1-0.5-0.1-0.7
			c-0.1,0-0.2,0-0.2,0.1c-0.1,0.8-0.4,1.3-1.3,1.5c-0.3,0-0.4,0.7-0.6,1c-0.6-0.5-0.8-1.3-0.5-2c0.3-0.8,0.5-1.5,1.5-1.7
			c0-0.1-0.1-0.1-0.1-0.2c-0.2,0-0.4,0-0.6,0c-0.2,0-0.5,0.1-0.6,0c-0.8-0.6-1.5-0.6-2.3,0.1c0-1.1,0.6-1.7,1.5-1.8
			c0.2,0,0.3-0.1,0.4-0.2c0.3-0.4,0.6-0.4,1-0.3c0.6,0.3,1.2,0.1,1.5-0.4c0.3-0.4,0.2-1.1-0.2-1.5c-0.3-0.3-0.6-0.5-1-0.8
			c0,0.5-0.1,1-0.1,1.6c-0.5-0.6-0.9-1.1-1.4-1.7c0.1,0.6,0.2,1.1,0.3,1.6c-0.9-0.7-1.9-1.4-2.3-2.6c-0.4-1.1-0.6-2.3,0.1-3.4
			c-0.8-0.1-1.4-0.2-2.1-0.1c-0.2,0-0.6,0.3-0.6,0.5c0,0.7,0.1,1.5,0.2,2.2c0.1,0.7,0.3,1.3,0.5,2c0.2,0.7-0.2,1.2-0.6,1.5
			c-0.3,0.2-0.8,0.1-1.2,0.1c-0.4,0-0.8-0.2-1.3-0.2c-0.6-0.1-1.2-0.2-1.8-0.3c-0.6-0.1-0.9,0.1-1,0.7c0,0.2-0.2,0.5-0.3,0.6
			c-0.8,0.5-0.9,0.7-0.7,1.6c-0.9-0.1-1.2-0.7-1.2-1.6c0-0.7,0.1-1.2,0.5-1.8c0-0.1-0.1-0.1-0.1-0.2c-0.2,0.1-0.5,0.1-0.6,0.3
			c-0.4,0.3-0.6,0.4-1,0c-0.7-0.6-1.2-0.5-2.1,0.2c-0.2-1,0.3-1.7,1.2-1.9c0.1,0,0.3-0.2,0.4-0.2c0.1-0.1,0.2-0.2,0.4-0.1
			c0.3,0,0.5,0.1,0.8,0.1c0.2,0,0.4,0,0.6-0.1c-0.1-0.2-0.1-0.5-0.2-0.6c-0.3-0.2-0.5-0.5-0.5-0.9c-0.1-0.7-0.7-0.9-1.4-0.8
			c0.9-1,1.4-1,2.5-0.5c0.1,0,0.2,0.1,0.3,0c0.4-0.1,0.6,0.1,0.7,0.5c0.2,1.5,1.7,2.3,3.1,1.5c0.1-0.1,0.2-0.3,0.2-0.5
			c0-0.5,0-1-0.1-1.6c-0.3,0.5-0.5,0.9-0.7,1.3c0,0-0.1,0-0.1,0c0-0.8,0-1.6,0-2.4c-0.1,0-0.1,0-0.2,0c-0.1,0.5-0.2,1-0.3,1.6
			c-0.5-0.3-0.6-0.8-0.6-1.4c0-0.5,0.1-1,0-1.4c-0.1-1,0.4-1.7,1-2.2c0.3-0.3,0.8-0.5,1.3-0.5c1.1-0.1,2.3-0.1,3.4-0.1
			c0.2,0,0.4-0.1,0.7-0.2c-1-0.6-1.9-1-2.8-1.6c-1.4-0.9-2.4-2-2.9-3.5c-0.2-0.5-0.5-0.6-0.8-0.3c-0.6,0.5-1.1,1-1.7,1.5
			c-0.2,0.2-0.3,0.4-0.5,0.7c0-0.6,0-1,0-1.4c-0.7,0.7-1.5,1.4-2.3,2.1c-0.1,0-0.1-0.1-0.2-0.1c0-0.5,0.1-0.9,0.1-1.3
			c-0.7,0.2-1.4,0.3-2.1,0.5c-0.5,0.1-0.8,0.3-0.6,0.9c0.2,0.6,0,1-0.4,1.4c-0.5,0.4-0.4,0.5-0.2,1.6c-0.8,0-1.3-0.5-1.5-1.3
			c-0.1-0.7-0.6-1.4,0.2-2c-0.2,0-0.3,0.1-0.5,0.1c-0.5,0.2-0.9,0.2-1.4,0c-0.4-0.1-1,0-1.5,0c-0.1-0.6,0.3-1.3,1-1.5
			c0.7-0.2,1.4-0.4,2.2-0.7c-0.2-0.1-0.4-0.3-0.7-0.4c-0.4-0.1-0.7-0.3-0.8-0.8c0-0.2-0.5-0.4-0.8-0.5c-0.2-0.1-0.5,0-0.7,0.1
			c0.5-1,1.1-1.2,2.2-1.1c0.7,0.1,1.2,0.3,1.5,1c0.1,0.1,0.4,0.2,0.6,0.2c0.7-0.2,1.4-0.3,2-0.6c0.9-0.5,1.6-1.1,2.4-1.7
			c-1.1-1.4-2.4-2.5-4.2-2.7c-0.4,0-0.7-0.2-1.2-0.4c0.4-0.3,0.8-0.5,1.3-0.8c-1-0.3-1.8-0.5-2.7-0.8c0.5-0.2,1-0.5,1.5-0.7
			c-0.3-0.5-0.7-1.1-1.1-1.7c-0.1-0.2-0.5-0.3-0.6-0.3c-0.6,0.3-1.1,0.3-1.7,0.1c-0.7-0.2-1.2,0-1.7,0.5c-0.1,0-0.1-0.1-0.2-0.1
			c0.1-0.5,0.2-1,0.4-1.4c0.3-0.4,0.7-0.6,1.2-0.9c0.4-0.2,0.9-0.3,1.5-0.4c-0.3-0.2-0.6-0.4-0.9-0.7c-0.2-0.2-0.5-0.5-0.6-0.8
			c-0.2-0.8-0.9-0.8-1.6-0.8c0.5-0.9,1.6-1.2,2.5-0.7c0.1,0.1,0.3,0.1,0.5,0.1c0.2,0.1,0.4,0.2,0.6,0.3c0.3,0.3,0.5,0.6,0.7,0.8
			c0.1,0,0.1,0,0.2,0c0-0.3,0-0.7,0-1c0-0.4,0-0.8,0.5-1c0.4-0.2,0.6-0.7,0.5-1.2c0-0.2-0.1-0.4-0.1-0.7c0.4,0.3,0.7,0.4,0.9,0.6
			c0.6,0.6,0.8,2.3,0.3,3c-0.8,1.2-0.5,2.5,0.7,3.3c1.1,0.7,2.2,1.4,3.3,2c0.5,0.3,1.1,0.5,1.8,0.4c0.7-0.2,1.4,0,2.1-0.1
			c0.5,0,1-0.2,1.4-0.4c0.7-0.4,0.7-0.7,0.1-1.2c-0.2-0.2-0.5-0.4-0.7-0.5c-0.4-0.3-0.3-0.6,0.1-0.9c0.2-0.1,0.4-0.3,0.6-0.5
			c0.1,0.1,0.2,0.2,0.4,0.4c0.1-0.1,0.3-0.3,0.4-0.4c0.6,0.5,1,0.5,1.4-0.3c-1.1,0-2.2-0.1-3.2-0.1c-1.4,0.1-2.3-0.5-3.2-1.4
			c-0.6-0.6-1.2-1.2-1.8-1.7c1.2-0.7,2.3-0.7,3.4,0.3c1.1,1,2.2,1.8,3.8,1.8c0.4,0,0.7,0,1.3,0c-0.2-0.4-0.3-0.7-0.5-0.8
			c-0.2-0.1-0.5,0.1-0.9,0.2c0-0.1-0.1-0.3-0.2-0.5c-0.3,0.1-0.6,0.2-0.8,0.3c-0.3-0.6-0.6-1.2-0.8-1.7c-0.4-0.9,0-1.1,0.7-1.2
			c0.5-0.1,1.1-0.1,1.7-0.1c0.5,0,0.8-0.2,1.1-0.6c0.2-0.3,0.7-0.6,1.1-0.7c0.4-0.1,0.6-0.3,0.7-0.7c0.2-1.2,0-2.2-0.5-3.3
			c0.6-0.3,1,0,1,0.9c0.2,0,0.3,0,0.5,0c0,0.2,0.1,0.4,0.1,0.5c-0.1,0.2-0.3,0.4-0.6,0.6c0.2,0.6,0.9,0.9,1.3,0.5
			c-0.2-0.2-0.4-0.4-0.4-0.6c0-0.1,0.2-0.4,0.3-0.4c0.1-0.1,0.3,0,0.5,0.1c0.2-0.1,0.3-0.4,0.5-0.4c0.1,0,0.4,0.2,0.5,0.3
			c0.1,0.1-0.1,0.4-0.1,0.5c0.1,0.1,0.3,0.3,0.3,0.5c0,0.2-0.2,0.4-0.3,0.4c-0.2,0-0.4-0.1-0.6-0.2c-0.2,0.4-0.2,0.7,0.3,0.8
			c0.1,0,0.2,0.1,0.2,0.1c0.3,0.7,0.7,0.3,1.1,0c-0.2-0.1-0.4-0.2-0.7-0.3c0.2-0.3,0.3-0.5,0.5-0.6c0.1-0.1,0.4,0.1,0.6,0.2
			c0-0.1,0.1-0.2,0.3-0.5c0.2,0.2,0.5,0.3,0.6,0.5c0.1,0.1-0.1,0.4-0.1,0.6c0,0.1,0.2,0.4,0.2,0.5c-0.1,0.2-0.3,0.4-0.5,0.6
			c-0.2-0.2-0.3-0.3-0.4-0.5c-0.1,0.1-0.2,0.2-0.2,0.3c0,0.2,0.1,0.5,0.2,0.7c0.1,0.2,0.3,0.3,0.4,0.4c0.3,0.4,0.6,0.3,0.9,0
			c-0.4-0.2-0.6-0.5-0.2-0.8c0.2-0.1,0.5,0,0.7,0.1c0.2-0.1,0.4-0.3,0.6-0.3c0.1,0,0.4,0.2,0.4,0.4c0,0.2-0.2,0.4-0.3,0.6
			c0,0.1,0.2,0.3,0.1,0.5c0,0.2-0.3,0.4-0.4,0.4c-0.2,0-0.4-0.2-0.6-0.3c-0.3,0.4,0.1,1.1,0.8,1.2c0.2-0.7,0.3-0.7,0.9-0.7
			c0,0.2,0.1,0.3,0.1,0.4c0.4,0.1,0.7,0.1,1,0.2c0.2,0.1,0.2,0.4,0.3,0.7c-1.3-0.3-2.4-0.3-3.6,0.2c-0.4,0.2-0.5,0.4-0.5,0.8
			c0,0.6-0.1,1.1,0,1.7c0.1,0.8,0.3,1.5,0.4,2.2c0,0.1,0,0.2,0.1,0.5c-0.4-0.3-0.8-0.6-1.2-0.9c-0.1,0.9,0.1,1.7,0.7,2.3
			c0.7,0.7,1,1.6,0.8,2.6c-0.5-0.4-1-0.8-1.4-1.2c0,0-0.1,0.1-0.1,0.1C156.7,110.7,156.5,111.7,156.2,112.6z M150.7,99.3
			c0.2,1.1,1.2,0.8,1.9,1.3C152.1,99.5,151.5,99.1,150.7,99.3z"/>
		<path class="st4" d="M114,146.5c0.1-4.5,1.4-8.4,4.7-11.4c3.8-3.4,9.3-3.4,13,0.1c2.7,2.5,4.1,5.7,4.5,9.3
			c0.4,3.9-0.3,7.5-2.6,10.8c-1.7,2.5-4,4.3-7.1,4.7c-3.1,0.5-5.8-0.5-8-2.6c-2.6-2.4-3.9-5.4-4.4-8.8
			C114,147.9,114,147.1,114,146.5z M135.9,146.1c0-0.5-0.1-1.2-0.2-2c-0.5-3.5-1.8-6.5-4.5-8.9c-2.2-2-4.9-2.8-7.8-2.2
			c-2.7,0.5-4.8,2.1-6.4,4.4c-3.9,5.5-3.6,13.5,0.7,18.6c3.9,4.6,9.9,4.8,14,0.7C134.7,153.9,135.8,150.3,135.9,146.1z"/>
		<path class="st4" d="M124.8,78.8c-1,0-2,0-3,0c-0.8,0-1.4-0.5-1.4-1.2c0-0.8,0.5-1.3,1.4-1.3c2,0,4.1,0,6.1,0
			c0.9,0,1.4,0.5,1.4,1.3c0,0.7-0.5,1.2-1.4,1.2C126.9,78.9,125.9,78.8,124.8,78.8z M125,76.7L125,76.7c-1,0-2.1,0-3.1,0
			c-0.6,0-1,0.4-1,0.9c0,0.5,0.4,0.8,1,0.8c2,0,4,0,6.1,0c0.6,0,1-0.3,1-0.9c0-0.5-0.3-0.8-1-0.9C126.9,76.7,125.9,76.7,125,76.7z"
			/>
		<path class="st4" d="M106.8,80.1c-0.8,0-1.3-0.5-1.4-1.1c-0.1-0.7,0.3-1.3,1-1.4c1.6-0.2,3.2-0.4,4.8-0.6c0.6-0.1,1.2,0.4,1.3,1
			c0.1,0.7-0.3,1.3-0.9,1.4C109.9,79.7,108.3,79.9,106.8,80.1z M107,79.6c1.4-0.2,2.8-0.4,4.3-0.5c0.5-0.1,0.8-0.4,0.8-0.9
			c-0.1-0.5-0.3-0.8-0.9-0.8c-1.6,0.2-3.2,0.4-4.7,0.6c-0.5,0.1-0.7,0.5-0.7,1C105.9,79.5,106.3,79.7,107,79.6z"/>
		<path class="st4" d="M143.1,80.1c-1.7-0.2-3.3-0.4-4.9-0.6c-0.7-0.1-1.1-0.8-1-1.4c0.1-0.6,0.7-1.2,1.4-1.1
			c1.5,0.2,3.1,0.4,4.6,0.6c0.7,0.1,1.1,0.7,1.1,1.3C144.3,79.5,143.7,80.1,143.1,80.1z M138.5,77.4c-0.4,0.1-0.8,0.3-0.8,0.8
			c0,0.5,0.2,0.8,0.7,0.9c1.6,0.2,3.2,0.4,4.7,0.6c0.5,0,0.8-0.2,0.9-0.7c0.1-0.5-0.2-0.9-0.6-0.9C141.7,77.8,140.1,77.6,138.5,77.4
			z"/>
		<path class="st4" d="M117.9,77.8c0,0.7-0.5,1.2-1.2,1.3c-0.7,0-1.3-0.6-1.3-1.3c0-0.7,0.5-1.2,1.2-1.2
			C117.4,76.6,117.9,77.1,117.9,77.8z M116.7,78.7c0.5,0,0.8-0.3,0.8-0.8c0-0.5-0.3-0.9-0.8-0.9c-0.5,0-0.9,0.3-0.9,0.8
			C115.8,78.3,116.2,78.7,116.7,78.7z"/>
		<path class="st4" d="M148.9,78.5c0.7,0,1.3,0.6,1.3,1.3c0,0.7-0.6,1.2-1.3,1.2c-0.7,0-1.2-0.5-1.2-1.2
			C147.6,79.1,148.1,78.6,148.9,78.5z M148.8,79c-0.5,0-0.8,0.3-0.8,0.8c0,0.5,0.4,0.8,0.9,0.8c0.5,0,0.8-0.3,0.8-0.8
			C149.7,79.3,149.4,79,148.8,79z"/>
		<path class="st4" d="M100.9,81c-0.7,0-1.2-0.5-1.2-1.3c0-0.7,0.5-1.2,1.2-1.2c0.7,0,1.3,0.6,1.3,1.3C102.1,80.5,101.5,81,100.9,81
			z M101.7,79.8c0-0.5-0.3-0.8-0.8-0.8c-0.5,0-0.8,0.3-0.8,0.8c0,0.5,0.3,0.8,0.9,0.8C101.4,80.6,101.7,80.3,101.7,79.8z"/>
		<path class="st4" d="M133,79.1c-0.7,0-1.3-0.6-1.3-1.3c0-0.7,0.6-1.2,1.3-1.2c0.7,0,1.2,0.5,1.3,1.2
			C134.3,78.5,133.7,79.1,133,79.1z M133.9,77.8c0-0.5-0.4-0.9-0.9-0.8c-0.4,0-0.8,0.4-0.8,0.9c0,0.4,0.4,0.8,0.8,0.8
			C133.4,78.7,133.9,78.3,133.9,77.8z"/>
		<path class="st4" d="M153.6,86.5c-0.8-0.5-1.6-0.3-2.5-0.1c-4.5,1.1-9,1.8-13.6,2.3c-5.5,0.6-10.9,0.7-16.4,0.6
			c-5.1-0.1-10.3-0.6-15.3-1.5c-2.6-0.5-5.2-1.1-7.9-1.6c-0.4-0.1-0.8,0-1.1,0c-0.2,0-0.4,0.1-0.6,0.1c0-0.1-0.1-0.1-0.1-0.2
			c0.2-0.1,0.3-0.2,0.5-0.3c2.9-0.7,5.8-1.5,8.7-1.9c3.4-0.6,6.9-0.9,10.3-1.2c4.8-0.4,9.7-0.5,14.5-0.2c3,0.2,6.1,0.4,9.1,0.7
			c4.8,0.5,9.5,1.3,14.2,2.7c0.2,0.1,0.3,0.2,0.5,0.3C153.7,86.3,153.6,86.4,153.6,86.5z M151.4,85.9c-8.7-2.3-17.6-3-26.5-3.1
			c-8.7,0-24.2,1.8-26.6,3.1C116.1,90,133.7,90,151.4,85.9z"/>
		<path class="st4" d="M123.1,45.6c0-0.9,0.8-1.7,1.7-1.6c0.9,0,1.6,0.7,1.6,1.7c0,0.9-0.8,1.7-1.7,1.7
			C123.8,47.3,123.1,46.6,123.1,45.6z M124.8,44.4c-0.7,0-1.2,0.6-1.2,1.3c0,0.7,0.6,1.3,1.3,1.3c0.6,0,1.2-0.6,1.2-1.2
			C126,45,125.4,44.4,124.8,44.4z"/>
		<path class="st4" d="M126,42.2c0,0.6-0.6,1.2-1.3,1.2c-0.7,0-1.3-0.6-1.2-1.3c0-0.7,0.6-1.2,1.3-1.2C125.5,41,126,41.6,126,42.2z
			 M123.9,42.2c0,0.4,0.4,0.9,0.9,0.9c0.4,0,0.8-0.4,0.8-0.9c0-0.4-0.4-0.9-0.9-0.8C124.3,41.4,123.9,41.8,123.9,42.2z"/>
		<path class="st4" d="M125.8,39.2c0,0.6-0.5,1-1,1.1c-0.6,0-1.1-0.5-1-1.1c0-0.6,0.5-1,1-1C125.3,38.1,125.8,38.6,125.8,39.2z
			 M124,39c0,0.1,0,0.2,0,0.3c0.2,0.2,0.5,0.5,0.7,0.4c0.2,0,0.6-0.4,0.6-0.6c0-0.2-0.4-0.6-0.6-0.6C124.5,38.5,124.3,38.9,124,39z"
			/>
		<path class="st4" d="M200.2,127.7c0.2-0.8,0.4-1.6,0.5-2.4c0.6,0.1,1.2,0.1,1.3,0.6c0.1,0.4,0,1-0.3,1.5
			C201.5,127.9,200.8,127.7,200.2,127.7z"/>
		<path class="st4" d="M44.4,129.1c-0.3-0.8-0.6-1.5-0.9-2.3c0.9-0.5,1.5-0.4,1.9,0.3C45.9,128.1,45.6,128.7,44.4,129.1z"/>
		<path class="st4" d="M209,129.6c-0.1,0.8-0.1,1.5-0.2,2.2c-0.6-0.3-1.1-0.6-1.7-1C207.8,130.5,208.4,130.1,209,129.6z"/>
		<path class="st4" d="M53.5,87.4c0.3,0,0.6,0,0.9,0c0.2,0,0.3,0.2,0.4,0.4c-0.1,0.1-0.3,0.3-0.4,0.3c-0.6,0-1.2,0-1.8,0
			c-0.1,0-0.3-0.2-0.4-0.4c0.1-0.1,0.3-0.3,0.4-0.3C52.9,87.4,53.2,87.4,53.5,87.4z"/>
		<path class="st4" d="M58.7,88.6c-0.5-0.1-0.9-0.1-1.3-0.3c-0.1,0-0.2-0.3-0.3-0.4c0.2-0.1,0.3-0.2,0.5-0.2c0.4,0,0.8,0.1,1.2,0.2
			c0.2,0,0.3,0.2,0.4,0.4C59,88.4,58.8,88.5,58.7,88.6z"/>
		<path class="st4" d="M49.4,87.6c0.1,0.1,0.3,0.2,0.3,0.3c0,0.1-0.2,0.3-0.3,0.4c-0.4,0.1-0.8,0.2-1.2,0.2c-0.1,0-0.3-0.2-0.4-0.3
			c0.1-0.1,0.2-0.4,0.3-0.4C48.5,87.8,48.9,87.7,49.4,87.6z"/>
		<path class="st4" d="M47.5,90.2c3.9-1,7.9-1,11.9,0C55.4,91.1,51.5,91,47.5,90.2z"/>
		<path class="st4" d="M196.6,87.4c0.3,0,0.6,0,0.9,0c0.1,0,0.3,0.2,0.3,0.3c0,0.1-0.2,0.4-0.3,0.4c-0.6,0-1.3,0-1.9,0
			c-0.1,0-0.2-0.2-0.3-0.4c0.1-0.1,0.2-0.3,0.4-0.3C196,87.4,196.3,87.4,196.6,87.4L196.6,87.4L196.6,87.4z"/>
		<path class="st4" d="M191,88.8c-0.1-0.2-0.2-0.4-0.2-0.6c0-0.2,0.2-0.4,0.4-0.4c0.4-0.1,0.8-0.2,1.2-0.2c0.1,0,0.3,0.2,0.5,0.3
			c-0.1,0.1-0.2,0.3-0.3,0.4c-0.4,0.1-0.9,0.2-1.3,0.2C191.2,88.7,191.1,88.8,191,88.8z"/>
		<path class="st4" d="M200.6,87.6c0.5,0.1,0.9,0.1,1.2,0.2c0.2,0.1,0.3,0.3,0.4,0.4c-0.2,0.1-0.3,0.3-0.5,0.3
			c-0.4,0-0.8-0.1-1.2-0.2c-0.1,0-0.2-0.3-0.4-0.4C200.3,87.8,200.5,87.7,200.6,87.6z"/>
		<path class="st4" d="M202.6,90.2c-4.1,0.9-8.1,0.9-12.1,0C192.6,89.3,199.5,89.1,202.6,90.2z"/>
		<path class="st4" d="M125.4,195.7c2.2,2.2,2.2,5.7,0,7.8C123.2,201.6,123.2,197.6,125.4,195.7z"/>
		<path class="st4" d="M129,141.7c-0.4-2.2-0.1-3.6,1.2-4.8c1.3,1.3,1.7,2.9,1.1,4.7c0.4-0.1,0.7-0.2,1-0.2c1,0,1.7,1,1.4,1.9
			c-0.2,0.5-0.4,0.9-0.6,1.4c-0.4-0.5-0.8-0.8-1.4-0.5c-0.3,0.2-0.5,0.5-0.7,0.8c0,0.1,0.1,0.1,0.1,0.2c0.4,0,0.7,0,1.1,0.1
			c0.3,1,0.2,1.1-0.9,1.3c0.2,0.5,0.5,1,0.8,1.6c-0.9-0.6-1.5-0.5-2,0.4c-0.3-0.3-0.5-0.7-0.8-0.8c-0.3-0.1-0.7,0.1-1.1,0.3
			c0.2-0.5,0.4-1,0.7-1.5c-0.3,0-0.6,0-0.9-0.1c0-0.4,0-0.8,0-1.2c0.4,0,0.7,0,1.1-0.1c0.1-0.5-0.1-0.9-0.5-1c-0.5-0.2-1,0-1.3,0.6
			c-0.2-0.5-0.4-0.9-0.6-1.3c-0.3-0.6-0.2-1.2,0.3-1.7c0.5-0.5,1.1-0.6,1.7-0.3C128.8,141.6,128.9,141.6,129,141.7z"/>
		<path class="st4" d="M120,136.9c1.2,1.4,1.8,2.9,1.1,4.7c0.4-0.1,0.8-0.2,1.1-0.2c0.9,0,1.6,0.9,1.3,1.8c-0.2,0.5-0.4,1-0.7,1.6
			c-0.3-0.5-0.7-0.8-1.3-0.6c-0.4,0.1-0.7,0.5-0.6,1c0.4,0,0.7,0,1.2,0.1c0,0.4,0,0.8,0,1.2c-0.3,0-0.6,0-0.9,0.1
			c0.2,0.5,0.5,1,0.7,1.5c-0.4-0.1-0.8-0.4-1.1-0.3c-0.3,0.1-0.6,0.5-0.9,0.7c-0.2-0.2-0.4-0.6-0.7-0.7c-0.3-0.1-0.7,0.1-1.1,0.2
			c0.3-0.6,0.5-1,0.7-1.5c-0.4,0-0.6,0-1-0.1c0-0.4,0-0.8,0-1.2c0.4,0,0.8,0,1.2-0.1c0.1-0.5-0.1-0.8-0.6-1c-0.5-0.2-1,0-1.3,0.5
			c-0.2-0.5-0.4-0.9-0.6-1.3c-0.3-0.6-0.2-1.2,0.3-1.7c0.5-0.5,1.1-0.5,1.7-0.3c0.1,0,0.2,0,0.4,0.1
			C118.2,139.8,118.7,138.3,120,136.9z"/>
		<path class="st4" d="M125,146.1c1.3,1.4,1.8,2.9,1.2,4.7c0.4-0.1,0.7-0.2,1-0.2c1.1,0,1.8,1,1.4,2c-0.2,0.4-0.4,0.9-0.6,1.3
			c-0.3-0.5-0.7-0.8-1.3-0.5c-0.4,0.2-0.6,0.5-0.6,1c0.4,0,0.8,0,1.2,0c0,0.4,0,0.8,0,1.2c-0.3,0-0.6,0-1,0c0.3,0.6,0.5,1.1,0.7,1.6
			c-0.4-0.1-0.8-0.3-1.1-0.3c-0.3,0.1-0.6,0.4-0.9,0.7c-0.4-0.5-0.9-1.2-1.8-0.5c0.2-0.5,0.4-1,0.7-1.5c-0.3,0-0.6,0-0.9,0
			c0-0.4,0-0.8,0-1.2c0.4,0,0.7,0,1.1-0.1c0-0.5-0.2-0.9-0.6-1c-0.5-0.2-0.9,0.1-1.2,0.6c-0.2-0.5-0.4-0.9-0.6-1.3
			c-0.3-0.6-0.2-1.2,0.3-1.7c0.5-0.5,1-0.5,1.7-0.3c0.1,0,0.2,0.1,0.4,0.1C123.3,149.1,123.8,147.6,125,146.1z"/>
		<path class="st4" d="M215.3,130.9c-0.2-1-0.9-1.7-1.6-2.3c-1.5-1.4-3.3-2.3-5.2-3.1c-5.2-2.2-10.7-3.4-16.3-3.8
			c-5.3-0.3-10.7,0-15.9,1.1c-0.9,0.2-1.8,0.5-2.8,0.7c0-11.3,0-22.5,0-33.7c-10.2,0-20.3,0-30.4,0c0.8-0.2,1.6-0.3,2.4-0.5
			c3-0.7,6-1.4,9-2.1c0.8-0.2,1.2-0.8,1.1-1.6c-0.1-0.4-0.3-0.8-0.5-1.2c-0.4-0.6-0.2-1.6,0.4-1.9c0.6-0.3,1.1-0.5,1.7-0.8
			c-0.4-0.6-0.7-1.1-1.1-1.5c0.5-0.7,1.1-1.1,1.9-1c0.9,0,1.4-0.8,1.1-1.6c-0.1-0.2-0.1-0.3-0.2-0.5c0.5-0.2,1-0.3,1.5-0.4
			c2-0.7,3.5-2.2,4.7-3.9c0.2-0.3,0.4-0.4,0.8-0.4c1.2,0.1,2.4-1,2.4-2.1c0.1-1.5,1.5-3.2,2.9-3.5c0.9-0.2,1.8-0.2,2.8-0.4
			c-0.2-0.7-0.5-1.4-0.7-2.1c1.1-0.1,1.7-0.6,1.6-1.4c-0.1-0.7-0.7-1.2-1.4-1.1c-0.8,0.1-1.2,0.8-1,1.9c-0.4-0.1-0.7-0.3-1.2-0.5
			c0.3-0.3,0.6-0.5,0.9-0.8c0.1-0.1,0.2-0.2,0.3-0.3c0.1-0.3,0.1-0.7,0.3-0.9c2.6-4.1,2.4-8.9-0.4-12.8c-1.6-2.3-3.8-3.9-6.3-5.1
			c-4-1.9-8.3-2.4-12.7-2.1c-0.5,0-0.9,0.2-1.4,0.1c-0.6-0.1-1.1-0.1-1.6,0.3c-0.1,0.1-0.5,0.1-0.6,0c-1-0.7-1.9-1.5-2.9-2.3
			c-4.2-3.2-8.9-3.9-14-2.9c-1.5,0.3-3,1-4.6,1.5c0-0.1-0.1-0.3-0.2-0.6c1-0.3,1.4-0.7,1.4-1.3c0-0.5-0.4-1.1-0.9-1.2
			c-0.7-0.2-1.2,0.1-1.7,1c-0.2-0.1-0.4-0.2-0.5-0.4c0.1-0.1,0.1-0.1,0.1-0.1c1.7-0.8,2.6-2.2,2.6-4.1c0-1.9-1-3.3-2.7-4.1
			c-0.1-0.1-0.3-0.2-0.3-0.3c0-0.9,0-1.7,0-2.7c0.8,0,1.6,0,2.3,0c0-0.9,0-1.8,0-2.7c-0.8,0-1.5,0-2.3,0c0-0.8,0-1.5,0-2.2
			c-0.9,0-1.8,0-2.7,0c0,0.8,0,1.5,0,2.2c-0.8,0-1.5,0-2.3,0c0,0.9,0,1.8,0,2.7c0.8,0,1.5,0,2.3,0c0,0.8,0,1.5,0,2.2
			c0,0.4-0.1,0.7-0.5,0.9c-1.6,0.8-2.5,2.1-2.6,3.9c-0.1,1.7,0.7,3,2.2,4c0.2,0.1,0.3,0.2,0.6,0.3c-0.2,0.2-0.4,0.3-0.6,0.4
			c-0.5-0.9-1-1.2-1.7-1c-0.5,0.1-0.9,0.5-0.9,1.1c-0.1,0.9,0.5,1.3,1.3,1.5c-0.1,0.3-0.2,0.5-0.3,0.7c-0.2-0.1-0.3-0.2-0.4-0.2
			c-3.4-1.7-6.9-2.2-10.6-1.7c-4,0.5-7.2,2.6-10.1,5.2c-0.4,0.3-0.6,0.4-1,0.1c-0.3-0.2-0.8-0.2-1.2-0.2c-0.2,0-0.4,0.1-0.5,0.1
			c-2.7-0.3-5.5-0.3-8.2,0.2c-4.2,0.8-7.8,2.5-10.8,5.6c-3.7,4-4.3,9.3-1.5,13.9c0.5,0.8,0.5,1.8,1.7,2.2c-1.9,1-2.6,2-2.3,3.3
			c0,0,0,0,0.1,0c0.3,0,0.6,0,0.9,0c1.8,0,3.2,0.7,4.1,2.3c0.1,0.2,0.2,0.3,0.3,0.5c0.1,0.2,0.2,0.5,0.2,0.7c0,1.3,1,2.5,2.3,2.4
			c0.6,0,0.8,0.3,1.1,0.6c1.3,1.8,3,3.3,5.2,3.9c0.3,0.1,0.5,0.1,0.8,0.2c-0.7,1.3-0.2,2.1,1.2,2.1c0.4,0,0.9,0.4,1.3,0.6
			c0.3,0.2,0.3,0.4,0.1,0.7c-0.3,0.4-0.6,0.8-0.9,1.2c0.6,0.3,1.2,0.5,1.7,0.8c0.7,0.3,0.9,1.3,0.4,1.9c-1,1.1-0.7,2.4,0.7,2.8
			c2.3,0.6,4.6,1.2,6.9,1.7c1.5,0.3,3,0.6,4.5,0.8c0,0,0,0.1,0,0.1c-10,0-20,0-30.1,0c0,11.3,0,22.5,0,33.7c-0.1,0-0.2,0-0.3,0
			c-2.7-0.9-5.4-1.3-8.2-1.6c-6.2-0.6-12.3-0.5-18.4,0.9c-3.9,0.9-7.7,2.1-11.2,4.2c-1.2,0.7-2.4,1.6-3.3,2.8
			c-0.6,0.9-0.8,1.8-0.3,2.8c0.9,2.1,1.8,4.3,2.7,6.5c0.1,0.2,0.2,0.3,0.2,0.4c0.4-0.6,0.7-1.3,1.2-1.8c1.3-1.5,3-2.4,4.7-3.2
			c5.3-2.4,10.9-3.6,16.6-3.7c2.9-0.1,5.8,0.2,8.6,0.7c2.4,0.3,4.8,1.1,7.2,1.7c0.3,0.1,0.5,0.2,0.5,0.6c0,4.6,0,9.3,0,13.9
			c0,10.8,0,21.6,0,32.4c0,1.6,0.1,3.3,0.5,4.9c1.5,7.7,5.8,13.6,12.8,17.3c4.7,2.5,9.7,4.4,14.8,5.8c1.6,0.4,3.3,0.8,4.9,1.2
			c4.6,0.9,11,1.7,15,1.7c5,0,11.2-0.7,16-1.7c0.1,0,0.2,0,0.3,0c0.1,0,0.2-0.1,0.3-0.1c6.5-1.4,12.8-3.5,18.7-6.6
			c9.1-4.7,13.7-12.3,13.8-22.5c0.1-11.5,0-23.1-0.1-34.6c0-3.8,0-7.6,0-11.4c0-0.6,0.2-0.9,0.7-1c4.4-1.4,9-2,13.6-2.2
			c3.6-0.2,7.1,0.4,10.6,1.2c3.5,0.8,6.9,1.9,10.1,3.8c1.6,0.9,3,2,3.6,4c1.1-2.6,2.1-5.1,3.1-7.6
			C215.4,131.7,215.4,131.3,215.3,130.9z M46.5,128.8c-0.3,0.2-0.6,0.4-0.8,0.5c-0.3,0.2-0.6,0.3-0.9,0.4c0.3,0.9,0.6,1.7,1,2.6
			c-0.5,0.2-0.9,0.4-1.3,0.5c-0.1,0-0.4-0.1-0.5-0.3c-0.8-1.9-1.5-3.8-2.2-5.8c1.2-0.4,2.3-0.9,3.5-1.2c1-0.3,1.7,0.1,2,0.9
			C47.6,127.4,47.3,128.2,46.5,128.8z M50.4,131c-0.5-2.1-0.9-4.3-1.4-6.4c0.6-0.1,1.1-0.2,1.7-0.4c0.4,1.9,0.8,3.7,1.2,5.7
			c0.8-0.2,1.6-0.4,2.5-0.6c0.1,0.3,0.1,0.5,0.2,0.9C53.2,130.4,51.8,130.7,50.4,131z M61.6,123.5c-0.8,1.9-1.6,3.8-2.3,5.7
			c-0.2,0.5-0.5,0.5-0.9,0.4c-0.2,0-0.5-0.2-0.6-0.4c-1-1.8-2-3.6-3-5.4c-0.1-0.1-0.1-0.3-0.2-0.5c0.6,0,1.2-0.1,1.7-0.1
			c0.2,0,0.5,0.2,0.6,0.4c0.7,1.3,1.3,2.6,2,4c0.2-0.4,0.3-0.6,0.4-0.8c0.4-1,0.8-2,1.1-3.1c0.2-0.8,0.6-1,1.4-0.9
			C61.8,123.2,61.7,123.4,61.6,123.5z M65.6,125.2c0.6,0.5,1.3,0.8,1.9,1.2c1.3,0.9,1.2,2.5-0.1,3.2c-0.4,0.2-0.9,0.3-1.3,0.4
			c-0.9,0.1-1.9-0.1-2.7-0.6c0.2-0.4,0.3-0.8,0.5-1.3c0.1,0.2,0.2,0.3,0.3,0.4c0.4,0.8,1.3,1.1,2.1,0.8c0.6-0.3,0.8-1,0.3-1.5
			c-0.4-0.4-1-0.6-1.5-0.9c-0.4-0.3-0.8-0.6-1-1c-0.5-0.8-0.1-1.9,0.7-2.4c1-0.6,2.8-0.5,3.7,0.4c-0.2,0.3-0.3,0.6-0.4,0.9
			c-0.4-0.3-0.8-0.7-1.2-0.9c-0.2-0.1-0.6-0.1-0.9,0C65.2,124.1,65,124.8,65.6,125.2z M172.9,90.5c0,18.6,0,37.1,0,55.7
			c-10.6,0-21.2,0-31.9,0c-0.1-1-0.1-2.1-0.3-3.1c-0.9-5.8-3.5-10.6-8.7-13.7c-1.9-1.2-4-1.8-6.3-1.9c-0.1,0-0.3,0-0.5-0.1
			c0-12.4,0-24.7,0-37C141.2,90.5,157,90.5,172.9,90.5z M158.6,156.5c0.4,0,0.6-0.2,0.7-0.5c0.3-1.2,0.3-1.2,1.5-1.2
			c0.5,0,0.9,0,1.4,0c0.4,0,0.5,0.2,0.2,0.5c-1.6,1.9-3.2,3.8-4.8,5.6c-0.1,0.1-0.4,0.2-0.6,0.1c-0.4-0.1-0.8-0.3-1.3-0.5
			c-1,1.2-1.9,2.3-3,3.5c0.2,0.4,0.5,0.7,0.7,1.1c0.1,0.2,0.1,0.5,0,0.6c-1,1.3-2.1,2.6-3.2,3.8c-0.1,0.1-0.3,0.2-0.4,0.2
			c-0.1,0-0.2-0.3-0.2-0.4c0-1.7,0-3.4,0-5.1c0-0.2,0.2-0.4,0.4-0.4c0.4-0.2,0.8-0.3,1.3-0.4c0-1.4,0-2.9,0-4.3
			c0-0.1-0.2-0.3-0.3-0.3c-0.4-0.2-0.9-0.3-1.3-0.4c0-0.3,0-0.5,0-0.8c-0.1-0.7,0-1.3,0.7-1.6c0.2-0.1,0.4-0.3,0.5-0.5
			c0.3-0.8,0.9-0.8,1.5-0.8c1.4,0,1.4,0,1.8,1.3c0.1,0.4,0.3,0.4,0.6,0.4C156.2,156.4,157.4,156.4,158.6,156.5z M155.5,154.7
			c0-0.5,0-1,0-1.5c0.8,0,1.6,0,2.4,0c0,0.5,0,1,0,1.5C157.2,154.7,156.4,154.7,155.5,154.7z M165,173.6c-0.6,0-1.1-0.5-1.1-1.1
			c0-0.6,0.5-1,1-1c0.6,0,1.1,0.4,1.1,1C166,173.2,165.6,173.6,165,173.6z M165.7,179.3c0,0.8,0,1.6,0,2.4c-0.5,0-1,0-1.5,0
			c0-0.8,0-1.6,0-2.4C164.7,179.3,165.2,179.3,165.7,179.3z M163.9,183.2c-0.3,0.9-0.5,1.7-0.8,2.5c0,0.1-0.1,0.2-0.2,0.3
			c-0.4,0.1-0.8,0.2-1.2,0.1c-0.2,0-0.3-0.3-0.5-0.4c-0.9-1-1.8-2.1-2.7-3.2c0.3-0.5,0.6-1,0.9-1.5c-0.9-1.1-1.9-2.2-2.8-3.3
			c-0.1-0.1-0.4-0.1-0.5,0c-1.3,0.5-1.3,0.5-2.2-0.6c-0.7-0.9-1.4-1.7-2.1-2.5c-0.2-0.2-0.3-0.4-0.2-0.8c0.2-0.3,0.4-0.4,0.7-0.4
			c1.5,0,1.5,0,2,1.4c0,0.1,0.1,0.2,0.1,0.3c1.4,0,2.9,0,4.3,0c0.1,0,0.3-0.2,0.4-0.4c0.5-1.3,0.4-1.3,1.8-1.3c0.2,0,0.4,0,0.6,0
			c0.6-0.1,1,0.1,1.2,0.6c0.2,0.3,0.5,0.6,0.8,0.8c0.4,0.2,0.5,0.4,0.5,0.8c0,0.1,0,0.3,0,0.4c0,0.5,0.2,1.1-0.1,1.4
			c-0.2,0.3-0.8,0.3-1.3,0.5c-0.1,0.1-0.3,0.3-0.3,0.4c-0.1,1.4-0.1,2.8-0.2,4.3C162.7,182.8,163.3,183,163.9,183.2z M163.7,188.8
			c0,0.6-0.5,1.1-1.1,1c-0.6,0-1-0.5-1-1.1c0-0.6,0.5-1.1,1.1-1C163.2,187.7,163.7,188.1,163.7,188.8z M157.5,191
			c-1.4,0.7-2.7,1.4-4.1,2.2c0.1,0.4,0.2,1,0.3,1.6c-0.7,0.2-1.3,0.3-2,0.5c-0.1,0-0.3-0.1-0.4-0.2c-0.3-0.3-0.6-0.7-1-0.9
			c-0.4-0.2-0.5-0.4-0.5-0.8c0-1.5,0-3,0-4.5c0-0.4,0.1-0.6,0.5-0.7c1.2-0.3,1.1-0.3,1.1-1.5c0-1.1,0-2.2,0-3.4
			c-0.2-0.1-0.3-0.1-0.4-0.1c-1.3-0.4-1.3-0.4-1.3-1.7c0-1.8,0-3.6,0-5.4c0-0.2,0.1-0.4,0.2-0.6c0.2,0.1,0.4,0.2,0.5,0.3
			c1,1.2,2,2.4,3,3.7c-0.3,0.5-0.6,1-1,1.5c0.9,1.1,1.8,2.2,2.8,3.2c0.1,0.1,0.4,0.1,0.6,0.1c0.4-0.1,0.8-0.3,1.3-0.5
			c1,1.2,2,2.3,2.9,3.5c0.1,0.1,0.1,0.3,0,0.4c-0.4,0.9-0.3,1.8,0.2,2.7c-0.6,0.6-1.2,1.1-1.8,1.7
			C158.2,191.6,157.8,191.3,157.5,191z M158.1,194.5c-0.7,0.4-1.4,0.8-2.2,1.2c-0.3-0.5-0.5-0.9-0.7-1.3c0.7-0.4,1.4-0.8,2.2-1.2
			C157.6,193.5,157.8,194,158.1,194.5z M140.7,191.1c-0.1-0.1-0.4,0-0.5,0.1c-0.3,0.2-0.6,0.5-1.1,1c-0.5-0.6-1-1.1-1.5-1.7
			c-0.1-0.1-0.1-0.3,0-0.5c0.4-0.8,0.4-1.5,0.1-2.3c-0.1-0.2,0-0.4,0.1-0.5c0.9-1.1,1.9-2.3,2.9-3.4c0.2,0.1,0.4,0.2,0.6,0.3
			c1,0.4,1,0.4,1.7-0.4c0.7-0.9,1.5-1.7,2.3-2.6c-0.3-0.5-0.6-1-1-1.5c1.1-1.3,2.2-2.6,3.3-3.9c0.1-0.1,0.3-0.2,0.3-0.2
			c0.1,0.1,0.2,0.2,0.2,0.4c0,2.2,0,4.4,0,6.6c0,0.1-0.2,0.4-0.4,0.4c-1.3,0.5-1.3,0.5-1.3,1.8c0,0.9,0,1.8,0,2.7
			c0,0.4,0.1,0.5,0.4,0.6c0.4,0.1,0.8,0.2,1.3,0.4c0,1.8,0,3.5,0,5.3c0,0.2-0.2,0.3-0.3,0.5c-0.2,0.2-0.6,0.4-0.7,0.6
			c-0.3,0.7-0.8,0.6-1.4,0.5c-0.5-0.1-1-0.3-1.5-0.4c0.1-0.6,0.2-1.1,0.3-1.6C143.1,192.5,141.9,191.8,140.7,191.1z M142.6,194.3
			c-0.2,0.4-0.5,0.8-0.7,1.3c-0.7-0.4-1.4-0.8-2.2-1.2c0.3-0.5,0.5-0.9,0.7-1.4C141.2,193.5,141.9,193.9,142.6,194.3z M135.1,186.1
			c-0.2-0.1-0.4-0.2-0.4-0.3c-0.2-0.7-0.5-1.4-0.6-2.2c0-0.1,0.1-0.4,0.3-0.5c0.4-0.2,1-0.3,1.2-0.6c0.2-0.3,0-0.9,0-1.3
			c0-0.9-0.1-1.8-0.1-2.7c0-0.2-0.2-0.4-0.4-0.5c-1.3-0.4-1.3-0.4-1.3-1.7c0-0.7-0.1-1.3,0.7-1.6c0.2-0.1,0.5-0.4,0.6-0.6
			c0.2-0.5,0.6-0.6,1.1-0.6c0.6,0,1.1,0,1.7,0c0.4,0,0.6,0.1,0.7,0.5c0.4,1.2,0.4,1.2,1.7,1.2c0.9,0,1.8,0,2.7,0
			c0.4,0,0.6-0.1,0.7-0.5c0.3-1.2,0.4-1.2,1.6-1.2c0.2,0,0.4,0,0.6,0c0.2,0.1,0.4,0.2,0.5,0.3c0.1,0.2,0.1,0.5-0.1,0.6
			c-1,1.2-2,2.4-3,3.6c-0.2,0.3-0.4,0.3-0.7,0.1c-0.4-0.2-0.8-0.3-1.2-0.5c-0.9,1.1-1.8,2.1-2.7,3.2c-0.1,0.1-0.1,0.5,0,0.6
			c0.2,0.4,0.4,0.7,0.7,1.1c-0.1,0.2-0.3,0.4-0.4,0.6c-0.6,0.7-1.3,1.4-1.9,2.2C136.4,186,135.9,186.3,135.1,186.1z M136.2,188.7
			c0,0.6-0.5,1.1-1.1,1.1c-0.6,0-1-0.4-1.1-1c0-0.6,0.4-1.1,1-1.1C135.7,187.7,136.2,188.1,136.2,188.7z M132.8,173.6
			c-0.6,0-1.1-0.5-1.1-1.1c0-0.6,0.4-1,1-1c0.6,0,1.1,0.4,1.1,1C133.9,173.2,133.4,173.6,132.8,173.6z M133.6,179.3
			c0,0.8,0,1.6,0,2.4c-0.4,0-0.9,0-1.5,0c0-0.8,0-1.6,0-2.4C132.6,179.3,133,179.3,133.6,179.3z M133.6,162.3c0,0.8,0,1.4,0,2.1
			c-0.5,0-0.9,0-1.4,0C131.7,163.1,132.8,162.9,133.6,162.3z M135.4,161.3c0-0.5,0.1-0.7,0.4-1c0.2-0.2,0.4-0.5,0.7-0.8
			c0.8,1,1.6,1.9,2.4,2.9c-0.3,0.5-0.6,1-1,1.5c0.9,1.1,1.9,2.2,2.8,3.3c0.1,0.1,0.3,0.1,0.5,0c0.4-0.2,0.8-0.4,1.3-0.6
			c1.2,1.4,2.4,2.8,3.6,4.2c0.3,0.3,0.1,0.7-0.3,0.8c0,0-0.1,0-0.1,0c-0.6,0-1.3,0.2-1.7-0.1c-0.4-0.2-0.4-1-0.6-1.5
			c-1.5,0-3,0-4.6,0c-0.2,0.5-0.3,1-0.5,1.6c-0.9,0-1.8,0-2.7,0c-0.1,0-0.3-0.2-0.4-0.3c-0.3-0.4-0.6-0.8-1-1.1
			c-0.4-0.3-0.5-0.5-0.5-1c0-0.9,0-1.9,0-2.8c0-0.4,0.1-0.6,0.5-0.7c0.4-0.1,0.8-0.2,1.2-0.4C135.4,164.1,135.4,162.7,135.4,161.3z
			 M140,163.5c0.4-0.3,0.7-0.6,1.1-1c0.6,0.6,1.1,1.3,1.6,1.9c-0.4,0.3-0.7,0.6-1.1,1C141.1,164.8,140.6,164.2,140,163.5z
			 M142.4,171.9c0,0.5,0,0.9,0,1.4c-0.8,0-1.7,0-2.6,0c0-0.5,0-0.9,0-1.4C140.6,171.9,141.5,171.9,142.4,171.9z M143.1,180.6
			c-0.5,0.6-1.1,1.3-1.6,1.9c-0.4-0.3-0.8-0.6-1.1-1c0.5-0.6,1.1-1.3,1.6-1.9C142.3,179.9,142.7,180.2,143.1,180.6z M149,170.4
			c1.2,0,2.2,1,2.2,2.2c0,1.3-1,2.2-2.3,2.2c-1.2,0-2.2-1-2.2-2.2C146.8,171.4,147.8,170.3,149,170.4z M148.2,162.3
			c0-0.8,0-1.6,0-2.4c0.5,0,0.9,0,1.4,0c0,0.8,0,1.6,0,2.4C149.2,162.3,148.7,162.3,148.2,162.3z M149.7,184.4c0,0.8,0,1.6,0,2.4
			c-0.5,0-0.9,0-1.4,0c0-0.8,0-1.6,0-2.4C148.7,184.4,149.2,184.4,149.7,184.4z M149,195.4c0.6,0,1.1,0.4,1.1,1
			c0,0.6-0.5,1.1-1.1,1.1c-0.6,0-1-0.5-1-1C147.9,195.9,148.4,195.4,149,195.4z M154.7,180.6c0.4-0.3,0.8-0.6,1.1-1
			c0.5,0.6,1.1,1.2,1.6,1.9c-0.4,0.3-0.7,0.6-1.1,1C155.8,181.8,155.3,181.2,154.7,180.6z M155.6,173.3c0-0.5,0-0.9,0-1.4
			c0.8,0,1.6,0,2.4,0c0,0.4,0,0.9,0,1.4C157.2,173.3,156.4,173.3,155.6,173.3z M164.3,164.4c0-0.8,0-1.6,0-2.4c0.5,0,0.9,0,1.4,0
			c0,0.8,0,1.6,0,2.4C165.2,164.4,164.8,164.4,164.3,164.4z M165,155c-0.6,0-1.1-0.5-1.1-1.1c0-0.6,0.5-1,1-1c0.6,0,1.1,0.4,1.1,1
			C166.1,154.5,165.6,155,165,155z M164.1,156.8c0,1.2,0,2.3,0,3.6c-0.4,0.1-0.7,0.3-1.1,0.3c-0.6,0.1-0.7,0.4-0.7,0.9
			c0,1.3,0,2.5,0,3.8c0.2,0.1,0.3,0.1,0.5,0.2c1.3,0.4,1.3,0.4,1.3,1.7c0,0.9,0,1.7,0,2.3c-0.6,0.7-1.1,1.2-1.6,1.8
			c-0.1,0.1-0.3,0.2-0.5,0.2c-0.7,0-1.3,0-2,0c-0.4,0-0.5-0.1-0.7-0.5c-0.4-1.2-0.4-1.2-1.6-1.2c-1,0-1.9,0-2.9,0
			c-0.4,0-0.6,0.1-0.6,0.5c-0.1,0.4-0.2,0.8-0.3,1.2c-0.6,0-1.2,0-1.8,0c-0.4,0-0.7-0.7-0.5-1c1.2-1.4,2.3-2.8,3.5-4.1
			c0.1,0,0.1,0,0.2,0c0.5,0.2,1.1,0.6,1.5,0.5c0.4-0.1,0.7-0.7,1.1-1.2c0.6-0.7,1.2-1.5,1.9-2.2c-0.3-0.5-0.6-1-1-1.5
			c1.6-1.9,3.2-3.8,4.8-5.7c0.1-0.1,0.3-0.2,0.4-0.3C164,156.5,164.1,156.7,164.1,156.8z M154.9,164.3c0.5-0.6,1.1-1.3,1.6-1.9
			c0.4,0.4,0.8,0.6,1.2,1c-0.5,0.6-1.1,1.2-1.6,1.9C155.7,165,155.4,164.7,154.9,164.3z M148.9,155c-0.6,0-1-0.5-1-1.1
			c0-0.6,0.5-1,1.1-1c0.6,0,1,0.5,1,1.1C150,154.5,149.4,155,148.9,155z M148,156.6c0.1,0.5,0.1,1,0,1.6c0,0.1-0.4,0.2-0.6,0.3
			c-1,0.3-1,0.3-1,1.4c0,1.2,0,2.3,0,3.5c0.6,0.2,1.3,0.3,1.6,0.6c0.3,0.4,0.1,1.1,0.1,1.6c0,1.2,0,2.5,0,3.7c0,0.2-0.1,0.3-0.2,0.5
			c-0.2-0.1-0.3-0.1-0.4-0.2c-1.2-1.3-2.3-2.7-3.5-4.1c0.3-0.4,0.5-0.8,0.7-1.2c0.1-0.2,0.1-0.5,0-0.6c-0.8-1-1.6-1.9-2.4-2.9
			c-0.2-0.2-0.4-0.3-0.7-0.2c-1.3,0.5-1.3,0.5-2.1-0.5c-0.5-0.6-1-1.2-1.5-1.8c-0.1-0.1-0.2-0.4-0.1-0.6c0.3-0.5,0.6-1,0.9-1.5
			c1.6,0,3.2,0,4.8,0c0.1-0.4,0.2-0.8,0.4-1.2c0.1-0.2,0.3-0.3,0.5-0.4c0.2-0.1,0.4,0,0.6,0c0.8-0.1,1.6-0.1,2,0.9
			c0.1,0.2,0.4,0.3,0.6,0.5C147.7,156.3,148,156.4,148,156.6z M142.4,154.7c-0.8,0-1.6,0-2.4,0c0-0.5,0-1,0-1.5c0.8,0,1.6,0,2.4,0
			C142.4,153.7,142.4,154.1,142.4,154.7z M134.6,160.6c-5.7,5.5-14.3,5.2-19.6-0.6c-3.8-4.1-5.3-9.1-5.2-14.6c0.1-4.2,1.4-8,4-11.4
			c2.3-3,5.2-5,8.9-5.7c4.1-0.8,7.8,0.3,11,2.9c3.6,3,5.6,6.9,6.4,11.4c0.2,1.2,0.3,2.4,0.3,3.2
			C140.3,151.9,138.7,156.7,134.6,160.6z M124.7,180.3c0,5.2-1.5,9.8-4.5,14c-0.1,0.2-0.3,0.3-0.5,0.6c0-10.3,0-20.5,0-30.6
			c1.6,0.3,3.1,0.6,4.6,0.9c0.1,0,0.3,0.2,0.3,0.4c0.1,0.1,0,0.3,0,0.4C124.7,170.8,124.7,175.5,124.7,180.3z M114.4,199.4
			c0,0.5-0.2,0.8-0.6,1.1c-1.5,0.9-3,1.7-4.7,2.3c0-18.7,0-37.3,0-55.9c0,0,0.1,0,0.1,0c0.1,0.5,0.1,1,0.2,1.5
			c0.4,4.4,1.9,8.3,4.8,11.6c0.2,0.2,0.2,0.5,0.2,0.8c0,4.7,0,9.4,0,14.1C114.4,183.1,114.4,191.2,114.4,199.4z M156.1,80.9
			c0.1,0.2,0.3,0.4,0.4,0.6c-0.8,0.7-1.3,0.8-2.2,0.2c-0.4-0.3-0.8-0.6-1.3-1c0.7-0.1,1.2-0.1,1.7-0.3
			C155.4,80.3,155.9,80.4,156.1,80.9z M167.9,70.5c-0.2,0.8-1.1,1.5-1.9,1.5c-0.7,0-1.1-0.4-0.9-1.1c0.2-0.8,1-1.5,1.8-1.6
			C167.7,69.2,168.2,69.8,167.9,70.5z M156.5,71.8c0-0.1,0.2-0.3,0.3-0.4c0.6-0.6,0.9-1.3,0.7-2.2c-0.2-1-1.1-1.3-1.8-0.7
			c-0.7,0.6-0.9,1.4-0.8,2.3c0,0.3,0,0.6-0.2,0.8c-1.4,1.5-3.6,1.8-5.5,0.7c-1.6-1-2.4-3.3-1.7-5.1c0.2-0.6,0.5-0.7,0.9-0.2
			c1.2,1.1,2.7,1.5,4.2,2.1c0-0.5-0.1-1-0.1-1.5c1.2-0.1,2.4-0.4,3.4-1.2c-0.7-1.1-1.6-1.8-2.8-2.3c0.2-0.5,0.4-0.9,0.7-1.5
			c-1.6,0.1-3,0.3-4.4,0.4c0.7-1.2,1.4-2.5,2.1-3.9c-0.7,0-1.3,0-1.8,0c-0.4-1.1-0.7-2.3-1.1-3.4c0.1,0,0.3,0,0.4,0.1
			c1.1,0.3,1.9-0.6,1.5-1.6c-0.1-0.4,0.2-0.9,0.6-1c0.5-0.1,0.9-0.3,1.2-0.7c0.1-0.1,0.4-0.2,0.6-0.2c3.8-0.4,7.4,0.4,10.8,2
			c1.9,0.8,3.6,1.9,5.4,2.9c0.1,0.1,0.2,0.1,0.4,0.3c-0.5,0.5-0.9,1-1.4,1.6c0.7,1.2,1.3,2.3,2,3.5c0.4,0.7,0.4,0.7-0.3,1
			c-0.4,0.2-0.8,0.4-1.3,0.6c-0.1-0.2-0.1-0.4-0.2-0.7c-1.7,0.3-2.4,1.6-2.5,4.1c-0.6-0.5-1.3-1-2-1.4c-0.7-0.4-1.4-0.8-2.2-1.2
			c-0.1,0.5-0.1,1-0.2,1.3c-1.2,0.2-2.4,0.4-3.7,0.6c0.5,1.3,1.4,2,2.4,2.6c-0.4,0.4-0.7,0.9-1.2,1.4c1.7,0.2,3.2,0.3,4.8,0.5
			c0,0-0.1,0.2-0.2,0.2c-1.3,1.2-2.6,2.4-4.4,2.9C157.7,74.8,156.2,73.3,156.5,71.8z M155.4,70.7c-0.2-0.6,0-1.2,0.4-1.6
			c0.2-0.3,0.7-0.5,1-0.4c0.2,0,0.4,0.5,0.7,0.9c-0.3,0.5-0.5,1.1-0.8,1.5C156.1,71.5,155.6,71.4,155.4,70.7z M136.4,67.4
			c0.6-0.7,0.8-1.5,0.4-2.4c-0.4-0.9-1.4-1.1-2-0.3c-0.6,0.7-0.6,1.5-0.3,2.4c0.1,0.2,0.1,0.6,0,0.8c-0.9,2-3.2,2.9-5.3,2.3
			c-2-0.6-3.4-2.7-3.2-4.8c0-0.4,0.1-0.7,0.2-1.2c1.8,1.5,3.8,1.8,5.9,2.1c-0.2-0.6-0.3-1.1-0.5-1.6c0.6-0.2,1.3-0.4,1.9-0.8
			c0.6-0.3,1.1-0.8,1.7-1.2c-1-1.1-2.2-1.8-3.6-2c0.2-0.5,0.3-1,0.4-1.5c0-0.1-0.1-0.1-0.1-0.2c-1.6,0.4-3.1,0.8-4.6,1.2
			c0.5-1.5,1-3.1,1.6-4.9c-0.8,0.2-1.5,0.3-2.2,0.4c0.4-0.5,0.9-0.9,1.3-1.4c0.6-0.6,1.5-1.2,1.8-1.9c0.2-0.7-0.3-1.6-0.5-2.4
			c-0.2-0.9-0.3-1.8-0.5-2.9c1.4,0.2,2.7,0.3,4,0.5c2.8,0.4,5.5,1.2,8.1,2.3c1.7,0.7,3.6,1,5.4,1.5c0.1,0,0.1,0,0.4,0.1
			c-0.7,0.6-1.3,1.2-2,1.8c0.6,1,1.2,2.1,1.8,3.1c0.2,0.3,0.2,0.6,0,0.9c-0.2,0.3-0.4,0.7-0.6,1c-0.6-0.2-1.1-0.4-1.9-0.7
			c0.2,1.7,0.5,3.2,0.6,4.5c-1.2-0.6-2.6-1.2-4-1.8c0.1,0.6,0.1,1.1,0.2,1.6c-1.2,0.1-2.4,0.4-3.4,1.2c0.7,1.1,1.6,1.8,2.8,2.3
			c-0.2,0.4-0.4,0.9-0.7,1.4c1.8,0,3.5,0.1,5.1-0.7c0.4,0.6,0.2,1.1,0.1,1.6c-0.4,2-2.2,3.5-4.2,3.6c-2.1,0.1-4-1.2-4.5-3.2
			C136.2,67.8,136.2,67.6,136.4,67.4z M135.5,67.3c-0.3-0.1-0.6-0.6-0.7-1c-0.1-0.4,0.1-0.8,0.2-1.2c0.1-0.3,0.5-0.5,0.8-0.5
			c0.2,0,0.5,0.4,0.6,0.6c0.1,0.1,0.1,0.4,0.1,0.6c-0.1,0.2-0.1,0.5-0.2,0.7C136.3,67,136,67.5,135.5,67.3z M114.9,64.7
			c-0.6-0.8-1.6-0.7-2,0.2c-0.4,0.9-0.2,1.7,0.4,2.5c0.1,0.2,0.2,0.5,0.2,0.7c-0.5,1.9-2.4,3.3-4.5,3.2c-2-0.1-3.8-1.6-4.2-3.5
			c-0.1-0.5-0.1-1.1-0.1-1.8c1.8,0.9,3.5,0.9,5.3,0.9c-0.1-0.3-0.2-0.5-0.3-0.7c-0.1-0.2-0.2-0.4-0.3-0.6c0.5-0.3,1.1-0.6,1.5-1
			c0.5-0.4,0.8-0.8,1.3-1.3c-1-0.9-2.2-1.2-3.4-1.3c0-0.5,0.1-1,0.1-1.6c-1.4,0.6-2.7,1.2-3.9,1.8c0.2-1.3,0.4-2.8,0.6-4.5
			c-0.7,0.3-1.3,0.5-1.9,0.7c-0.3-0.4-0.6-0.9-0.9-1.4c-0.1-0.2,0-0.5,0.1-0.6c0.6-1,1.2-2,1.7-3c-0.7-0.6-1.3-1.1-2.1-1.8
			c0.8-0.2,1.4-0.3,2-0.5c1.9-0.6,3.8-1.3,5.8-2c3.2-1.1,6.6-1.6,10.2-1.9c-0.3,1.6-0.6,3.2-1,4.7c-0.1,0.5-0.1,0.9,0.3,1.2
			c0.9,0.8,1.8,1.7,2.7,2.6c-0.6-0.1-1.2-0.2-1.9-0.3c0.6,1.8,1.1,3.4,1.6,4.9c-1.5-0.4-3.1-0.8-4.6-1.2c0,0.1-0.1,0.1-0.1,0.2
			c0.1,0.5,0.3,1,0.5,1.5c-1.4,0.3-2.6,0.9-3.6,2c1,1.1,2.2,1.7,3.6,2c-0.2,0.5-0.3,1.1-0.5,1.7c1.8-0.3,3.6-0.5,5.1-1.5
			c0.9-0.6,1-0.6,1.1,0.5c0.2,2.5-1.3,4.5-3.7,5c-1.9,0.4-4.1-0.7-4.9-2.5c-0.1-0.2-0.1-0.5,0-0.7C115.5,66.3,115.5,65.5,114.9,64.7
			z M115.1,66c-0.1,0.3-0.2,0.6-0.3,0.9c-0.3,0.6-0.8,0.6-1.2,0.1c-0.4-0.5-0.5-1.4-0.2-2c0.3-0.6,0.9-0.6,1.2-0.1
			C114.8,65.3,114.9,65.7,115.1,66z M94.4,68.8c-0.4-0.6-1-0.8-1.5-0.6c-0.5,0.2-0.9,1-0.7,1.5c0.2,0.6,0.6,1.1,0.8,1.6
			c0.1,0.2,0.2,0.3,0.2,0.5c0.1,1.9-1.4,3-3.2,2.3c-1.3-0.5-3-1.7-4.2-3.1c0.8-0.1,1.6-0.1,2.3-0.2c0.8-0.1,1.5-0.2,2.4-0.3
			c-0.4-0.5-0.7-0.9-1.1-1.4c1-0.6,1.8-1.3,2.3-2.5c-1.2-0.5-2.4-0.7-3.6-0.6c-0.1-0.5-0.1-1-0.2-1.6c-1.4,0.9-2.8,1.8-4.2,2.6
			c0.1-1.7-0.3-3.4-2.5-4.1c-0.1,0.3-0.1,0.5-0.2,0.7c-0.8-0.3-1.5-0.5-2.3-0.8c0.8-1.3,1.6-2.8,2.4-4.2c-0.5-0.6-1-1.2-1.6-1.9
			c1.5-0.8,2.8-1.6,4.2-2.3c2.5-1.2,5.1-2.2,7.9-2.5c1.7-0.2,3.4-0.1,5-0.1c0.1,0,0.2,0,0.2,0.1c0.3,0.6,0.7,0.8,1.3,0.9
			c0.4,0.1,0.7,0.4,0.5,1c-0.3,1.1,0.4,1.9,1.6,1.6c0.2,0,0.3,0,0.5,0.1c0.1,0,0.1,0.3,0,0.4c-0.2,0.5-0.4,0.9-0.6,1.4
			c-0.1,0.5-0.2,1-0.3,1.4c-0.6,0-1.2,0-1.9,0c0.8,1.4,1.5,2.8,2.1,4c-1.3-0.1-2.8-0.2-4.4-0.4c0.3,0.6,0.5,1,0.7,1.5
			c-1.1,0.5-2.1,1.2-2.8,2.3c1,0.8,2.1,1.1,3.4,1.2c0,0.5-0.1,0.9-0.1,1.5c1.6-0.6,3.1-1,4.3-2.2c0.4-0.4,0.7-0.3,0.9,0.2
			c1.1,3.2-1.4,5.8-3.9,5.8c-1.3,0-2.5-0.4-3.3-1.4c-0.2-0.2-0.2-0.5-0.2-0.7C95,70.1,94.8,69.4,94.4,68.8z M94.7,70.3
			c-0.3,0.4-0.5,0.9-0.8,1c-0.2,0.1-0.7-0.2-0.9-0.4c-0.4-0.5-0.6-1.1-0.3-1.7c0.2-0.5,0.7-0.7,1.1-0.3
			C94.1,69.2,94.3,69.7,94.7,70.3z M85.3,70.6c-0.1,0-0.3-0.1-0.4-0.2c-0.4-0.4-0.7-0.8-1.1-1.2c-0.1-0.1-0.2-0.4-0.1-0.5
			c0.4-0.6,0.7-1.2,1.2-1.6c0.8-0.7,1.8-1.1,2.8-1.7c0,0.5,0.1,0.9,0.1,1.2c1.1,0.1,2.3,0.2,3.6,0.4c-0.7,1.2-1.5,1.9-2.7,2.4
			c0.4,0.3,0.9,0.6,1.3,0.8c-0.1,0.1-0.1,0.2-0.2,0.2C88.3,70.6,86.8,70.9,85.3,70.6z M97.3,49.7c-0.5,0-0.9-0.3-0.9-0.8
			c0-0.4,0.4-0.9,0.8-0.9c0.4,0,0.8,0.4,0.9,0.8C98.1,49.3,97.7,49.7,97.3,49.7z M97.3,51.7c0-0.5,0.4-0.8,0.9-0.8
			c0.5,0,0.8,0.4,0.8,0.9c0,0.5-0.4,0.8-0.8,0.8C97.7,52.6,97.3,52.2,97.3,51.7z M99.1,54.5c0-0.4,0.5-0.9,0.9-0.8
			c0.4,0,0.8,0.4,0.8,0.9c0,0.4-0.4,0.8-0.8,0.8C99.5,55.3,99.1,55,99.1,54.5z M111.5,63.3c-0.7,1-1.1,1.2-2.9,2
			c0.2,0.4,0.4,0.7,0.7,1.2c-1.4,0-2.8,0-4-0.6c-0.1-0.1-0.2-0.3-0.2-0.4c0.3-0.9,0.1-1.6-0.5-2.3c0.8-1,2-1.6,3.7-2.1
			c-0.1,0.5-0.2,0.9-0.3,1.3C109.4,62.3,110.5,62.6,111.5,63.3z M94.5,66.4c0.4-0.8,0.9-1.2,2.8-2c-0.2-0.4-0.4-0.7-0.7-1.2
			c1.6,0,3,0,4.3,0.7c-0.2,0.9-0.2,1.7,0.5,2.5c-1,1.2-2.4,1.7-3.8,2.2c0.1-0.5,0.2-0.9,0.3-1.4C96.6,67.3,95.5,67,94.5,66.4z
			 M98.8,59.4c0-0.1,0.1-0.1,0.1-0.2c0.6,0.2,1.1,0.4,1.7,0.6c-0.2-1.2,0.1-2.5,0.8-3.6c1.1,0.8,1.8,1.9,2.1,3.1
			c0.5-0.4,0.9-0.7,1.4-1.1c0.1,0,0.1,0.1,0.2,0.1c-0.2,1.5-0.5,3-0.7,4.6c-1.3-0.6-2.3-0.4-3.3,0.6C100.3,62.1,99.5,60.7,98.8,59.4
			z M101.1,64.8c0-1.1,0.8-1.9,1.9-1.9c1,0,1.8,0.9,1.8,1.9c0,1-0.8,1.9-1.9,1.8C101.9,66.6,101.1,65.8,101.1,64.8z M102.2,50.8
			c-0.9-1.3-1.2-2.7-1.2-4.3c0-3,1.6-5.2,4.1-6.6c5-2.8,10.1-2.7,15.1,0c0.4,0.2,0.6,0.5,0.5,1c-0.1,1.8-0.2,3.6-0.3,5.4
			c0,0.1,0,0.2,0,0.3c-1.9,0.3-3.8,0.5-5.7,0.8c-2.2,0.4-4.3,1.1-6.3,1.9c-1.8,0.7-3.8,1.1-5.7,1.7
			C102.5,51.1,102.3,50.9,102.2,50.8z M126.7,49.4c-0.1-0.5-0.3-1-0.6-1.4c-0.8-0.8-2.2-0.7-2.9,0.2c-0.8,0.9-0.6,2.2,0.4,3
			c-0.3,0.6-0.7,1.1-1.1,1.8c-0.2-0.3-0.5-0.6-0.8-0.9c-0.1-0.1-0.1-0.3-0.1-0.5c0.7-2.3,0.9-4.7,1-7.1c0.1-1.9,0.2-3.8,0.4-5.7
			c0.1-1,0.7-1.6,1.6-1.6c0.8,0,1.6,0.5,1.7,1.3c0.1,0.3,0.1,0.7,0.1,1c0.1,1.5,0.2,2.9,0.3,4.4c0.1,2.7,0.3,5.3,1,7.9
			c0,0.1,0,0.4-0.1,0.5c-0.2,0.3-0.5,0.6-0.8,0.8c-0.4-0.6-0.7-1.1-1-1.7C126.4,50.8,126.9,50.2,126.7,49.4z M124.8,51.1
			c-0.9,0-1.6-0.7-1.6-1.6c0-0.9,0.7-1.6,1.6-1.6c0.9,0,1.6,0.7,1.6,1.6C126.4,50.4,125.6,51.1,124.8,51.1z M123.7,51.9
			c0.5-0.4,1.5-0.5,2-0.1c0.6,0.5,0.8,1.2,0.4,2c-0.4-0.5-0.8-1.1-1.3-1.7c-0.5,0.6-0.9,1.2-1.4,1.8C123,53.2,123.1,52.4,123.7,51.9
			z M124.8,52.8c1.1,1.1,1.6,2.4,1.7,3.8c0.6-0.3,1.2-0.6,1.8-0.9c0,0.1,0.1,0.1,0.1,0.2c-0.7,1.7-0.9,3.6-2.1,5.1
			c-1.1-0.8-2.1-0.8-3.2,0c-1.2-1.6-1.3-3.5-2-5.1c0.1-0.1,0.1-0.1,0.2-0.2c0.6,0.3,1.2,0.6,1.8,0.9
			C123.3,55.3,123.7,53.9,124.8,52.8z M134.8,62.8c-1,1-2.2,1.5-3.6,1.6c0.2,0.5,0.4,1,0.6,1.5c-1.8-0.3-3.5-0.6-4.9-1.8
			c0.5-1.3,0.5-1.6,0-2.6c1.1-1.1,3-1.6,4.9-1.8c-0.2,0.5-0.3,0.9-0.5,1.4C132.5,61.3,133.7,61.8,134.8,62.8z M122.8,64.1
			c-1.3,1.2-3,1.4-4.9,1.8c0.2-0.5,0.4-1,0.5-1.4c-0.7-0.2-1.3-0.3-1.9-0.5c-0.6-0.3-1.1-0.7-1.8-1.1c1.1-1.1,2.3-1.6,3.7-1.7
			c-0.1-0.3-0.2-0.5-0.3-0.7c-0.1-0.2-0.2-0.4-0.3-0.7c1.8,0.3,3.5,0.5,4.8,1.7c-0.1,0.4-0.3,0.9-0.3,1.3
			C122.6,63.2,122.7,63.6,122.8,64.1z M123,62.8c0-1,0.8-1.9,1.8-1.9c1,0,1.9,0.9,1.9,1.9c0,1-0.9,1.9-1.9,1.9
			C123.8,64.7,123,63.9,123,62.8z M128.8,40.9c-0.1-0.4,0.1-0.7,0.5-0.9c2.8-1.7,5.9-2.2,9.1-2c2.5,0.2,4.8,0.9,6.9,2.4
			c3.9,2.7,4,7.2,2.2,10.2c-0.3,0.4-0.5,0.5-1,0.4c-2.2-0.4-4.3-1.1-6.4-2c-2.9-1.2-5.9-1.8-9-2.1c-0.3,0-0.6-0.1-0.9-0.1
			c-1.1-0.1-1.1-0.1-1.1-1.2c0-1-0.1-2-0.2-3c0,0,0,0,0,0C128.8,42.1,128.8,41.5,128.8,40.9z M152.3,68.5c-1.4-0.5-2.8-1-3.8-2.2
			c0.6-0.7,0.7-1.6,0.5-2.4c0.9-0.7,2.5-0.8,4.3-0.8c-0.2,0.4-0.4,0.8-0.7,1.2c1.2,0.3,2.1,0.9,2.9,2c-1,0.7-2.1,1-3.4,0.8
			C152.1,67.6,152.2,68,152.3,68.5z M148.7,63.5c-1-1-2-1.2-3.3-0.6c-0.3-1.6-0.5-3.1-0.7-4.6c0.1,0,0.1-0.1,0.2-0.1
			c0.5,0.4,0.9,0.8,1.4,1.1c0.3-1.2,0.9-2.3,2-3.1c0.7,0.9,0.9,1.6,0.9,3.6c0.5-0.2,1.1-0.4,1.7-0.6c0,0.1,0.1,0.1,0.1,0.2
			C150.2,60.7,149.5,62.1,148.7,63.5z M144.7,65.7c-1.3,0.7-2.7,0.7-4.3,0.7c0.2-0.4,0.5-0.8,0.7-1.2c-1.1-0.3-2.1-0.9-2.9-2
			c1.1-0.7,2.2-1,3.4-0.8c-0.1-0.5-0.2-0.9-0.3-1.4c1.4,0.5,2.8,0.9,3.8,2.1C144.5,63.9,144.3,64.8,144.7,65.7z M144.9,64.8
			c0-1.1,0.8-1.9,1.8-1.9c1,0,1.9,0.8,1.9,1.9c0,1-0.8,1.9-1.8,1.9C145.7,66.6,144.9,65.8,144.9,64.8z M148.6,54.5
			c0-0.4,0.4-0.8,0.8-0.8c0.4,0,0.9,0.4,0.9,0.9c0,0.4-0.4,0.8-0.8,0.8C149,55.3,148.6,55,148.6,54.5z M152.1,51.8
			c0,0.5-0.4,0.9-0.9,0.9c-0.4,0-0.8-0.4-0.9-0.8c0-0.4,0.3-0.8,0.8-0.9C151.7,50.9,152.1,51.3,152.1,51.8z M151.4,48.8
			c0-0.4,0.4-0.8,0.8-0.8c0.4,0,0.9,0.4,0.9,0.9c0,0.4-0.4,0.8-0.8,0.8C151.8,49.7,151.4,49.3,151.4,48.8z M163.5,70.7
			c-1.1,0-2.3-0.1-3.4-0.2c0-0.1-0.1-0.1-0.1-0.2c0.4-0.3,0.8-0.6,1.2-0.8c0-0.1-0.1-0.2-0.1-0.2c-1.1-0.4-1.9-1.1-2.5-2.2
			c1.2-0.5,2.4-0.5,3.6-0.4c0-0.4,0-0.8,0-1.3c1,0.6,2,1.2,2.9,1.8c0.5,0.4,0.7,1,1.1,1.6c0.1,0.1-0.1,0.3-0.2,0.4
			c-0.2,0.2-0.6,0.4-0.7,0.6C164.9,70.7,164.2,70.7,163.5,70.7z M173.7,62.1c0.5,0,0.9,0.4,0.9,0.8c0,0.5-0.4,0.9-0.9,0.9
			c-0.4,0-0.8-0.4-0.8-0.8C172.9,62.5,173.2,62.1,173.7,62.1z M172.1,63.9c0.9,0.4,1.4,1.3,1.4,2.3c-2.6-0.3-4.3,0.9-5.3,3
			c-0.6-0.1-1.1-0.3-1.6-0.4c-0.6-2.2-0.2-4.4,1.5-5c0.1,0.4,0.2,0.7,0.3,1.2C169.4,63.7,170.6,63.2,172.1,63.9z M172.1,61.4
			c-0.4-0.8-0.9-1.5-1.3-2.2c2.4-3.1,2.8-6.5,1.4-10.2C174.7,52.1,175.1,57.1,172.1,61.4z M153.9,41.5c4.5-0.3,8.8,0.3,12.8,2.4
			c1.8,1,3.4,2.3,4.5,4c2.1,3.2,1.9,7.6-0.6,10.7c-0.3,0.3-0.3,0.6-0.1,0.9c0.5,0.8,1,1.6,1.4,2.4c-0.3,0.3-0.7,0.5-1,0.8
			c-0.7-1.3-1.4-2.5-2.1-3.7c-0.1-0.1,0-0.5,0.2-0.6c1.6-1.7,2.4-3.8,2.2-6.1c-0.2-2.8-1.6-4.9-3.9-6.5c-2.5-1.7-5.3-2.6-8.3-2.9
			c-2.1-0.2-4.3-0.2-6.4-0.2c0-0.2,0-0.6-0.1-1.1C153,41.6,153.4,41.6,153.9,41.5z M153.9,43.3c3.8-0.3,7.5,0.1,11,1.8
			c1.2,0.6,2.4,1.3,3.4,2.2c2.8,2.4,3.4,6.5,1.6,9.5c-1.9-1-3.7-2-5.6-2.9c-3.5-1.6-7.2-2.5-11.1-2.2c-0.8,0.1-1.3-0.5-1-1.2
			c0.1-0.2,0.3-0.3,0.4-0.4c1-0.5,1.1-1.6,0.2-2.2c-0.5-0.4-0.5-0.8,0-1.2c0.4-0.3,0.6-0.8,0.5-1.3c-0.1-0.5-0.5-0.9-1-1
			c-0.5,0-0.7-0.2-0.8-0.8C152.3,43.5,153.1,43.3,153.9,43.3z M152.1,46.5c-0.5,0-0.9-0.4-0.9-0.8c0-0.4,0.4-0.8,0.8-0.8
			c0.4,0,0.9,0.4,0.9,0.8C153,46.1,152.6,46.5,152.1,46.5z M151.5,41.6c0.4,0,0.8,0.4,0.8,0.9c0,0.5-0.4,0.8-0.9,0.8
			c-0.5,0-0.8-0.4-0.8-0.9C150.7,41.9,151,41.5,151.5,41.6z M149.6,41.8c0.5,0.7,1.1,1.5,1.6,2.2c0.2,0.3,0.2,0.5-0.1,0.9
			c-0.6,0.7-0.3,1.7,0.6,1.9c0.5,0.1,0.5,0.4,0.5,0.7c-1.1,0.4-1.5,1.2-1,2c0.1,0.2,0.3,0.3,0.5,0.5c0.1,0.1,0.2,0.3,0.2,0.4
			c0,0.1-0.2,0.2-0.4,0.2c-0.6,0-1.1,0.2-1.4,0.8c-0.3,0.6,0,1.1,0.5,1.6c-0.1,0.2-0.2,0.3-0.3,0.5c-1.5-0.3-2,0.1-2,1.4
			c-0.7-0.7-0.7-0.9-0.1-1.6c3-3.2,3.3-8.2,1.2-11.5c0-0.1-0.1-0.1-0.2-0.4C149.4,41.6,149.5,41.7,149.6,41.8z M129.8,37.8
			c5.7-2.4,11.3-2.2,16.4,1.3c4.9,3.4,5.4,10,1.2,14.2c-0.3,0.3-0.4,0.5-0.1,0.8c0.1,0.2,0.2,0.4,0.4,0.7c0.5,0.9,0.4,0.9-0.6,1.5
			c-0.6-1-1.1-2-1.7-2.9c0.7-0.7,1.4-1.4,2-2.1c2.3-3.1,2.4-8.3-2-11.3c-2.2-1.5-4.7-2.3-7.4-2.4c-3.2-0.2-6.3,0.4-9.1,2.1
			c-0.1,0-0.1,0.1-0.2,0.1C128.5,38.4,128.5,38.3,129.8,37.8z M127.5,35.9c0-0.5,0.3-0.8,0.8-0.8c0.4,0,0.9,0.4,0.9,0.9
			c0,0.4-0.4,0.8-0.9,0.8C127.9,36.8,127.5,36.4,127.5,35.9z M126.2,27.4c1.4,0.6,2.1,1.5,2.5,2.9c-0.8,0-1.6,0-2.5,0
			C126.2,29.4,126.2,28.4,126.2,27.4z M123.4,27.5c0,0.9,0,1.9,0,2.8c-0.8,0-1.7,0-2.5,0C120.8,29.4,122.3,27.5,123.4,27.5z
			 M120.9,32.3c-0.1-0.5-0.1-1-0.2-1.5c1.1,0,2.1,0,3.1,0c0-2.4,0-4.7,0-7.1c-0.7,0-1.5,0-2.3,0c0-0.7,0-1.3,0-1.9
			c0.8,0,1.5,0,2.3,0c0-0.8,0-1.5,0-2.3c0.6,0,1.2,0,1.9,0c0,0.7,0,1.4,0,2.2c0.7,0,1.3,0,1.9,0c0.4,0,0.5,0.1,0.5,0.5
			c0,0.5,0,0.9,0,1.4c-0.8,0-1.5,0-2.3,0c0,2.4,0,4.7,0,7.1c1,0,2,0,3.1,0c-0.1,0.6-0.1,1.1-0.3,1.7c0,0.1-0.3,0.3-0.5,0.3
			c-2.2,0-4.5,0-6.7,0C121.2,32.7,120.9,32.5,120.9,32.3z M121.2,33.1c2.4,0,4.7,0,7.1,0c-0.8,1.3-1.9,2-3.3,2.1
			C123.4,35.3,122.1,34.6,121.2,33.1z M121.2,36.8c-0.4,0-0.9-0.4-0.9-0.8c0-0.5,0.3-0.8,0.8-0.9c0.5-0.1,0.9,0.4,0.9,0.8
			C122,36.3,121.6,36.8,121.2,36.8z M121.4,38.2c0.1-1.6,1.5-2.7,3-2.6c0.6,0,1.2-0.1,1.8,0.2c1.3,0.5,1.9,1.6,1.9,3
			c0.2,2.7,0.3,5.4,0.5,8.1c0.2,1.7,0.5,3.4,0.9,5c0.1,0.3,0.1,0.6-0.2,0.8c-0.9,0.8-1.7,1.7-2.6,2.5c-0.6-0.9-0.3-1.5,0.4-2
			c1-0.7,1.2-1.5,0.8-2.7c-0.7-2.4-0.7-4.8-0.8-7.3c-0.1-1.6-0.2-3.1-0.4-4.7c-0.1-1.2-0.9-1.9-2-1.9c-1.1,0-2,0.7-2.1,1.9
			c-0.1,1.4-0.2,2.9-0.3,4.4c-0.2,2.9-0.2,5.9-1.1,8.8c-0.1,0.2,0,0.4,0.2,0.6c0.4,0.4,0.8,0.8,1.2,1.2c0.7,0.7,0.7,0.9,0.3,2
			c-1-1-2-2-3-3c-0.1-0.1-0.1-0.3,0-0.4c0.7-2.4,0.9-4.8,1-7.3C121,42.6,121.2,40.4,121.4,38.2z M103.4,39c2.9-2,6.2-2.8,9.7-2.7
			c2.3,0.1,4.6,0.5,6.7,1.5c1.5,0.7,1.2,0.4,1,1.8c-1.4-0.5-2.8-1.2-4.3-1.6c-4.4-1-8.6-0.6-12.5,2c-4.8,3.3-4.4,9.9-0.2,13
			c0.1,0.1,0.2,0.2,0.3,0.3c-0.6,1-1.1,2-1.7,3c-0.3-0.3-0.6-0.5-1-0.8c0.3-0.6,0.6-1.2,1-1.9c-1.4-1.3-2.4-2.8-2.9-4.6
			C98.5,45.1,99.9,41.4,103.4,39z M100.2,41.4c0,0.2,0,0.3,0,0.3c-2.4,3.7-1.7,8.9,1.4,11.9c0.1,0.1,0.1,0.4,0.1,0.6
			c-0.1,0.3-0.3,0.6-0.5,1c0.1-1.6-0.6-2.1-2-1.7c-0.1-0.2-0.2-0.3-0.4-0.5c0.5-0.5,0.8-1.1,0.4-1.7c-0.3-0.6-0.9-0.7-1.6-0.6
			c-0.1-0.2-0.1-0.3-0.2-0.5c0.6-0.3,1-0.7,0.9-1.4c-0.1-0.7-0.5-1-1.2-1.2c-0.1-0.4,0-0.6,0.4-0.8c1-0.3,1.1-1.4,0.2-2.3
			C98.7,43.5,99.4,42.5,100.2,41.4z M96.5,45.7c0-0.5,0.4-0.9,0.8-0.9c0.5,0,0.9,0.4,0.9,0.9c0,0.4-0.4,0.8-0.9,0.8
			C96.9,46.5,96.5,46.1,96.5,45.7z M98,41.6c0.5,0,0.9,0.3,0.9,0.8c0,0.5-0.3,0.8-0.8,0.8c-0.5,0-0.9-0.3-0.9-0.8
			C97.1,42,97.5,41.6,98,41.6z M97.2,43.5c0.2,0.1,0.5,0.2,0.7,0.2c-0.1,0.4-0.2,0.7-0.7,0.7c-0.5,0-0.9,0.4-1.1,0.9
			c-0.1,0.5,0,1,0.4,1.3c0.4,0.4,0.4,0.8,0,1.2c-0.9,0.7-0.8,1.8,0.2,2.2c0.4,0.2,0.5,0.5,0.4,0.8c-0.1,0.4-0.2,0.8-0.8,0.8
			c-1.3-0.1-2.6-0.1-3.9,0c-4,0.4-7.6,1.8-11.1,3.8c-0.6,0.4-1.2,0.8-1.9,1.2c-0.8-1.3-1.1-2.8-1-4.3c0.2-2.4,1.3-4.3,3.2-5.7
			c2.3-1.8,5-2.7,7.9-3.2c2.3-0.4,4.7-0.4,7-0.1C96.8,43.4,97,43.4,97.2,43.5z M77,49.1c-0.2,1-0.5,2.2-0.6,3.4
			c-0.2,2.3,0.5,4.4,1.9,6.2c0.3,0.3,0.3,0.6,0.1,0.9c-0.3,0.5-0.7,1.1-1,1.7C74.8,58.2,74.4,52.7,77,49.1z M77.4,62
			c0.6-1,1.1-1.9,1.7-2.9c-1.1-1.3-1.8-2.8-2.1-4.4c-0.5-3,0.2-5.7,2.3-8c2.1-2.3,4.9-3.6,7.9-4.4c3.1-0.8,6.3-1,9.5-0.6
			c0.1,0,0.2,0,0.3,0.1c0,0.4-0.1,0.8-0.1,1.2c-0.7,0-1.5-0.1-2.2-0.1c-3.6-0.1-7.1,0.4-10.4,1.9c-1.6,0.8-3.1,1.7-4.2,3.1
			c-2.6,3.2-2.4,7.6,0.4,10.6c0.1,0.1,0.3,0.3,0.4,0.4c-0.8,1.3-1.5,2.6-2.3,4C78.1,62.6,77.8,62.3,77.4,62z M76.3,66.1
			c0-1.1,0.6-2,1.6-2.4c1.2-0.5,2.3-0.1,3.5,1.1c0.1-0.4,0.2-0.8,0.3-1.2c1.7,0.7,2.1,2.7,1.5,5c-0.5,0.1-1,0.2-1.6,0.4
			C80.6,67,78.8,65.8,76.3,66.1z M83.7,72c-0.9,0-1.8-0.8-1.9-1.7c-0.1-0.6,0.3-1.1,0.9-1c0.9,0,1.8,0.9,1.9,1.8
			C84.7,71.6,84.3,72,83.7,72z M89.9,76.4c-2-0.6-3.5-2-4.8-3.7c-0.1-0.2-0.3-0.4-0.4-0.6c0,0,0-0.1,0-0.1c0.2-0.4,0.3-0.7,0.5-1.1
			c0.6,0.5,1.2,1.2,1.9,1.7c0.8,0.6,1.7,1.3,2.7,1.7c2.1,1,3.6,0,3.9-2.3c0-0.3,0.1-0.6,0.4-0.6c0.2,0,0.5,0.1,0.6,0.2
			c1.6,1.6,3.9,2,5.7,1c2-1.1,2.8-3.1,2.3-5.4c0-0.1,0-0.2-0.1-0.3c0.5-0.1,1-0.2,1.6-0.3c0.1,1.4,0.5,2.6,1.6,3.6
			c2.6,2.5,7.1,1.4,8.1-2.1c0.1-0.2,0.2-0.3,0.4-0.5c0.2,0.1,0.4,0.2,0.5,0.4c1.1,2.1,3.3,3.1,5.6,2.6c2.1-0.5,3.7-2.5,3.7-4.8
			c0-0.3,0-0.6-0.1-0.9c0.6,0,1.1,0,1.7,0c0,0.5-0.1,1.1,0,1.6c0.3,2.2,1.9,3.8,4.1,4.2c2,0.3,4.1-0.7,5.1-2.6
			c0.1-0.1,0.1-0.3,0.2-0.4c0.2-0.3,0.6-0.1,0.7,0.4c0.6,1.9,1.9,3.1,3.8,3.4c2.8,0.5,5.3-1.3,5.7-4.1c0-0.2,0.1-0.5,0.1-0.7
			c0.5,0.1,1,0.2,1.4,0.3c0,0.8-0.1,1.6,0,2.4c0.3,1.8,1.4,3.1,3.1,3.6c1.8,0.6,3.4,0.2,4.7-1.1c0.4-0.4,0.7-0.6,1.2-0.3
			c0.1,0.5,0.2,1,0.4,1.5c0.5,1.3,1.7,1.8,3,1.5c1.3-0.4,2.4-1.1,3.4-2c0.6-0.5,1.2-1.1,1.8-1.6c0.2,0.4,0.3,0.7,0.5,1.1
			c-1.3,1.8-2.7,3.4-4.9,4.2c-2.3,0.8-3.8,0.1-4.8-2.1c-0.1-0.1-0.1-0.3-0.2-0.5c-1.7,1.1-3.5,1.3-5.5,0.7c-1.9-0.6-3.2-1.9-4-3.7
			c-2.5,3-7.4,3.4-10.4-0.2c-1.5,1.5-3.4,2.1-5.5,1.9c-2.1-0.2-3.7-1.3-4.9-3.2c-2.3,3.6-7.1,4.4-10.4,1.3c-1.3,1.6-3,2.6-5.1,2.6
			c-2.1,0.1-3.8-0.8-5.2-2.4c-0.8,1.9-2.1,3.2-4,3.8c-1.9,0.6-3.7,0.3-5.4-0.8c-0.2,0.4-0.3,0.7-0.5,1C93.2,76.5,91.7,77,89.9,76.4z
			 M156,76.1c-1.1-0.3-2.2-0.6-3.3-0.9c0.8-0.3,1.5-0.5,2.2-0.8C155.3,75,155.6,75.5,156,76.1z M147.7,74.2
			c-0.8-0.1-1.7-0.3-2.5-0.4c-0.9-0.1-1.8-0.3-2.7-0.4c0.6-0.3,1.1-0.5,1.6-0.8c0.5-0.3,0.9-0.7,1.3-1
			C146.2,72.5,147,73.4,147.7,74.2z M137.3,72.9c-1.5-0.1-2.9-0.2-4.4-0.3c0.8-0.5,1.5-0.9,2.3-1.4
			C135.9,71.7,136.6,72.3,137.3,72.9z M127.5,72.3c-1.7,0-3.5,0-5.2,0c0.9-0.7,1.8-1.5,2.6-2.1C125.7,70.9,126.6,71.6,127.5,72.3z
			 M116.8,72.6c-1.5,0.1-2.8,0.2-4.3,0.3c0.7-0.6,1.4-1.1,2.1-1.7C115.2,71.6,116,72.1,116.8,72.6z M107.1,73.4
			c-1.6,0.2-3.3,0.5-5,0.8c-0.1,0-0.1,0-0.1,0c0.7-0.8,1.5-1.7,2.2-2.5C105.2,72.3,106.2,72.9,107.1,73.4z M97,75.2
			c-1.1,0.3-2.2,0.6-3.3,0.8c0.4-0.6,0.7-1.1,1.1-1.6C95.5,74.7,96.3,74.9,97,75.2z M90.9,78.3c-0.2-0.5,0.1-1,0.7-1.2
			c2.9-0.7,5.7-1.5,8.6-2.1c2.8-0.6,5.7-1,8.6-1.3c3.4-0.4,6.8-0.5,10.2-0.8c2-0.1,3.9-0.2,6.5-0.2c3.3,0.2,7.2,0.3,11.1,0.6
			c6.8,0.5,13.5,1.5,20.1,3.5c0.5,0.1,1,0.3,1.4,0.4c0.6,0.2,0.8,0.6,0.6,1.2c-0.1,0.5-0.5,0.6-1.1,0.4c-5.7-1.7-11.5-2.7-17.4-3.4
			c-8-0.9-16.1-1-24.1-0.6c-7.2,0.4-14.3,1.3-21.3,3.1c-0.9,0.2-1.8,0.5-2.8,0.8C91.5,78.9,91.1,78.8,90.9,78.3z M92.9,78.9
			c10.5-2.9,21.2-3.9,31.9-3.9s21.4,1,31.9,3.9c-0.6,1.1-1.6,1.1-2.6,1.2c-0.7,0.1-1.3,0.2-2.1,0.3c0.8,0.6,1.4,1.2,2.2,1.6
			c0.4,0.3,0.6,0.6,0.4,1.1c-0.1,0.3-0.1,0.7-0.1,0.9c-19.7-4.9-39.4-4.9-59.1,0c-0.1-0.4-0.2-0.9-0.2-1.4c0-0.1,0.1-0.3,0.2-0.4
			c0.8-0.6,1.5-1.2,2.4-1.9c-1-0.1-1.9-0.4-2.8-0.4C94,80,93.5,79.5,92.9,78.9z M94.6,82.2c-0.2,0.1-0.5-0.1-0.8-0.3
			c-0.2-0.1-0.4-0.2-0.7-0.3c0.3-0.4,0.5-0.8,0.8-1c0.1-0.1,0.4-0.2,0.6-0.2c0.7,0.1,1.3,0.2,2.1,0.3C95.9,81.2,95.3,81.7,94.6,82.2
			z M104.2,88.9c-2.9-0.6-5.8-1.4-8.7-2.1c-0.6-0.1-1-0.4-1-1.1c0-0.7,0.4-0.9,1-1.1c4-1.2,8.1-2,12.2-2.6c6.8-1,13.6-1.3,20.4-1.1
			c6,0.1,11.9,0.6,17.8,1.7c2.8,0.6,5.7,1.3,8.5,2c0.5,0.1,0.9,0.4,0.9,1c0,0.7-0.2,1.1-0.9,1.2c-3.2,0.8-6.5,1.6-9.8,2.3
			c-3.7,0.8-7.4,0.8-11.1,0.8c-2.9,0-5.8,0-8.7,0c-3.5,0-6.9-0.1-10.4,0C111,90,107.6,89.6,104.2,88.9z M82.1,194.7
			c0,0-0.1,0-0.1,0.1c-0.6-0.9-1.2-1.7-1.7-2.6c-2-3.6-3.1-7.4-3.1-11.5c0-11.1,0-22.2,0-33.3c0-0.2,0-0.3,0-0.5c1.6,0,3.2,0,4.9,0
			C82.1,162.8,82.1,178.8,82.1,194.7z M77.2,146.2c0-18.5,0-37.1,0-55.7c15.8,0,31.6,0,47.5,0c0,0.2,0,0.4,0,0.6
			c0,11.9,0,23.8,0,35.7c0,0.6-0.1,0.7-0.7,0.8c-3.3,0.2-6.1,1.6-8.5,3.8c-0.2,0.2-0.4,0.4-0.6,0.6c-0.1-0.2-0.1-0.4-0.1-0.6
			c-1.2,0-2.5,0-3.8,0c0-4.8,0-9.5,0-14.4c0.5,0,0.9,0,1.4,0c0.2,0,0.5-0.3,0.5-0.4c0-2.2,0-4.3,0-6.6c-1,0-2.1,0-3.1,0
			c0-1.4,0-2.8,0-4.3c0.4,0,0.8,0,1.2,0c0-1.3,0-2.5,0-3.7c-0.5,0-0.9,0-1.5,0c0,0.3,0,0.6-0.1,0.9c-0.3,0-0.6,0-0.9,0
			c0-0.3,0-0.6,0-0.9c-0.6,0-1.2,0-1.8,0c0,0.3-0.1,0.6-0.1,0.9c-0.3,0-0.6,0-0.9,0c0-0.3,0-0.6-0.1-0.9c-0.5,0-0.9,0-1.4,0
			c0,1.2,0,2.4,0,3.7c0.4,0,0.8,0,1.2,0c0,1.4,0,2.8,0,4.2c-0.8,0-1.5,0-2.2,0c0-3.1,0-6.3,0-9.5c0.6,0,1.2,0,1.8,0
			c0-1.4,0-2.8,0-4.2c-0.5,0-1,0-1.5,0c0,0.3-0.1,0.5-0.1,0.8c-0.4,0-0.7,0-1.1,0c0-0.3,0-0.5,0-0.8c-0.7,0-1.4,0-2.1,0
			c0,0.3,0,0.5,0,0.8c-0.4,0-0.8,0-1.2,0c0-0.3-0.1-0.5-0.1-0.8c-0.5,0-0.9,0-1.4,0c0,0.6,0,1.2,0,1.7c0,0.6,0,1.3,0,1.9
			c0,0.5,0.2,0.7,0.7,0.6c0.3,0,0.6,0,1,0c0,3.2,0,6.3,0,9.5c-0.8,0-1.5,0-2.3,0c0-1.4,0-2.7,0-4.2c0.4,0,0.8,0,1.3,0
			c0-1.3,0-2.5,0-3.7c-0.5,0-1,0-1.5,0c0,0.3,0,0.6-0.1,0.9c-0.3,0-0.6,0-0.9,0c0-0.3,0-0.6-0.1-0.9c-0.6,0-1.1,0-1.8,0
			c0,0.3,0,0.6-0.1,0.9c-0.3,0-0.6,0-0.9,0c0-0.3-0.1-0.6-0.1-0.9c-0.5,0-0.9,0-1.4,0c0,1.2,0,2.4,0,3.7c0.4,0,0.8,0,1.2,0.1
			c0,1.4,0,2.8,0,4.2c-1,0-1.9,0-3,0c0,1.5,0,3,0,4.4c0,0.7,0,1.3,0,2c0,0.5,0.2,0.6,0.6,0.6c0.4,0,0.7,0,1.1,0c0,4.8,0,9.5,0,14.4
			c-1.3,0-2.5,0-3.8,0c0,2.6,0,5.1,0,7.6c7.8,0,15.5,0,23.1,0c-0.4,2.4-0.8,4.8-1.3,7.3C98.6,146.2,87.9,146.2,77.2,146.2z
			 M108,124.6c-0.8,0-1.6,0-2.4,0c0-1.1,0-2.2,0-3.3c0-0.6,0.7-1,1.2-0.9c0.6,0,1.1,0.5,1.1,1.2C108.1,122.5,108,123.5,108,124.6z
			 M103.4,138.6c-1.6,0-3.2,0-4.8,0c0-1.6-0.1-3.1,0-4.7c0.1-1.2,1.2-2,2.4-2c1.2,0,2.3,0.9,2.3,2.1
			C103.4,135.5,103.4,137,103.4,138.6z M96.4,124.6c-0.8,0-1.6,0-2.5,0c0-1,0-2.1,0-3.1c0-0.7,0.6-1.1,1.2-1.1
			c0.6,0,1.2,0.5,1.2,1.1C96.4,122.5,96.4,123.5,96.4,124.6z M103.6,146.9c0,19,0,38.1,0,57.2c-1.8,0-3.5,0-5.3,0
			c0-19.1,0-38.2,0-57.2C100.1,146.9,101.8,146.9,103.6,146.9z M92.8,202.7c-0.1,0-0.2,0-0.3,0c-1.6-0.8-3.2-1.6-4.7-2.5
			c-0.2-0.1-0.3-0.4-0.3-0.7c0-1.3,0-2.6,0-3.9c0-16,0-31.9,0-47.9c0-0.3,0-0.5,0-0.9c1.8,0,3.6,0,5.3,0
			C92.8,165.5,92.8,184.1,92.8,202.7z M153.8,204.6c-4.3,1.7-8.8,3.1-13.4,4l0,0c-4.8,1-10.7,1.6-15.8,1.6c-4,0-9.5-0.6-14-1.5
			c-0.5-0.1-1-0.2-1.5-0.3c-4.4-1-8.7-2.3-12.9-4c-0.1,0-0.2-0.1-0.3-0.2c6.7,1.2,13.1,0.2,18.8-3.7c5.7-3.9,9.1-9.3,10.4-16
			c1.4,6.8,4.8,12.2,10.5,16.1c5.7,3.9,12.1,4.9,18.9,3.7C154.2,204.4,154,204.5,153.8,204.6z M173,180.6c0,11.4-8.5,21.5-19.8,23.2
			c-10.1,1.5-18.1-2.1-23.9-10.4c-2.7-3.8-3.9-8.2-3.9-12.8c0-5,0-9.9,0-14.9c0-0.2,0-0.3,0-0.4c1.7-0.3,3.3-0.7,4.9-1
			c0,0.3,0,0.7,0,1.1c0.1,0.1,0.1,0.1,0.1,0.1c1.6,0.5,1.6,0.5,1.6,2.1c0,0.8,0,1.6,0,2.4c-1.6,0.8-2.1,2-1.7,3.4
			c0.2,0.7,0.7,1.2,1.3,1.6c0.2,0.1,0.3,0.4,0.3,0.6c0.1,0.2,0,0.5,0,0.7c0,1.4,0,1.4-1.3,1.9c-0.4,0.1-0.4,0.3-0.3,0.6
			c0.1,1.3,0.2,2.7,0.2,4c0,0,0.1,0.1,0.1,0.1c1.3,0,1.9,0.7,2,1.9c0,0.2,0.1,0.4,0.2,0.6c0.3,0.8,0.4,1.5,0,2.3
			c-0.9,1.7,0.7,3.7,2.7,3.6c0.4,0,0.7,0.1,1,0.4c0.5,0.5,0.9,1,1.5,1.4c0.3,0.3,0.5,0.6,0.3,1c-0.3,1.2-0.3,1.2,0.8,1.8
			c0.8,0.5,1.7,0.9,2.5,1.3c0.3,0.2,0.6,0.2,0.8-0.2c0.5-0.8,1.2-1,2-0.5c0.2,0.1,0.4,0.1,0.7,0.2c0.8,0.1,1.4,0.3,1.8,1.2
			c1,1.8,3.7,1.5,4.6-0.4c0.2-0.4,0.4-0.6,0.8-0.6c0.5-0.1,1-0.2,1.5-0.4c0.7-0.3,1.1-0.1,1.5,0.4c0.4,0.5,0.8,0.6,1.4,0.3
			c0.9-0.5,1.9-1,2.8-1.5c0.4-0.2,0.5-0.4,0.4-0.8c-0.4-0.9-0.2-1.6,0.7-2.1c0.2-0.1,0.3-0.3,0.4-0.4c0.5-0.6,1.1-1,2.1-1
			c2,0,3-2.4,1.9-4c-0.2-0.3-0.2-0.6-0.1-1c0.3-0.8,0.5-1.6,0.7-2.4c0.1-0.4,0.3-0.6,0.7-0.7c1.1-0.2,1.1-0.3,1.2-1.4
			c0-1,0.1-2,0.1-2.9c0-0.4-0.1-0.5-0.4-0.7c-1.2-0.4-1.2-0.4-1.2-1.8c0-0.2,0-0.4,0-0.6c-0.1-0.5,0.1-0.7,0.5-1
			c1.8-1,1.7-3.6-0.1-4.6c-0.3-0.2-0.5-0.4-0.4-0.8c0-1.1,0-2.3,0-3.4c0.1-0.1,0.1-0.1,0.1-0.1c0.5-0.2,1.2-0.2,1.4-0.5
			c0.3-0.4,0.1-1,0.1-1.6c0-0.8,0-1.6,0-2.4c0-0.4-0.1-0.6-0.5-0.7c-1.2-0.3-1.2-0.4-1.2-1.5c0-0.4,0-0.8,0-1.2
			c0-0.8-0.1-1.6,0.9-2.1c1-0.6,1.1-1.7,0.8-2.7c-0.3-1.1-1.1-1.7-2.2-1.9c-1.1-0.1-2.1,0.3-2.6,1.3c-0.2,0.4-0.4,0.5-0.8,0.5
			c-0.2,0-0.4,0-0.6,0c-0.5,0-1.1,0.2-1.5-0.1c-0.3-0.2-0.4-0.9-0.6-1.3c-0.1-0.1-0.3-0.3-0.4-0.3c-1.3,0-2.6,0-3.9,0
			c-0.2,0-0.4,0.2-0.5,0.4c-0.4,1.3-0.4,1.3-1.8,1.3c-0.2,0-0.5,0-0.7,0c-0.4,0-0.5-0.1-0.7-0.4c-1.1-1.9-3.6-1.8-4.6,0
			c-0.2,0.3-0.4,0.4-0.7,0.4c-0.5,0-1,0-1.4,0c-0.4,0-0.6-0.1-0.7-0.5c-0.3-1.2-0.3-1.2-1.6-1.2c-0.5,0-1.1,0-1.7,0
			c0.2-1.5,0.4-3,0.6-4.4c10.6,0,21.2,0,31.9,0c0,0.2,0,0.4,0,0.6C173,158.5,173,169.6,173,180.6z M184.3,124.8
			c-0.5,1.6-1,3.3-1.5,4.9c-0.1,0.2-0.3,0.4-0.4,0.5c-0.3,0-0.7,0-0.9-0.2c-1.3-1.8-2.5-3.7-3.8-5.6c0,0,0-0.1,0-0.1
			c0.5-0.1,1.1-0.2,1.6-0.3c0.2,0,0.5,0.2,0.6,0.3c0.7,1.1,1.4,2.1,2,3.2c0.1,0.2,0.2,0.4,0.5,0.7c0.4-1.4,0.8-2.7,1.1-4
			c0.3-1.1,0.1-0.9,1.3-1C184.6,123.7,184.4,124.2,184.3,124.8z M191.1,129.7c-1.4,0-2.8,0-4.3,0c0-1.1,0-2.2,0-3.3c0-1,0-1.9,0-2.9
			c0-0.4,0.1-0.5,0.5-0.4c0.4,0.1,0.9,0,1.3,0.1c0,1.9,0,3.8,0,5.7c0.8,0,1.6,0,2.5,0C191.1,129.2,191.1,129.4,191.1,129.7z
			 M197.4,124.6c-0.7-0.1-1.3-0.2-2-0.3c-0.2,1.9-0.3,3.8-0.5,5.8c-0.6,0-1.2-0.1-1.8-0.1c0.2-2,0.3-3.9,0.5-5.9c-0.7,0-1.4,0-2,0
			c0-0.3,0-0.6,0-0.9c2,0.2,3.9,0.3,5.8,0.5C197.4,124,197.4,124.3,197.4,124.6z M203.5,132c-0.7-0.2-1.3-0.3-1.9-0.4
			c-0.2,0-0.3-0.3-0.4-0.4c-0.3-0.8-0.6-1.5-0.9-2.3c-0.1-0.2-0.2-0.4-0.3-0.6c-0.2,1-0.5,2-0.7,2.9c-0.6-0.1-1.1-0.3-1.7-0.4
			c0.5-2.1,1-4.3,1.5-6.5c1.3,0.3,2.5,0.6,3.7,1c0.8,0.2,1.2,0.8,1.1,1.5c0,0.7-0.5,1.3-1.3,1.5c-0.2,0.1-0.5,0.1-0.8,0.2
			C202.5,129.6,203,130.8,203.5,132z M210.8,128.8c-0.2,2.3-0.4,4.5-0.5,6.9c-0.6-0.4-1.2-0.7-1.8-1c0.1-0.7,0.2-1.4,0.3-2.1
			c-0.7-0.4-1.3-0.8-2-1.1c-0.1-0.1-0.4,0-0.5,0.1c-0.2,0.1-0.5,0.3-0.7,0.5c-0.8,0.6-0.8,0.6-1.6-0.1c0.6-0.4,1.1-0.7,1.6-1.1
			c1.4-0.9,2.7-1.8,4.1-2.7c0.2-0.1,0.5-0.1,0.7-0.1C210.7,128.2,210.8,128.4,210.8,128.8z"/>
	</g>
</g>
</svg>
