<svg height="512" viewBox="0 0 256 256" width="512" xmlns="http://www.w3.org/2000/svg"><g fill="#efefef"><path d="m128 5.561-117.73 77.531h235.46z"/><path d="m232.545 83.092v12.568a3.039 3.039 0 0 1 -3 3.076h-203.09a3.039 3.039 0 0 1 -3-3.076v-12.568z"/><path d="m247 230.844h-8v-12.569a3.039 3.039 0 0 0 -3-3.076h-216a3.039 3.039 0 0 0 -3 3.076v12.569h-8a3 3 0 0 0 -3 3v16.6h244v-16.6a3 3 0 0 0 -3-3z"/><path d="m224.3 115.418v-16.682h-29.113v16.682c-2.6 32.95-2.6 50.149 0 83.1v16.682h29.113v-16.683c2.6-32.95 2.6-50.149 0-83.099z"/><path d="m169.8 115.418v-16.682h-29.107v16.682c-2.6 32.95-2.6 50.149 0 83.1v16.682h29.107v-16.683c2.6-32.95 2.6-50.149 0-83.099z"/><path d="m60.813 115.418v-16.682h-29.113v16.682c-2.6 32.95-2.6 50.149 0 83.1v16.682h29.113v-16.683c2.601-32.95 2.601-50.149 0-83.099z"/><path d="m115.307 115.418v-16.682h-29.107v16.682c-2.6 32.95-2.6 50.149 0 83.1v16.682h29.109v-16.683c2.6-32.95 2.6-50.149-.002-83.099z"/></g><path d="m202.354 72.592h-136.873a2.5 2.5 0 1 1 0-5h128.531l-50.767-33.433a2.5 2.5 0 1 1 2.755-4.176l57.729 38.017a2.5 2.5 0 0 1 -1.375 4.592zm-146.873 0h-1.835a2.5 2.5 0 0 1 0-5h1.835a2.5 2.5 0 1 1 0 5z" fill="#fff"/><path d="m50.856 191.011a2.5 2.5 0 0 1 -2.323-2.665l.147-2.159a2.5 2.5 0 1 1 4.988.334l-.147 2.167a2.5 2.5 0 0 1 -2.665 2.323zm.777-12.141a2.5 2.5 0 0 1 -2.374-2.62 395.647 395.647 0 0 0 -.726-50.659 2.5 2.5 0 0 1 4.988-.346 400.454 400.454 0 0 1 .732 51.251 2.5 2.5 0 0 1 -2.62 2.374z" fill="#fff"/><path d="m105.659 191.011a2.5 2.5 0 0 1 -2.32-2.667l.146-2.154a2.5 2.5 0 1 1 4.989.328l-.147 2.173a2.5 2.5 0 0 1 -2.668 2.32zm.9-12.138c-.042 0-.084 0-.125 0a2.5 2.5 0 0 1 -2.375-2.62 395.692 395.692 0 0 0 -.724-50.659 2.5 2.5 0 0 1 4.988-.346 400.663 400.663 0 0 1 .731 51.251 2.5 2.5 0 0 1 -2.491 2.374z" fill="#fff"/><path d="m160.468 191.011a2.5 2.5 0 0 1 -2.323-2.665l.146-2.159a2.5 2.5 0 0 1 4.988.334l-.146 2.167a2.5 2.5 0 0 1 -2.665 2.323zm.776-12.141a2.5 2.5 0 0 1 -2.374-2.62 395.645 395.645 0 0 0 -.725-50.659 2.5 2.5 0 0 1 4.988-.346 400.634 400.634 0 0 1 .731 51.251 2.5 2.5 0 0 1 -2.62 2.374z" fill="#fff"/><path d="m215.271 191.011a2.5 2.5 0 0 1 -2.321-2.667l.147-2.154a2.5 2.5 0 1 1 4.988.328l-.147 2.173a2.5 2.5 0 0 1 -2.667 2.32zm.778-12.141a2.5 2.5 0 0 1 -2.374-2.62 395.694 395.694 0 0 0 -.725-50.659 2.5 2.5 0 0 1 4.988-.346 400.48 400.48 0 0 1 .731 51.251 2.5 2.5 0 0 1 -2.62 2.374z" fill="#fff"/><path d="m247 228.34h-5.5v-10.065a5.545 5.545 0 0 0 -5.5-5.575h-9.2v-14.066c2.605-33.082 2.612-50.2 0-83.339v-14.059h2.749a5.545 5.545 0 0 0 5.5-5.576v-10.068h10.681a2.5 2.5 0 0 0 1.375-4.592l-117.73-77.528a2.506 2.506 0 0 0 -2.75 0l-117.725 77.528a2.5 2.5 0 0 0 1.375 4.588h10.68v10.072a5.545 5.545 0 0 0 5.5 5.576h2.745v14.085c-2.607 33.063-2.607 50.23 0 83.293v14.086h-9.2a5.545 5.545 0 0 0 -5.5 5.575v10.065h-5.5a5.515 5.515 0 0 0 -5.5 5.5v16.6a2.493 2.493 0 0 0 2.5 2.5h244a2.493 2.493 0 0 0 2.5-2.5v-16.6a5.515 5.515 0 0 0 -5.5-5.5zm-74.7-15.64v-14.086c2.607-33.063 2.607-50.23 0-83.293v-14.085h20.386v14.009c-.459 5.85-.829 11.042-1.119 15.875a2.5 2.5 0 0 0 5 .3c.241-4.05.54-8.47.931-13.5h24.479c2.364 30.643 2.358 47.515 0 78.1h-24.477c-1.216-15.78-1.95-29.276-1.72-44.727a2.5 2.5 0 0 0 -2.461-2.54l-.039-.01a2.514 2.514 0 0 0 -2.5 2.47c-.257 16.137.624 31.186 1.908 47.475v14.012zm-54.495 0v-14.079c2.606-33.092 2.608-50.189 0-83.313v-14.072h20.386v14.085c-2.607 33.063-2.607 50.23 0 83.293v14.086zm-54.494 0v-14.086c2.607-33.063 2.607-50.23 0-83.293v-14.085h20.389v14.009c-1.339 17.076-1.928 29.341-1.948 41a2.5 2.5 0 1 0 5 .01c.02-11.111.55-22.58 1.76-38.33h24.48c2.358 30.595 2.361 47.472 0 78.1h-24.482c-.58-7.539-1-14.048-1.281-19.908a2.5 2.5 0 1 0 -5 .24c.321 6.5.78 13.6 1.469 22.336v14.007zm-29.3-94.782h24.489c2.354 30.6 2.354 47.5 0 78.1h-24.483c-2.355-30.603-2.355-47.498 0-78.1zm78.79-5h-24.101v-11.682h24.109zm-24.101 88.101h24.109v11.681h-24.109zm54.308-83.1h24.483c2.355 30.6 2.355 47.5 0 78.1h-24.485c-2.355-30.604-2.355-47.499 0-78.101zm24.3-5h-24.115v-11.683h24.107zm-24.109 88.1h24.101v11.681h-24.107zm54.495 0h24.106v11.681h-24.112zm24.108-88.1h-24.114v-11.683h24.112zm-93.802-104.366 109.389 72.039h-218.778zm-102.045 87.107v-10.068h204.09v10.068a.544.544 0 0 1 -.5.576h-203.09a.544.544 0 0 1 -.5-.576zm32.358 5.576v11.682h-24.113v-11.682zm-24.113 99.781h24.113v11.683h-24.113zm213.3 46.922h-239v-14.09a.509.509 0 0 1 .5-.509h39.31a2.5 2.5 0 0 0 0-5h-28.81v-10.065a.543.543 0 0 1 .5-.575h216a.543.543 0 0 1 .5.575v10.065h-168.19a2.5 2.5 0 1 0 0 5h178.69a.507.507 0 0 1 .5.5z"/><circle cx="58.31" cy="230.84" r="2.5"/><path d="m84.359 168.74h.071a2.5 2.5 0 0 0 2.429-2.551v-.01a2.5 2.5 0 0 0 -2.489-2.439h-.07a2.5 2.5 0 0 0 .059 5z"/><path d="m193.569 143.75a2.5 2.5 0 1 0 -2.509-2.6 2.512 2.512 0 0 0 2.509 2.6z"/></svg>